ISO-10303-21;
HEADER;
FILE_DESCRIPTION (( 'STEP AP214' ),
    '1' );
FILE_NAME ('1. Head Front.STEP',
    '2026-06-02T01:56:34',
    ( '' ),
    ( '' ),
    'SwSTEP 2.0',
    'SolidWorks 2026',
    '' );
FILE_SCHEMA (( 'AUTOMOTIVE_DESIGN' ));
ENDSEC;

DATA;
#1 = DIRECTION ( 'NONE',  ( -0.000000000000000000, -0.000000000000000000, -1.000000000000000000 ) ) ;
#2 = PRODUCT_DEFINITION_FORMATION_WITH_SPECIFIED_SOURCE ( 'ANY', '', #143, .NOT_KNOWN. ) ;
#3 = CARTESIAN_POINT ( 'NONE',  ( -80.00000000000000000, 0.000000000000000000, 5.500000000000000000 ) ) ;
#4 = DIRECTION ( 'NONE',  ( -1.000000000000000000, 0.000000000000000000, 0.000000000000000000 ) ) ;
#5 = ORIENTED_EDGE ( 'NONE', *, *, #721, .T. ) ;
#6 = LINE ( 'NONE', #328, #669 ) ;
#7 = PRODUCT_DEFINITION_CONTEXT ( 'detailed design', #496, 'design' ) ;
#8 = CARTESIAN_POINT ( 'NONE',  ( 80.00000000000000000, 24.99999999999998579, 5.500000000000000000 ) ) ;
#9 = DIRECTION ( 'NONE',  ( 0.000000000000000000, 0.000000000000000000, 1.000000000000000000 ) ) ;
#10 = EDGE_LOOP ( 'NONE', ( #597, #196, #634, #629 ) ) ;
#11 = FACE_OUTER_BOUND ( 'NONE', #410, .T. ) ;
#12 = CARTESIAN_POINT ( 'NONE',  ( -80.00000000000000000, 25.00000000000000000, 0.000000000000000000 ) ) ;
#13 = CARTESIAN_POINT ( 'NONE',  ( -77.00000000000000000, -15.00000000000000711, 5.500000000000000000 ) ) ;
#14 = ORIENTED_EDGE ( 'NONE', *, *, #636, .F. ) ;
#15 = CARTESIAN_POINT ( 'NONE',  ( -80.00000000000000000, -25.00000000000000000, 5.500000000000000000 ) ) ;
#16 = AXIS2_PLACEMENT_3D ( 'NONE', #390, #652, #455 ) ;
#17 = DIRECTION ( 'NONE',  ( 1.000000000000000000, 7.304098846218134421E-17, 0.000000000000000000 ) ) ;
#18 = CIRCLE ( 'NONE', #107, 5.000000000000000000 ) ;
#19 = VECTOR ( 'NONE', #459, 1000.000000000000000 ) ;
#20 = FACE_OUTER_BOUND ( 'NONE', #537, .T. ) ;
#21 = ADVANCED_FACE ( 'NONE', ( #275 ), #527, .T. ) ;
#22 = ORIENTED_EDGE ( 'NONE', *, *, #192, .T. ) ;
#23 = PLANE ( 'NONE',  #814 ) ;
#24 = CYLINDRICAL_SURFACE ( 'NONE', #31, 25.00000000000000711 ) ;
#25 = EDGE_LOOP ( 'NONE', ( #441, #272, #815, #765 ) ) ;
#26 = DIRECTION ( 'NONE',  ( -1.000000000000000000, 0.000000000000000000, 0.000000000000000000 ) ) ;
#27 = EDGE_LOOP ( 'NONE', ( #800, #97 ) ) ;
#28 = ADVANCED_FACE ( 'NONE', ( #84 ), #226, .T. ) ;
#29 = PRODUCT_CONTEXT ( 'NONE', #451, 'mechanical' ) ;
#30 = CARTESIAN_POINT ( 'NONE',  ( 80.00000000000000000, 0.000000000000000000, 0.4999999999999995559 ) ) ;
#31 = AXIS2_PLACEMENT_3D ( 'NONE', #3, #255, #532 ) ;
#32 = AXIS2_PLACEMENT_3D ( 'NONE', #615, #611, #285 ) ;
#33 = ORIENTED_EDGE ( 'NONE', *, *, #217, .T. ) ;
#34 = AXIS2_PLACEMENT_3D ( 'NONE', #521, #142, #194 ) ;
#35 = DIRECTION ( 'NONE',  ( 0.000000000000000000, 0.000000000000000000, 1.000000000000000000 ) ) ;
#36 = EDGE_LOOP ( 'NONE', ( #694, #780, #372, #504 ) ) ;
#37 = LINE ( 'NONE', #288, #413 ) ;
#38 = DIRECTION ( 'NONE',  ( -1.000000000000000000, 0.000000000000000000, 0.000000000000000000 ) ) ;
#39 = DIRECTION ( 'NONE',  ( -0.000000000000000000, -0.000000000000000000, -1.000000000000000000 ) ) ;
#40 = ORIENTED_EDGE ( 'NONE', *, *, #165, .F. ) ;
#41 = DIRECTION ( 'NONE',  ( 0.000000000000000000, 0.000000000000000000, 1.000000000000000000 ) ) ;
#42 = LINE ( 'NONE', #556, #624 ) ;
#43 = ORIENTED_EDGE ( 'NONE', *, *, #378, .T. ) ;
#44 = VECTOR ( 'NONE', #419, 1000.000000000000000 ) ;
#45 = EDGE_CURVE ( 'NONE', #466, #444, #53, .T. ) ;
#46 = ADVANCED_FACE ( 'NONE', ( #208 ), #641, .F. ) ;
#47 =( NAMED_UNIT ( * ) SI_UNIT ( $, .STERADIAN. ) SOLID_ANGLE_UNIT ( ) );
#48 = VERTEX_POINT ( 'NONE', #337 ) ;
#49 = CYLINDRICAL_SURFACE ( 'NONE', #334, 2.000000000000001776 ) ;
#50 = EDGE_LOOP ( 'NONE', ( #533, #331, #291, #623 ) ) ;
#51 = LINE ( 'NONE', #183, #540 ) ;
#52 = EDGE_LOOP ( 'NONE', ( #687, #793 ) ) ;
#53 = CIRCLE ( 'NONE', #16, 5.000000000000000000 ) ;
#54 = AXIS2_PLACEMENT_3D ( 'NONE', #225, #232, #505 ) ;
#55 = DIRECTION ( 'NONE',  ( -0.000000000000000000, -0.000000000000000000, -1.000000000000000000 ) ) ;
#56 = VECTOR ( 'NONE', #400, 1000.000000000000000 ) ;
#57 = DIRECTION ( 'NONE',  ( -1.000000000000000000, 0.000000000000000000, 0.000000000000000000 ) ) ;
#58 = EDGE_LOOP ( 'NONE', ( #776, #514, #679, #362 ) ) ;
#59 = ORIENTED_EDGE ( 'NONE', *, *, #552, .T. ) ;
#60 = CARTESIAN_POINT ( 'NONE',  ( -100.0000000000000000, 0.000000000000000000, 0.4999999999999995559 ) ) ;
#61 = EDGE_CURVE ( 'NONE', #48, #417, #698, .T. ) ;
#62 = ADVANCED_FACE ( 'NONE', ( #465 ), #775, .T. ) ;
#63 = DIRECTION ( 'NONE',  ( 1.000000000000000000, 0.000000000000000000, 0.000000000000000000 ) ) ;
#64 = ORIENTED_EDGE ( 'NONE', *, *, #768, .T. ) ;
#65 = DIRECTION ( 'NONE',  ( 0.000000000000000000, 0.000000000000000000, 1.000000000000000000 ) ) ;
#66 = FACE_OUTER_BOUND ( 'NONE', #36, .T. ) ;
#67 = DIRECTION ( 'NONE',  ( 0.000000000000000000, 0.000000000000000000, 1.000000000000000000 ) ) ;
#68 = ADVANCED_FACE ( 'NONE', ( #66 ), #649, .T. ) ;
#69 = AXIS2_PLACEMENT_3D ( 'NONE', #366, #678, #57 ) ;
#70 = CIRCLE ( 'NONE', #136, 5.000000000000000000 ) ;
#71 = ORIENTED_EDGE ( 'NONE', *, *, #256, .F. ) ;
#72 = ORIENTED_EDGE ( 'NONE', *, *, #268, .T. ) ;
#73 = PLANE ( 'NONE',  #34 ) ;
#74 = DIRECTION ( 'NONE',  ( -1.000000000000000000, 0.000000000000000000, 0.000000000000000000 ) ) ;
#75 = ORIENTED_EDGE ( 'NONE', *, *, #491, .T. ) ;
#76 = ORIENTED_EDGE ( 'NONE', *, *, #654, .T. ) ;
#77 = CARTESIAN_POINT ( 'NONE',  ( -80.00000000000000000, 20.00000000000000000, 5.500000000000000000 ) ) ;
#78 = FACE_BOUND ( 'NONE', #683, .T. ) ;
#79 = CARTESIAN_POINT ( 'NONE',  ( -80.00000000000000000, 25.00000000000000000, 0.000000000000000000 ) ) ;
#80 = ORIENTED_EDGE ( 'NONE', *, *, #701, .T. ) ;
#81 = DIRECTION ( 'NONE',  ( -1.000000000000000000, -7.304098846218135653E-17, 0.000000000000000000 ) ) ;
#82 = AXIS2_PLACEMENT_3D ( 'NONE', #409, #487, #26 ) ;
#83 = CIRCLE ( 'NONE', #734, 5.000000000000000000 ) ;
#84 = FACE_OUTER_BOUND ( 'NONE', #10, .T. ) ;
#85 = ORIENTED_EDGE ( 'NONE', *, *, #356, .F. ) ;
#86 = ADVANCED_FACE ( 'NONE', ( #20 ), #24, .T. ) ;
#87 = CARTESIAN_POINT ( 'NONE',  ( 75.00000000000000000, 14.99999999999999289, 5.500000000000000000 ) ) ;
#88 = VERTEX_POINT ( 'NONE', #13 ) ;
#89 = APPLICATION_PROTOCOL_DEFINITION ( 'draft international standard', 'automotive_design', 1998, #451 ) ;
#90 = CARTESIAN_POINT ( 'NONE',  ( -80.00000000000000000, -25.00000000000000000, 0.000000000000000000 ) ) ;
#91 = EDGE_LOOP ( 'NONE', ( #812, #788 ) ) ;
#92 = ADVANCED_FACE ( 'NONE', ( #205 ), #603, .F. ) ;
#93 = DIRECTION ( 'NONE',  ( -1.000000000000000000, 0.000000000000000000, 0.000000000000000000 ) ) ;
#94 = CIRCLE ( 'NONE', #690, 2.000000000000001776 ) ;
#95 = EDGE_CURVE ( 'NONE', #627, #563, #393, .T. ) ;
#96 = AXIS2_PLACEMENT_3D ( 'NONE', #471, #551, #790 ) ;
#97 = ORIENTED_EDGE ( 'NONE', *, *, #684, .F. ) ;
#98 = DIRECTION ( 'NONE',  ( 1.000000000000000000, 0.000000000000000000, 0.000000000000000000 ) ) ;
#99 = DIRECTION ( 'NONE',  ( -1.000000000000000000, 0.000000000000000000, 0.000000000000000000 ) ) ;
#100 = ORIENTED_EDGE ( 'NONE', *, *, #535, .T. ) ;
#101 = DIRECTION ( 'NONE',  ( 1.000000000000000000, 7.304098846218134421E-17, 0.000000000000000000 ) ) ;
#102 = CARTESIAN_POINT ( 'NONE',  ( -80.00000000000000000, 0.000000000000000000, 0.4999999999999995559 ) ) ;
#103 = EDGE_CURVE ( 'NONE', #121, #48, #264, .T. ) ;
#104 = ORIENTED_EDGE ( 'NONE', *, *, #491, .F. ) ;
#105 = FACE_BOUND ( 'NONE', #359, .T. ) ;
#106 = ORIENTED_EDGE ( 'NONE', *, *, #442, .F. ) ;
#107 = AXIS2_PLACEMENT_3D ( 'NONE', #752, #63, #809 ) ;
#108 = AXIS2_PLACEMENT_3D ( 'NONE', #655, #210, #201 ) ;
#109 = DIRECTION ( 'NONE',  ( -1.000000000000000000, 0.000000000000000000, 0.000000000000000000 ) ) ;
#110 = ORIENTED_EDGE ( 'NONE', *, *, #378, .F. ) ;
#111 = DIRECTION ( 'NONE',  ( 1.000000000000000000, 0.000000000000000000, 0.000000000000000000 ) ) ;
#112 = ORIENTED_EDGE ( 'NONE', *, *, #434, .T. ) ;
#113 = LINE ( 'NONE', #635, #189 ) ;
#114 = CARTESIAN_POINT ( 'NONE',  ( 75.00000000000000000, 14.99999999999999289, 5.500000000000000000 ) ) ;
#115 = EDGE_LOOP ( 'NONE', ( #738, #218, #667, #311 ) ) ;
#116 = EDGE_CURVE ( 'NONE', #590, #48, #267, .T. ) ;
#117 = CIRCLE ( 'NONE', #333, 2.000000000000001776 ) ;
#118 = AXIS2_PLACEMENT_3D ( 'NONE', #324, #123, #702 ) ;
#119 = DIRECTION ( 'NONE',  ( 1.000000000000000000, 0.000000000000000000, 0.000000000000000000 ) ) ;
#120 = CIRCLE ( 'NONE', #599, 25.00000000000000711 ) ;
#121 = VERTEX_POINT ( 'NONE', #714 ) ;
#122 = CARTESIAN_POINT ( 'NONE',  ( -75.00000000000000000, -15.00000000000000711, 5.500000000000000000 ) ) ;
#123 = DIRECTION ( 'NONE',  ( -0.000000000000000000, 0.000000000000000000, -1.000000000000000000 ) ) ;
#124 = EDGE_CURVE ( 'NONE', #444, #747, #120, .T. ) ;
#125 = DIRECTION ( 'NONE',  ( -1.000000000000000000, 0.000000000000000000, 0.000000000000000000 ) ) ;
#126 = EDGE_CURVE ( 'NONE', #164, #749, #804, .T. ) ;
#127 = CYLINDRICAL_SURFACE ( 'NONE', #513, 14.49999999999999822 ) ;
#128 = DIRECTION ( 'NONE',  ( -1.000000000000000000, 0.000000000000000000, 0.000000000000000000 ) ) ;
#129 = CARTESIAN_POINT ( 'NONE',  ( 80.00000000000000000, -24.99999999999998579, 5.500000000000000000 ) ) ;
#130 = ORIENTED_EDGE ( 'NONE', *, *, #782, .T. ) ;
#131 = CARTESIAN_POINT ( 'NONE',  ( -80.00000000000000000, -20.00000000000000000, 5.500000000000000000 ) ) ;
#132 = ORIENTED_EDGE ( 'NONE', *, *, #234, .T. ) ;
#133 = DIRECTION ( 'NONE',  ( 1.000000000000000000, 0.000000000000000000, -0.000000000000000000 ) ) ;
#134 = VECTOR ( 'NONE', #522, 1000.000000000000000 ) ;
#135 = LINE ( 'NONE', #129, #801 ) ;
#136 = AXIS2_PLACEMENT_3D ( 'NONE', #60, #572, #377 ) ;
#137 = ORIENTED_EDGE ( 'NONE', *, *, #61, .T. ) ;
#138 = VERTEX_POINT ( 'NONE', #468 ) ;
#139 = CARTESIAN_POINT ( 'NONE',  ( 75.00000000000000000, -15.00000000000000711, 0.000000000000000000 ) ) ;
#140 = DIRECTION ( 'NONE',  ( 1.000000000000000000, 0.000000000000000000, 0.000000000000000000 ) ) ;
#141 = VERTEX_POINT ( 'NONE', #674 ) ;
#142 = DIRECTION ( 'NONE',  ( -8.673617379884035472E-17, 1.000000000000000000, 0.000000000000000000 ) ) ;
#143 = PRODUCT ( '1. Head Front', '1. Head Front', '', ( #29 ) ) ;
#144 = DIRECTION ( 'NONE',  ( 0.000000000000000000, -1.000000000000000000, 0.000000000000000000 ) ) ;
#145 = ORIENTED_EDGE ( 'NONE', *, *, #45, .T. ) ;
#146 = ADVANCED_FACE ( 'NONE', ( #538 ), #795, .F. ) ;
#147 = DIRECTION ( 'NONE',  ( -1.000000000000000000, 8.673617379884035472E-17, 0.000000000000000000 ) ) ;
#148 = EDGE_CURVE ( 'NONE', #548, #248, #594, .T. ) ;
#149 = AXIS2_PLACEMENT_3D ( 'NONE', #294, #35, #665 ) ;
#150 = AXIS2_PLACEMENT_3D ( 'NONE', #608, #817, #558 ) ;
#151 = CIRCLE ( 'NONE', #429, 5.000000000000000000 ) ;
#152 = CARTESIAN_POINT ( 'NONE',  ( 47.50000000000000711, 0.000000000000000000, 5.500000000000000000 ) ) ;
#153 = VERTEX_POINT ( 'NONE', #476 ) ;
#154 = DIRECTION ( 'NONE',  ( -0.000000000000000000, -0.000000000000000000, -1.000000000000000000 ) ) ;
#155 = EDGE_LOOP ( 'NONE', ( #326, #307, #365, #76 ) ) ;
#156 = DIRECTION ( 'NONE',  ( -0.000000000000000000, -0.000000000000000000, -1.000000000000000000 ) ) ;
#157 = CARTESIAN_POINT ( 'NONE',  ( -47.50000000000000711, 14.49999999999999822, 5.500000000000000000 ) ) ;
#158 = ORIENTED_EDGE ( 'NONE', *, *, #340, .T. ) ;
#159 = FACE_OUTER_BOUND ( 'NONE', #245, .T. ) ;
#160 = AXIS2_PLACEMENT_3D ( 'NONE', #270, #450, #317 ) ;
#161 = CARTESIAN_POINT ( 'NONE',  ( -75.00000000000000000, 14.99999999999999289, 0.000000000000000000 ) ) ;
#162 = AXIS2_PLACEMENT_3D ( 'NONE', #511, #516, #447 ) ;
#163 = AXIS2_PLACEMENT_3D ( 'NONE', #293, #554, #490 ) ;
#164 = VERTEX_POINT ( 'NONE', #806 ) ;
#165 = EDGE_CURVE ( 'NONE', #544, #248, #167, .T. ) ;
#166 = CARTESIAN_POINT ( 'NONE',  ( 75.00000000000000000, -15.00000000000000711, 5.500000000000000000 ) ) ;
#167 = LINE ( 'NONE', #222, #564 ) ;
#168 = ORIENTED_EDGE ( 'NONE', *, *, #251, .T. ) ;
#169 = DIRECTION ( 'NONE',  ( -1.000000000000000000, 0.000000000000000000, 0.000000000000000000 ) ) ;
#170 = SURFACE_STYLE_USAGE ( .BOTH. , #811 ) ;
#171 = ORIENTED_EDGE ( 'NONE', *, *, #576, .T. ) ;
#172 = ADVANCED_BREP_SHAPE_REPRESENTATION ( '1. Head Front', ( #382, #96 ), #803 ) ;
#173 = CARTESIAN_POINT ( 'NONE',  ( -47.50000000000000711, 0.000000000000000000, 0.000000000000000000 ) ) ;
#174 = ORIENTED_EDGE ( 'NONE', *, *, #782, .F. ) ;
#175 = PRESENTATION_LAYER_ASSIGNMENT (  '', '', ( #657 ) ) ;
#176 = CIRCLE ( 'NONE', #485, 25.00000000000000711 ) ;
#177 = DIRECTION ( 'NONE',  ( -0.000000000000000000, 0.000000000000000000, -1.000000000000000000 ) ) ;
#178 = ORIENTED_EDGE ( 'NONE', *, *, #292, .T. ) ;
#179 = ADVANCED_FACE ( 'NONE', ( #219 ), #290, .F. ) ;
#180 = CARTESIAN_POINT ( 'NONE',  ( -62.00000000000000711, 0.000000000000000000, 5.500000000000000000 ) ) ;
#181 = ORIENTED_EDGE ( 'NONE', *, *, #165, .T. ) ;
#182 = DIRECTION ( 'NONE',  ( -0.000000000000000000, -0.000000000000000000, -1.000000000000000000 ) ) ;
#183 = CARTESIAN_POINT ( 'NONE',  ( -80.00000000000000000, 25.00000000000000000, 0.4999999999999995559 ) ) ;
#184 = ORIENTED_EDGE ( 'NONE', *, *, #662, .F. ) ;
#185 = TOROIDAL_SURFACE ( 'NONE', #401, 20.00000000000000000, 5.000000000000000000 ) ;
#186 = ORIENTED_EDGE ( 'NONE', *, *, #256, .T. ) ;
#187 = VECTOR ( 'NONE', #529, 1000.000000000000000 ) ;
#188 = LINE ( 'NONE', #670, #583 ) ;
#189 = VECTOR ( 'NONE', #101, 1000.000000000000000 ) ;
#190 = EDGE_CURVE ( 'NONE', #631, #563, #202, .T. ) ;
#191 = CARTESIAN_POINT ( 'NONE',  ( 80.00000000000000000, 19.99999999999998579, 5.500000000000000000 ) ) ;
#192 = EDGE_CURVE ( 'NONE', #520, #436, #660, .T. ) ;
#193 = ORIENTED_EDGE ( 'NONE', *, *, #425, .T. ) ;
#194 = DIRECTION ( 'NONE',  ( -1.000000000000000000, -8.673617379884035472E-17, 0.000000000000000000 ) ) ;
#195 = DIRECTION ( 'NONE',  ( -1.000000000000000000, 8.673617379884035472E-17, 0.000000000000000000 ) ) ;
#196 = ORIENTED_EDGE ( 'NONE', *, *, #234, .F. ) ;
#197 = CARTESIAN_POINT ( 'NONE',  ( -80.00000000000000000, 25.00000000000000000, 0.4999999999999995559 ) ) ;
#198 = FACE_BOUND ( 'NONE', #732, .T. ) ;
#199 = CARTESIAN_POINT ( 'NONE',  ( 75.00000000000000000, -15.00000000000000711, 5.500000000000000000 ) ) ;
#200 = VERTEX_POINT ( 'NONE', #90 ) ;
#201 = DIRECTION ( 'NONE',  ( 1.000000000000000000, 0.000000000000000000, 0.000000000000000000 ) ) ;
#202 = CIRCLE ( 'NONE', #666, 14.49999999999999289 ) ;
#203 = VECTOR ( 'NONE', #17, 1000.000000000000000 ) ;
#204 = AXIS2_PLACEMENT_3D ( 'NONE', #805, #374, #616 ) ;
#205 = FACE_OUTER_BOUND ( 'NONE', #408, .T. ) ;
#206 = CARTESIAN_POINT ( 'NONE',  ( -62.00000000000000711, 0.000000000000000000, 5.500000000000000000 ) ) ;
#207 = ORIENTED_EDGE ( 'NONE', *, *, #103, .T. ) ;
#208 = FACE_OUTER_BOUND ( 'NONE', #350, .T. ) ;
#209 = EDGE_LOOP ( 'NONE', ( #685, #729, #367, #452 ) ) ;
#210 = DIRECTION ( 'NONE',  ( 0.000000000000000000, 0.000000000000000000, 1.000000000000000000 ) ) ;
#211 = ORIENTED_EDGE ( 'NONE', *, *, #148, .F. ) ;
#212 = VERTEX_POINT ( 'NONE', #606 ) ;
#213 = VECTOR ( 'NONE', #384, 1000.000000000000000 ) ;
#214 = VECTOR ( 'NONE', #754, 1000.000000000000000 ) ;
#215 = AXIS2_PLACEMENT_3D ( 'NONE', #122, #41, #38 ) ;
#216 = CARTESIAN_POINT ( 'NONE',  ( -75.00000000000000000, -15.00000000000000711, 5.500000000000000000 ) ) ;
#217 = EDGE_CURVE ( 'NONE', #138, #753, #117, .T. ) ;
#218 = ORIENTED_EDGE ( 'NONE', *, *, #783, .T. ) ;
#219 = FACE_OUTER_BOUND ( 'NONE', #50, .T. ) ;
#220 = ORIENTED_EDGE ( 'NONE', *, *, #126, .T. ) ;
#221 = LINE ( 'NONE', #479, #456 ) ;
#222 = CARTESIAN_POINT ( 'NONE',  ( -77.00000000000000000, 14.99999999999999289, 5.500000000000000000 ) ) ;
#223 = VERTEX_POINT ( 'NONE', #283 ) ;
#224 = DIRECTION ( 'NONE',  ( -1.000000000000000000, 7.304098846218134421E-17, -0.000000000000000000 ) ) ;
#225 = CARTESIAN_POINT ( 'NONE',  ( 75.00000000000000000, 14.99999999999999289, 5.500000000000000000 ) ) ;
#226 = TOROIDAL_SURFACE ( 'NONE', #336, 20.00000000000000000, 5.000000000000000000 ) ;
#227 = DIRECTION ( 'NONE',  ( -0.000000000000000000, -0.000000000000000000, -1.000000000000000000 ) ) ;
#228 = CIRCLE ( 'NONE', #483, 2.000000000000001776 ) ;
#229 = AXIS2_PLACEMENT_3D ( 'NONE', #323, #67, #534 ) ;
#230 = ORIENTED_EDGE ( 'NONE', *, *, #761, .F. ) ;
#231 = AXIS2_PLACEMENT_3D ( 'NONE', #199, #461, #140 ) ;
#232 = DIRECTION ( 'NONE',  ( -0.000000000000000000, -0.000000000000000000, -1.000000000000000000 ) ) ;
#233 = LINE ( 'NONE', #180, #473 ) ;
#234 = EDGE_CURVE ( 'NONE', #716, #212, #439, .T. ) ;
#235 = ORIENTED_EDGE ( 'NONE', *, *, #95, .T. ) ;
#236 = EDGE_LOOP ( 'NONE', ( #171, #75, #261, #40 ) ) ;
#237 = FACE_BOUND ( 'NONE', #819, .T. ) ;
#238 = ADVANCED_FACE ( 'NONE', ( #617 ), #792, .F. ) ;
#239 = CIRCLE ( 'NONE', #610, 2.000000000000001776 ) ;
#240 = ORIENTED_EDGE ( 'NONE', *, *, #340, .F. ) ;
#241 = AXIS2_PLACEMENT_3D ( 'NONE', #166, #794, #484 ) ;
#242 = CIRCLE ( 'NONE', #320, 2.000000000000001776 ) ;
#243 = ADVANCED_FACE ( 'NONE', ( #728 ), #185, .T. ) ;
#244 = DIRECTION ( 'NONE',  ( 1.000000000000000000, 0.000000000000000000, 0.000000000000000000 ) ) ;
#245 = EDGE_LOOP ( 'NONE', ( #145, #106, #807, #810 ) ) ;
#246 = CARTESIAN_POINT ( 'NONE',  ( -47.50000000000000711, -14.49999999999999822, 5.500000000000000000 ) ) ;
#247 = DIRECTION ( 'NONE',  ( -1.000000000000000000, 0.000000000000000000, 0.000000000000000000 ) ) ;
#248 = VERTEX_POINT ( 'NONE', #358 ) ;
#249 = VERTEX_POINT ( 'NONE', #622 ) ;
#250 = FACE_OUTER_BOUND ( 'NONE', #385, .T. ) ;
#251 = EDGE_CURVE ( 'NONE', #426, #141, #512, .T. ) ;
#252 = ORIENTED_EDGE ( 'NONE', *, *, #327, .F. ) ;
#253 = AXIS2_PLACEMENT_3D ( 'NONE', #257, #779, #519 ) ;
#254 = LINE ( 'NONE', #379, #203 ) ;
#255 = DIRECTION ( 'NONE',  ( -0.000000000000000000, -0.000000000000000000, -1.000000000000000000 ) ) ;
#256 = EDGE_CURVE ( 'NONE', #753, #404, #42, .T. ) ;
#257 = CARTESIAN_POINT ( 'NONE',  ( -47.50000000000000711, 0.000000000000000000, 5.500000000000000000 ) ) ;
#258 = ORIENTED_EDGE ( 'NONE', *, *, #739, .T. ) ;
#259 = FACE_OUTER_BOUND ( 'NONE', #155, .T. ) ;
#260 = CARTESIAN_POINT ( 'NONE',  ( -75.00000000000000000, -15.00000000000000711, 5.500000000000000000 ) ) ;
#261 = ORIENTED_EDGE ( 'NONE', *, *, #446, .F. ) ;
#262 = LINE ( 'NONE', #77, #402 ) ;
#263 = LINE ( 'NONE', #269, #668 ) ;
#264 = LINE ( 'NONE', #8, #134 ) ;
#265 = ORIENTED_EDGE ( 'NONE', *, *, #797, .T. ) ;
#266 = DIRECTION ( 'NONE',  ( 0.000000000000000000, 0.000000000000000000, 1.000000000000000000 ) ) ;
#267 = CIRCLE ( 'NONE', #486, 24.99999999999998224 ) ;
#268 = EDGE_CURVE ( 'NONE', #249, #627, #723, .T. ) ;
#269 = CARTESIAN_POINT ( 'NONE',  ( 47.50000000000000711, -14.49999999999999289, 5.500000000000000000 ) ) ;
#270 = CARTESIAN_POINT ( 'NONE',  ( 80.00000000000000000, 0.000000000000000000, 5.500000000000000000 ) ) ;
#271 = FACE_OUTER_BOUND ( 'NONE', #209, .T. ) ;
#272 = ORIENTED_EDGE ( 'NONE', *, *, #684, .T. ) ;
#273 = CARTESIAN_POINT ( 'NONE',  ( 73.00000000000000000, -15.00000000000000711, 5.500000000000000000 ) ) ;
#274 = CARTESIAN_POINT ( 'NONE',  ( -77.00000000000000000, 14.99999999999999289, 5.500000000000000000 ) ) ;
#275 = FACE_OUTER_BOUND ( 'NONE', #771, .T. ) ;
#276 = ORIENTED_EDGE ( 'NONE', *, *, #821, .F. ) ;
#277 = EDGE_CURVE ( 'NONE', #121, #153, #440, .T. ) ;
#278 = EDGE_CURVE ( 'NONE', #466, #314, #663, .T. ) ;
#279 = DIRECTION ( 'NONE',  ( -0.000000000000000000, -0.000000000000000000, -1.000000000000000000 ) ) ;
#280 = ORIENTED_EDGE ( 'NONE', *, *, #363, .T. ) ;
#281 =( GEOMETRIC_REPRESENTATION_CONTEXT ( 3 ) GLOBAL_UNCERTAINTY_ASSIGNED_CONTEXT ( ( #600 ) ) GLOBAL_UNIT_ASSIGNED_CONTEXT ( ( #375, #304, #47 ) ) REPRESENTATION_CONTEXT ( 'NONE', 'WORKASPACE' ) );
#282 = CIRCLE ( 'NONE', #745, 14.49999999999999822 ) ;
#283 = CARTESIAN_POINT ( 'NONE',  ( 77.00000000000000000, -15.00000000000000711, 0.000000000000000000 ) ) ;
#284 = ORIENTED_EDGE ( 'NONE', *, *, #691, .F. ) ;
#285 = DIRECTION ( 'NONE',  ( -1.000000000000000000, 0.000000000000000000, 0.000000000000000000 ) ) ;
#286 = DIRECTION ( 'NONE',  ( 0.000000000000000000, 0.000000000000000000, 1.000000000000000000 ) ) ;
#287 = VERTEX_POINT ( 'NONE', #547 ) ;
#288 = CARTESIAN_POINT ( 'NONE',  ( -47.50000000000000711, 14.49999999999999822, 0.000000000000000000 ) ) ;
#289 = CYLINDRICAL_SURFACE ( 'NONE', #204, 5.000000000000000888 ) ;
#290 = CYLINDRICAL_SURFACE ( 'NONE', #482, 14.49999999999999822 ) ;
#291 = ORIENTED_EDGE ( 'NONE', *, *, #662, .T. ) ;
#292 = EDGE_CURVE ( 'NONE', #212, #466, #565, .T. ) ;
#293 = CARTESIAN_POINT ( 'NONE',  ( -75.00000000000000000, -15.00000000000000711, 5.500000000000000000 ) ) ;
#294 = CARTESIAN_POINT ( 'NONE',  ( -75.00000000000000000, -15.00000000000000711, 0.000000000000000000 ) ) ;
#295 = AXIS2_PLACEMENT_3D ( 'NONE', #114, #570, #247 ) ;
#296 = PRODUCT_DEFINITION ( 'UNKNOWN', '', #2, #7 ) ;
#297 = ORIENTED_EDGE ( 'NONE', *, *, #268, .F. ) ;
#298 = CYLINDRICAL_SURFACE ( 'NONE', #32, 25.00000000000000711 ) ;
#299 = PLANE ( 'NONE',  #428 ) ;
#300 = EDGE_LOOP ( 'NONE', ( #265, #391, #280, #481 ) ) ;
#301 = CYLINDRICAL_SURFACE ( 'NONE', #69, 2.000000000000001776 ) ;
#302 = ORIENTED_EDGE ( 'NONE', *, *, #636, .T. ) ;
#303 = DIRECTION ( 'NONE',  ( 0.000000000000000000, 0.000000000000000000, 1.000000000000000000 ) ) ;
#304 =( NAMED_UNIT ( * ) PLANE_ANGLE_UNIT ( ) SI_UNIT ( $, .RADIAN. ) );
#305 = AXIS2_PLACEMENT_3D ( 'NONE', #349, #671, #99 ) ;
#306 = CIRCLE ( 'NONE', #253, 14.49999999999999822 ) ;
#307 = ORIENTED_EDGE ( 'NONE', *, *, #442, .T. ) ;
#308 = CARTESIAN_POINT ( 'NONE',  ( 47.50000000000000000, 14.49999999999999289, 5.500000000000000000 ) ) ;
#309 = DIRECTION ( 'NONE',  ( 0.000000000000000000, 0.000000000000000000, 1.000000000000000000 ) ) ;
#310 = EDGE_CURVE ( 'NONE', #475, #342, #233, .T. ) ;
#311 = ORIENTED_EDGE ( 'NONE', *, *, #713, .T. ) ;
#312 = CARTESIAN_POINT ( 'NONE',  ( 80.00000000000000000, -24.99999999999998579, 0.000000000000000000 ) ) ;
#313 = DIRECTION ( 'NONE',  ( 0.000000000000000000, 0.000000000000000000, 1.000000000000000000 ) ) ;
#314 = VERTEX_POINT ( 'NONE', #507 ) ;
#315 = DIRECTION ( 'NONE',  ( -1.000000000000000000, 0.000000000000000000, 0.000000000000000000 ) ) ;
#316 = FACE_BOUND ( 'NONE', #52, .T. ) ;
#317 = DIRECTION ( 'NONE',  ( -1.000000000000000000, 0.000000000000000000, 0.000000000000000000 ) ) ;
#318 = VECTOR ( 'NONE', #156, 1000.000000000000000 ) ;
#319 = FACE_OUTER_BOUND ( 'NONE', #457, .T. ) ;
#320 = AXIS2_PLACEMENT_3D ( 'NONE', #750, #621, #696 ) ;
#321 = DIRECTION ( 'NONE',  ( -0.000000000000000000, -0.000000000000000000, -1.000000000000000000 ) ) ;
#322 = ORIENTED_EDGE ( 'NONE', *, *, #701, .F. ) ;
#323 = CARTESIAN_POINT ( 'NONE',  ( -80.00000000000000000, 0.000000000000000000, 0.000000000000000000 ) ) ;
#324 = CARTESIAN_POINT ( 'NONE',  ( -80.00000000000000000, 0.000000000000000000, 5.500000000000000000 ) ) ;
#325 = CARTESIAN_POINT ( 'NONE',  ( -47.50000000000000711, 14.49999999999999822, 5.500000000000000000 ) ) ;
#326 = ORIENTED_EDGE ( 'NONE', *, *, #427, .F. ) ;
#327 = EDGE_CURVE ( 'NONE', #619, #544, #228, .T. ) ;
#328 = CARTESIAN_POINT ( 'NONE',  ( -77.00000000000000000, -15.00000000000000711, 5.500000000000000000 ) ) ;
#329 = CARTESIAN_POINT ( 'NONE',  ( -80.00000000000000000, -25.00000000000000000, 0.4999999999999995559 ) ) ;
#330 = CARTESIAN_POINT ( 'NONE',  ( 75.00000000000000000, 14.99999999999999289, 5.500000000000000000 ) ) ;
#331 = ORIENTED_EDGE ( 'NONE', *, *, #691, .T. ) ;
#332 = CYLINDRICAL_SURFACE ( 'NONE', #759, 2.000000000000001776 ) ;
#333 = AXIS2_PLACEMENT_3D ( 'NONE', #87, #353, #420 ) ;
#334 = AXIS2_PLACEMENT_3D ( 'NONE', #431, #748, #74 ) ;
#335 = TOROIDAL_SURFACE ( 'NONE', #347, 19.99999999999998579, 5.000000000000000000 ) ;
#336 = AXIS2_PLACEMENT_3D ( 'NONE', #582, #703, #784 ) ;
#337 = CARTESIAN_POINT ( 'NONE',  ( 80.00000000000000000, 24.99999999999998579, 0.000000000000000000 ) ) ;
#338 = ADVANCED_FACE ( 'NONE', ( #494 ), #301, .F. ) ;
#339 = ORIENTED_EDGE ( 'NONE', *, *, #148, .T. ) ;
#340 = EDGE_CURVE ( 'NONE', #753, #138, #733, .T. ) ;
#341 = CARTESIAN_POINT ( 'NONE',  ( -47.50000000000000711, 0.000000000000000000, 5.500000000000000000 ) ) ;
#342 = VERTEX_POINT ( 'NONE', #562 ) ;
#343 = CARTESIAN_POINT ( 'NONE',  ( -105.0000000000000142, 0.000000000000000000, 5.500000000000000000 ) ) ;
#344 = DIRECTION ( 'NONE',  ( 1.000000000000000000, 8.673617379884035472E-17, 0.000000000000000000 ) ) ;
#345 = EDGE_LOOP ( 'NONE', ( #258, #658 ) ) ;
#346 = CIRCLE ( 'NONE', #813, 2.000000000000001776 ) ;
#347 = AXIS2_PLACEMENT_3D ( 'NONE', #463, #659, #128 ) ;
#348 = CIRCLE ( 'NONE', #163, 2.000000000000001776 ) ;
#349 = CARTESIAN_POINT ( 'NONE',  ( 47.50000000000000711, 0.000000000000000000, 5.500000000000000000 ) ) ;
#350 = EDGE_LOOP ( 'NONE', ( #785, #5, #85, #230 ) ) ;
#351 = LINE ( 'NONE', #343, #318 ) ;
#352 = CARTESIAN_POINT ( 'NONE',  ( -80.00000000000000000, 0.000000000000000000, 0.000000000000000000 ) ) ;
#353 = DIRECTION ( 'NONE',  ( 0.000000000000000000, 0.000000000000000000, 1.000000000000000000 ) ) ;
#354 = ORIENTED_EDGE ( 'NONE', *, *, #654, .F. ) ;
#355 = APPLICATION_PROTOCOL_DEFINITION ( 'draft international standard', 'automotive_design', 1998, #496 ) ;
#356 = EDGE_CURVE ( 'NONE', #141, #426, #94, .T. ) ;
#357 = CARTESIAN_POINT ( 'NONE',  ( 75.00000000000000000, -15.00000000000000711, 5.500000000000000000 ) ) ;
#358 = CARTESIAN_POINT ( 'NONE',  ( -77.00000000000000000, 14.99999999999999289, 0.000000000000000000 ) ) ;
#359 = EDGE_LOOP ( 'NONE', ( #605, #168 ) ) ;
#360 = FACE_BOUND ( 'NONE', #91, .T. ) ;
#361 = AXIS2_PLACEMENT_3D ( 'NONE', #357, #55, #423 ) ;
#362 = ORIENTED_EDGE ( 'NONE', *, *, #45, .F. ) ;
#363 = EDGE_CURVE ( 'NONE', #121, #462, #18, .T. ) ;
#364 = CARTESIAN_POINT ( 'NONE',  ( 77.00000000000000000, 14.99999999999999289, 0.000000000000000000 ) ) ;
#365 = ORIENTED_EDGE ( 'NONE', *, *, #824, .T. ) ;
#366 = CARTESIAN_POINT ( 'NONE',  ( 75.00000000000000000, -15.00000000000000711, 5.500000000000000000 ) ) ;
#367 = ORIENTED_EDGE ( 'NONE', *, *, #542, .F. ) ;
#368 = DIRECTION ( 'NONE',  ( -0.000000000000000000, -0.000000000000000000, -1.000000000000000000 ) ) ;
#369 = CARTESIAN_POINT ( 'NONE',  ( -73.00000000000000000, -15.00000000000000711, 5.500000000000000000 ) ) ;
#370 = AXIS2_PLACEMENT_3D ( 'NONE', #325, #764, #398 ) ;
#371 = AXIS2_PLACEMENT_3D ( 'NONE', #152, #286, #93 ) ;
#372 = ORIENTED_EDGE ( 'NONE', *, *, #427, .T. ) ;
#373 = VERTEX_POINT ( 'NONE', #369 ) ;
#374 = DIRECTION ( 'NONE',  ( 1.000000000000000000, 8.673617379884035472E-17, 0.000000000000000000 ) ) ;
#375 =( LENGTH_UNIT ( ) NAMED_UNIT ( * ) SI_UNIT ( .MILLI., .METRE. ) );
#376 = ORIENTED_EDGE ( 'NONE', *, *, #739, .F. ) ;
#377 = DIRECTION ( 'NONE',  ( 0.000000000000000000, 0.000000000000000000, -1.000000000000000000 ) ) ;
#378 = EDGE_CURVE ( 'NONE', #760, #121, #51, .T. ) ;
#379 = CARTESIAN_POINT ( 'NONE',  ( -47.50000000000000711, -14.49999999999999822, 5.500000000000000000 ) ) ;
#380 = DIRECTION ( 'NONE',  ( 0.000000000000000000, 0.000000000000000000, 1.000000000000000000 ) ) ;
#381 = DIRECTION ( 'NONE',  ( 1.000000000000000000, 0.000000000000000000, 0.000000000000000000 ) ) ;
#382 = MANIFOLD_SOLID_BREP ( 'Fillet1', #472 ) ;
#383 = CARTESIAN_POINT ( 'NONE',  ( -80.00000000000000000, 25.00000000000000000, 5.500000000000000000 ) ) ;
#384 = DIRECTION ( 'NONE',  ( -1.000000000000000000, 8.673617379884035472E-17, -0.000000000000000000 ) ) ;
#385 = EDGE_LOOP ( 'NONE', ( #33, #186, #609, #710 ) ) ;
#386 = VECTOR ( 'NONE', #422, 1000.000000000000000 ) ;
#387 = DIRECTION ( 'NONE',  ( -1.000000000000000000, 0.000000000000000000, 0.000000000000000000 ) ) ;
#388 = EDGE_CURVE ( 'NONE', #404, #557, #239, .T. ) ;
#389 = AXIS2_PLACEMENT_3D ( 'NONE', #772, #648, #81 ) ;
#390 = CARTESIAN_POINT ( 'NONE',  ( -80.00000000000000000, -20.00000000000000000, 0.4999999999999995559 ) ) ;
#391 = ORIENTED_EDGE ( 'NONE', *, *, #277, .F. ) ;
#392 = DIRECTION ( 'NONE',  ( -0.000000000000000000, -0.000000000000000000, -1.000000000000000000 ) ) ;
#393 = LINE ( 'NONE', #645, #689 ) ;
#394 = DIRECTION ( 'NONE',  ( -0.000000000000000000, -0.000000000000000000, -1.000000000000000000 ) ) ;
#395 = ORIENTED_EDGE ( 'NONE', *, *, #116, .F. ) ;
#396 = CARTESIAN_POINT ( 'NONE',  ( 73.00000000000000000, -15.00000000000000711, 5.500000000000000000 ) ) ;
#397 = ADVANCED_FACE ( 'NONE', ( #424, #237, #746, #626, #105, #360 ), #299, .T. ) ;
#398 = DIRECTION ( 'NONE',  ( 1.000000000000000000, -7.304098846218135653E-17, 0.000000000000000000 ) ) ;
#399 = ORIENTED_EDGE ( 'NONE', *, *, #95, .F. ) ;
#400 = DIRECTION ( 'NONE',  ( -0.000000000000000000, -0.000000000000000000, -1.000000000000000000 ) ) ;
#401 = AXIS2_PLACEMENT_3D ( 'NONE', #102, #154, #543 ) ;
#402 = VECTOR ( 'NONE', #147, 1000.000000000000000 ) ;
#403 = CARTESIAN_POINT ( 'NONE',  ( -80.00000000000000000, -20.00000000000000000, 5.500000000000000000 ) ) ;
#404 = VERTEX_POINT ( 'NONE', #364 ) ;
#405 =( NAMED_UNIT ( * ) SI_UNIT ( $, .STERADIAN. ) SOLID_ANGLE_UNIT ( ) );
#406 = ADVANCED_FACE ( 'NONE', ( #628 ), #49, .F. ) ;
#407 = DIRECTION ( 'NONE',  ( -0.000000000000000000, -0.000000000000000000, -1.000000000000000000 ) ) ;
#408 = EDGE_LOOP ( 'NONE', ( #71, #158, #567, #488 ) ) ;
#409 = CARTESIAN_POINT ( 'NONE',  ( -80.00000000000000000, 0.000000000000000000, 5.500000000000000000 ) ) ;
#410 = EDGE_LOOP ( 'NONE', ( #725, #43, #207, #137 ) ) ;
#411 =( NAMED_UNIT ( * ) PLANE_ANGLE_UNIT ( ) SI_UNIT ( $, .RADIAN. ) );
#412 = VECTOR ( 'NONE', #227, 1000.000000000000000 ) ;
#413 = VECTOR ( 'NONE', #224, 1000.000000000000000 ) ;
#414 = CARTESIAN_POINT ( 'NONE',  ( 47.50000000000000711, -14.49999999999999289, 0.000000000000000000 ) ) ;
#415 = CARTESIAN_POINT ( 'NONE',  ( 47.50000000000000711, 0.000000000000000000, 0.000000000000000000 ) ) ;
#416 = ADVANCED_FACE ( 'NONE', ( #640, #706, #78, #589, #316, #198 ), #767, .F. ) ;
#417 = VERTEX_POINT ( 'NONE', #12 ) ;
#418 =( LENGTH_UNIT ( ) NAMED_UNIT ( * ) SI_UNIT ( .MILLI., .METRE. ) );
#419 = DIRECTION ( 'NONE',  ( -1.000000000000000000, 7.304098846218134421E-17, -0.000000000000000000 ) ) ;
#420 = DIRECTION ( 'NONE',  ( -1.000000000000000000, 0.000000000000000000, 0.000000000000000000 ) ) ;
#421 = ORIENTED_EDGE ( 'NONE', *, *, #327, .T. ) ;
#422 = DIRECTION ( 'NONE',  ( -0.000000000000000000, -0.000000000000000000, -1.000000000000000000 ) ) ;
#423 = DIRECTION ( 'NONE',  ( -1.000000000000000000, 0.000000000000000000, 0.000000000000000000 ) ) ;
#424 = FACE_BOUND ( 'NONE', #345, .T. ) ;
#425 = EDGE_CURVE ( 'NONE', #249, #631, #263, .T. ) ;
#426 = VERTEX_POINT ( 'NONE', #526 ) ;
#427 = EDGE_CURVE ( 'NONE', #153, #590, #135, .T. ) ;
#428 = AXIS2_PLACEMENT_3D ( 'NONE', #682, #177, #109 ) ;
#429 = AXIS2_PLACEMENT_3D ( 'NONE', #705, #133, #598 ) ;
#430 = ORIENTED_EDGE ( 'NONE', *, *, #190, .F. ) ;
#431 = CARTESIAN_POINT ( 'NONE',  ( -75.00000000000000000, 14.99999999999999289, 5.500000000000000000 ) ) ;
#432 = EDGE_LOOP ( 'NONE', ( #574, #220, #130, #587 ) ) ;
#433 = LINE ( 'NONE', #546, #44 ) ;
#434 = EDGE_CURVE ( 'NONE', #571, #249, #254, .T. ) ;
#435 = CARTESIAN_POINT ( 'NONE',  ( 75.00000000000000000, 14.99999999999999289, 0.000000000000000000 ) ) ;
#436 = VERTEX_POINT ( 'NONE', #579 ) ;
#437 = LINE ( 'NONE', #673, #709 ) ;
#438 = DIRECTION ( 'NONE',  ( 1.000000000000000000, -8.673617379884035472E-17, -0.000000000000000000 ) ) ;
#439 = CIRCLE ( 'NONE', #82, 20.00000000000000355 ) ;
#440 = CIRCLE ( 'NONE', #595, 24.99999999999998579 ) ;
#441 = ORIENTED_EDGE ( 'NONE', *, *, #721, .F. ) ;
#442 = EDGE_CURVE ( 'NONE', #153, #444, #712, .T. ) ;
#443 = CIRCLE ( 'NONE', #215, 2.000000000000001776 ) ;
#444 = VERTEX_POINT ( 'NONE', #822 ) ;
#445 = DIRECTION ( 'NONE',  ( 1.000000000000000000, 8.673617379884035472E-17, 0.000000000000000000 ) ) ;
#446 = EDGE_CURVE ( 'NONE', #248, #548, #553, .T. ) ;
#447 = DIRECTION ( 'NONE',  ( 1.000000000000000000, 0.000000000000000000, 0.000000000000000000 ) ) ;
#448 = ORIENTED_EDGE ( 'NONE', *, *, #434, .F. ) ;
#449 = DIRECTION ( 'NONE',  ( -8.673617379884035472E-17, -1.000000000000000000, 0.000000000000000000 ) ) ;
#450 = DIRECTION ( 'NONE',  ( -0.000000000000000000, -0.000000000000000000, -1.000000000000000000 ) ) ;
#451 = APPLICATION_CONTEXT ( 'automotive_design' ) ;
#452 = ORIENTED_EDGE ( 'NONE', *, *, #192, .F. ) ;
#453 = CARTESIAN_POINT ( 'NONE',  ( -73.00000000000000000, -15.00000000000000711, 5.500000000000000000 ) ) ;
#454 = DIRECTION ( 'NONE',  ( -0.000000000000000000, -0.000000000000000000, -1.000000000000000000 ) ) ;
#455 = DIRECTION ( 'NONE',  ( 0.000000000000000000, 0.000000000000000000, -1.000000000000000000 ) ) ;
#456 = VECTOR ( 'NONE', #182, 1000.000000000000000 ) ;
#457 = EDGE_LOOP ( 'NONE', ( #104, #421, #181, #211 ) ) ;
#458 = AXIS2_PLACEMENT_3D ( 'NONE', #755, #798, #119 ) ;
#459 = DIRECTION ( 'NONE',  ( -0.000000000000000000, -0.000000000000000000, -1.000000000000000000 ) ) ;
#460 = UNCERTAINTY_MEASURE_WITH_UNIT (LENGTH_MEASURE( 1.000000000000000082E-05 ), #418, 'distance_accuracy_value', 'NONE');
#461 = DIRECTION ( 'NONE',  ( 0.000000000000000000, 0.000000000000000000, 1.000000000000000000 ) ) ;
#462 = VERTEX_POINT ( 'NONE', #191 ) ;
#463 = CARTESIAN_POINT ( 'NONE',  ( 80.00000000000000000, 0.000000000000000000, 0.4999999999999995559 ) ) ;
#464 = EDGE_CURVE ( 'NONE', #760, #417, #697, .T. ) ;
#465 = FACE_OUTER_BOUND ( 'NONE', #664, .T. ) ;
#466 = VERTEX_POINT ( 'NONE', #131 ) ;
#467 = CARTESIAN_POINT ( 'NONE',  ( -80.00000000000000000, 0.000000000000000000, 0.4999999999999995559 ) ) ;
#468 = CARTESIAN_POINT ( 'NONE',  ( 73.00000000000000000, 14.99999999999999289, 5.500000000000000000 ) ) ;
#469 = ORIENTED_EDGE ( 'NONE', *, *, #576, .F. ) ;
#470 = EDGE_CURVE ( 'NONE', #314, #462, #758, .T. ) ;
#471 = CARTESIAN_POINT ( 'NONE',  ( 0.000000000000000000, 0.000000000000000000, 0.000000000000000000 ) ) ;
#472 = CLOSED_SHELL ( 'NONE', ( #243, #561, #338, #46, #406, #478, #86, #416, #397, #517, #773, #68, #808, #179, #751, #146, #21, #737, #238, #578, #92, #28, #618, #62, #724 ) ) ;
#473 = VECTOR ( 'NONE', #742, 1000.000000000000000 ) ;
#474 = DIRECTION ( 'NONE',  ( -0.000000000000000000, -0.000000000000000000, -1.000000000000000000 ) ) ;
#475 = VERTEX_POINT ( 'NONE', #206 ) ;
#476 = CARTESIAN_POINT ( 'NONE',  ( 80.00000000000000000, -24.99999999999998579, 0.4999999999999995559 ) ) ;
#477 = ORIENTED_EDGE ( 'NONE', *, *, #489, .F. ) ;
#478 = ADVANCED_FACE ( 'NONE', ( #271 ), #127, .F. ) ;
#479 = CARTESIAN_POINT ( 'NONE',  ( 73.00000000000000000, 14.99999999999999289, 5.500000000000000000 ) ) ;
#480 = DIRECTION ( 'NONE',  ( 0.000000000000000000, 0.000000000000000000, 1.000000000000000000 ) ) ;
#481 = ORIENTED_EDGE ( 'NONE', *, *, #470, .F. ) ;
#482 = AXIS2_PLACEMENT_3D ( 'NONE', #341, #279, #731 ) ;
#483 = AXIS2_PLACEMENT_3D ( 'NONE', #498, #566, #111 ) ;
#484 = DIRECTION ( 'NONE',  ( 1.000000000000000000, 0.000000000000000000, 0.000000000000000000 ) ) ;
#485 = AXIS2_PLACEMENT_3D ( 'NONE', #467, #392, #387 ) ;
#486 = AXIS2_PLACEMENT_3D ( 'NONE', #536, #380, #656 ) ;
#487 = DIRECTION ( 'NONE',  ( 0.000000000000000000, 0.000000000000000000, 1.000000000000000000 ) ) ;
#488 = ORIENTED_EDGE ( 'NONE', *, *, #388, .F. ) ;
#489 = EDGE_CURVE ( 'NONE', #520, #475, #306, .T. ) ;
#490 = DIRECTION ( 'NONE',  ( -1.000000000000000000, 0.000000000000000000, 0.000000000000000000 ) ) ;
#491 = EDGE_CURVE ( 'NONE', #619, #548, #523, .T. ) ;
#492 = CARTESIAN_POINT ( 'NONE',  ( -75.00000000000000000, -15.00000000000000711, 0.000000000000000000 ) ) ;
#493 = ORIENTED_EDGE ( 'NONE', *, *, #506, .T. ) ;
#494 = FACE_OUTER_BOUND ( 'NONE', #495, .T. ) ;
#495 = EDGE_LOOP ( 'NONE', ( #539, #59, #376, #174 ) ) ;
#496 = APPLICATION_CONTEXT ( 'automotive_design' ) ;
#497 = AXIS2_PLACEMENT_3D ( 'NONE', #330, #718, #125 ) ;
#498 = CARTESIAN_POINT ( 'NONE',  ( -75.00000000000000000, 14.99999999999999289, 5.500000000000000000 ) ) ;
#499 = AXIS2_PLACEMENT_3D ( 'NONE', #173, #303, #244 ) ;
#500 = CIRCLE ( 'NONE', #541, 25.00000000000000711 ) ;
#501 = ORIENTED_EDGE ( 'NONE', *, *, #446, .T. ) ;
#502 = CARTESIAN_POINT ( 'NONE',  ( 77.00000000000000000, -15.00000000000000711, 5.500000000000000000 ) ) ;
#503 = DIRECTION ( 'NONE',  ( -1.000000000000000000, 0.000000000000000000, 0.000000000000000000 ) ) ;
#504 = ORIENTED_EDGE ( 'NONE', *, *, #116, .T. ) ;
#505 = DIRECTION ( 'NONE',  ( -1.000000000000000000, 0.000000000000000000, 0.000000000000000000 ) ) ;
#506 = EDGE_CURVE ( 'NONE', #747, #287, #351, .T. ) ;
#507 = CARTESIAN_POINT ( 'NONE',  ( 80.00000000000000000, -19.99999999999998579, 5.500000000000000000 ) ) ;
#508 = ORIENTED_EDGE ( 'NONE', *, *, #601, .T. ) ;
#509 = ORIENTED_EDGE ( 'NONE', *, *, #821, .T. ) ;
#510 = CYLINDRICAL_SURFACE ( 'NONE', #361, 2.000000000000001776 ) ;
#511 = CARTESIAN_POINT ( 'NONE',  ( -75.00000000000000000, 14.99999999999999289, 0.000000000000000000 ) ) ;
#512 = CIRCLE ( 'NONE', #149, 2.000000000000001776 ) ;
#513 = AXIS2_PLACEMENT_3D ( 'NONE', #642, #394, #4 ) ;
#514 = ORIENTED_EDGE ( 'NONE', *, *, #638, .T. ) ;
#515 = DIRECTION ( 'NONE',  ( 1.000000000000000000, 0.000000000000000000, 0.000000000000000000 ) ) ;
#516 = DIRECTION ( 'NONE',  ( 0.000000000000000000, 0.000000000000000000, 1.000000000000000000 ) ) ;
#517 = ADVANCED_FACE ( 'NONE', ( #620 ), #298, .T. ) ;
#518 = CARTESIAN_POINT ( 'NONE',  ( -80.00000000000000000, 20.00000000000000000, 0.4999999999999995559 ) ) ;
#519 = DIRECTION ( 'NONE',  ( 1.000000000000000000, 0.000000000000000000, 0.000000000000000000 ) ) ;
#520 = VERTEX_POINT ( 'NONE', #802 ) ;
#521 = CARTESIAN_POINT ( 'NONE',  ( -80.00000000000000000, -25.00000000000000000, 5.500000000000000000 ) ) ;
#522 = DIRECTION ( 'NONE',  ( -0.000000000000000000, -0.000000000000000000, -1.000000000000000000 ) ) ;
#523 = LINE ( 'NONE', #770, #386 ) ;
#524 = EDGE_LOOP ( 'NONE', ( #477, #818, #297, #448, #284 ) ) ;
#525 = LINE ( 'NONE', #15, #56 ) ;
#526 = CARTESIAN_POINT ( 'NONE',  ( -73.00000000000000000, -15.00000000000000711, 0.000000000000000000 ) ) ;
#527 = PLANE ( 'NONE',  #370 ) ;
#528 = CIRCLE ( 'NONE', #458, 14.49999999999999822 ) ;
#529 = DIRECTION ( 'NONE',  ( -0.000000000000000000, -0.000000000000000000, -1.000000000000000000 ) ) ;
#530 = ORIENTED_EDGE ( 'NONE', *, *, #278, .T. ) ;
#531 = LINE ( 'NONE', #396, #789 ) ;
#532 = DIRECTION ( 'NONE',  ( -1.000000000000000000, 0.000000000000000000, 0.000000000000000000 ) ) ;
#533 = ORIENTED_EDGE ( 'NONE', *, *, #310, .F. ) ;
#534 = DIRECTION ( 'NONE',  ( -1.000000000000000000, 0.000000000000000000, 0.000000000000000000 ) ) ;
#535 = EDGE_CURVE ( 'NONE', #563, #436, #37, .T. ) ;
#536 = CARTESIAN_POINT ( 'NONE',  ( 80.00000000000000000, 0.000000000000000000, 0.000000000000000000 ) ) ;
#537 = EDGE_LOOP ( 'NONE', ( #584, #493, #80, #675 ) ) ;
#538 = FACE_OUTER_BOUND ( 'NONE', #637, .T. ) ;
#539 = ORIENTED_EDGE ( 'NONE', *, *, #569, .T. ) ;
#540 = VECTOR ( 'NONE', #438, 1000.000000000000000 ) ;
#541 = AXIS2_PLACEMENT_3D ( 'NONE', #352, #740, #169 ) ;
#542 = EDGE_CURVE ( 'NONE', #436, #342, #581, .T. ) ;
#543 = DIRECTION ( 'NONE',  ( -1.000000000000000000, 0.000000000000000000, 0.000000000000000000 ) ) ;
#544 = VERTEX_POINT ( 'NONE', #274 ) ;
#545 = SHAPE_DEFINITION_REPRESENTATION ( #791, #172 ) ;
#546 = CARTESIAN_POINT ( 'NONE',  ( -47.50000000000000711, 14.49999999999999822, 5.500000000000000000 ) ) ;
#547 = CARTESIAN_POINT ( 'NONE',  ( -105.0000000000000142, 0.000000000000000000, 0.000000000000000000 ) ) ;
#548 = VERTEX_POINT ( 'NONE', #757 ) ;
#549 = DIRECTION ( 'NONE',  ( 0.000000000000000000, 0.000000000000000000, 1.000000000000000000 ) ) ;
#550 = ORIENTED_EDGE ( 'NONE', *, *, #363, .F. ) ;
#551 = DIRECTION ( 'NONE',  ( 0.000000000000000000, 0.000000000000000000, 1.000000000000000000 ) ) ;
#552 = EDGE_CURVE ( 'NONE', #164, #223, #604, .T. ) ;
#553 = CIRCLE ( 'NONE', #162, 2.000000000000001776 ) ;
#554 = DIRECTION ( 'NONE',  ( 0.000000000000000000, 0.000000000000000000, 1.000000000000000000 ) ) ;
#555 = CIRCLE ( 'NONE', #229, 25.00000000000000711 ) ;
#556 = CARTESIAN_POINT ( 'NONE',  ( 77.00000000000000000, 14.99999999999999289, 5.500000000000000000 ) ) ;
#557 = VERTEX_POINT ( 'NONE', #695 ) ;
#558 = DIRECTION ( 'NONE',  ( -1.000000000000000000, 0.000000000000000000, 0.000000000000000000 ) ) ;
#559 = EDGE_CURVE ( 'NONE', #627, #520, #433, .T. ) ;
#560 = ORIENTED_EDGE ( 'NONE', *, *, #217, .F. ) ;
#561 = ADVANCED_FACE ( 'NONE', ( #250 ), #688, .F. ) ;
#562 = CARTESIAN_POINT ( 'NONE',  ( -62.00000000000000711, 0.000000000000000000, 0.000000000000000000 ) ) ;
#563 = VERTEX_POINT ( 'NONE', #820 ) ;
#564 = VECTOR ( 'NONE', #39, 1000.000000000000000 ) ;
#565 = CIRCLE ( 'NONE', #150, 20.00000000000000355 ) ;
#566 = DIRECTION ( 'NONE',  ( 0.000000000000000000, 0.000000000000000000, 1.000000000000000000 ) ) ;
#567 = ORIENTED_EDGE ( 'NONE', *, *, #577, .T. ) ;
#568 = DIRECTION ( 'NONE',  ( 1.000000000000000000, 0.000000000000000000, 0.000000000000000000 ) ) ;
#569 = EDGE_CURVE ( 'NONE', #749, #164, #612, .T. ) ;
#570 = DIRECTION ( 'NONE',  ( 0.000000000000000000, 0.000000000000000000, 1.000000000000000000 ) ) ;
#571 = VERTEX_POINT ( 'NONE', #246 ) ;
#572 = DIRECTION ( 'NONE',  ( 0.000000000000000000, -1.000000000000000000, 0.000000000000000000 ) ) ;
#573 = DIRECTION ( 'NONE',  ( -1.000000000000000000, 0.000000000000000000, 0.000000000000000000 ) ) ;
#574 = ORIENTED_EDGE ( 'NONE', *, *, #552, .F. ) ;
#575 = PLANE ( 'NONE',  #389 ) ;
#576 = EDGE_CURVE ( 'NONE', #544, #619, #346, .T. ) ;
#577 = EDGE_CURVE ( 'NONE', #138, #557, #221, .T. ) ;
#578 = ADVANCED_FACE ( 'NONE', ( #730 ), #510, .F. ) ;
#579 = CARTESIAN_POINT ( 'NONE',  ( -47.50000000000000711, 14.49999999999999822, 0.000000000000000000 ) ) ;
#580 = AXIS2_PLACEMENT_3D ( 'NONE', #260, #321, #708 ) ;
#581 = CIRCLE ( 'NONE', #499, 14.49999999999999822 ) ;
#582 = CARTESIAN_POINT ( 'NONE',  ( -80.00000000000000000, 0.000000000000000000, 0.4999999999999995559 ) ) ;
#583 = VECTOR ( 'NONE', #445, 1000.000000000000000 ) ;
#584 = ORIENTED_EDGE ( 'NONE', *, *, #124, .T. ) ;
#585 = FACE_OUTER_BOUND ( 'NONE', #661, .T. ) ;
#586 = DIRECTION ( 'NONE',  ( -0.000000000000000000, -0.000000000000000000, -1.000000000000000000 ) ) ;
#587 = ORIENTED_EDGE ( 'NONE', *, *, #763, .F. ) ;
#588 = DIRECTION ( 'NONE',  ( -0.000000000000000000, -0.000000000000000000, -1.000000000000000000 ) ) ;
#589 = FACE_BOUND ( 'NONE', #27, .T. ) ;
#590 = VERTEX_POINT ( 'NONE', #312 ) ;
#591 = CARTESIAN_POINT ( 'NONE',  ( -75.00000000000000000, 14.99999999999999289, 5.500000000000000000 ) ) ;
#592 = DIRECTION ( 'NONE',  ( -1.000000000000000000, -8.673617379884035472E-17, -0.000000000000000000 ) ) ;
#593 = CARTESIAN_POINT ( 'NONE',  ( -80.00000000000000000, 0.000000000000000000, 0.4999999999999995559 ) ) ;
#594 = CIRCLE ( 'NONE', #774, 2.000000000000001776 ) ;
#595 = AXIS2_PLACEMENT_3D ( 'NONE', #30, #407, #726 ) ;
#596 = CARTESIAN_POINT ( 'NONE',  ( 80.00000000000000000, 0.000000000000000000, 5.500000000000000000 ) ) ;
#597 = ORIENTED_EDGE ( 'NONE', *, *, #638, .F. ) ;
#598 = DIRECTION ( 'NONE',  ( 0.000000000000000000, 0.000000000000000000, -1.000000000000000000 ) ) ;
#599 = AXIS2_PLACEMENT_3D ( 'NONE', #593, #778, #769 ) ;
#600 = UNCERTAINTY_MEASURE_WITH_UNIT (LENGTH_MEASURE( 1.000000000000000082E-05 ), #375, 'distance_accuracy_value', 'NONE');
#601 = EDGE_CURVE ( 'NONE', #342, #672, #528, .T. ) ;
#602 = PRODUCT_RELATED_PRODUCT_CATEGORY ( 'part', '', ( #143 ) ) ;
#603 = CYLINDRICAL_SURFACE ( 'NONE', #497, 2.000000000000001776 ) ;
#604 = LINE ( 'NONE', #502, #214 ) ;
#605 = ORIENTED_EDGE ( 'NONE', *, *, #356, .T. ) ;
#606 = CARTESIAN_POINT ( 'NONE',  ( -100.0000000000000000, 0.000000000000000000, 5.500000000000000000 ) ) ;
#607 = EDGE_LOOP ( 'NONE', ( #530, #743, #509, #132, #178 ) ) ;
#608 = CARTESIAN_POINT ( 'NONE',  ( -80.00000000000000000, 0.000000000000000000, 5.500000000000000000 ) ) ;
#609 = ORIENTED_EDGE ( 'NONE', *, *, #676, .F. ) ;
#610 = AXIS2_PLACEMENT_3D ( 'NONE', #435, #313, #573 ) ;
#611 = DIRECTION ( 'NONE',  ( -0.000000000000000000, -0.000000000000000000, -1.000000000000000000 ) ) ;
#612 = CIRCLE ( 'NONE', #241, 2.000000000000001776 ) ;
#613 = DIRECTION ( 'NONE',  ( -1.000000000000000000, 0.000000000000000000, 0.000000000000000000 ) ) ;
#614 = ORIENTED_EDGE ( 'NONE', *, *, #61, .F. ) ;
#615 = CARTESIAN_POINT ( 'NONE',  ( -80.00000000000000000, 0.000000000000000000, 5.500000000000000000 ) ) ;
#616 = DIRECTION ( 'NONE',  ( 0.000000000000000000, 1.000000000000000000, 0.000000000000000000 ) ) ;
#617 = FACE_OUTER_BOUND ( 'NONE', #25, .T. ) ;
#618 = ADVANCED_FACE ( 'NONE', ( #159 ), #289, .T. ) ;
#619 = VERTEX_POINT ( 'NONE', #677 ) ;
#620 = FACE_OUTER_BOUND ( 'NONE', #115, .T. ) ;
#621 = DIRECTION ( 'NONE',  ( 0.000000000000000000, 0.000000000000000000, 1.000000000000000000 ) ) ;
#622 = CARTESIAN_POINT ( 'NONE',  ( 47.50000000000000711, -14.49999999999999289, 5.500000000000000000 ) ) ;
#623 = ORIENTED_EDGE ( 'NONE', *, *, #601, .F. ) ;
#624 = VECTOR ( 'NONE', #722, 1000.000000000000000 ) ;
#625 = VECTOR ( 'NONE', #344, 1000.000000000000000 ) ;
#626 = FACE_BOUND ( 'NONE', #823, .T. ) ;
#627 = VERTEX_POINT ( 'NONE', #308 ) ;
#628 = FACE_OUTER_BOUND ( 'NONE', #236, .T. ) ;
#629 = ORIENTED_EDGE ( 'NONE', *, *, #783, .F. ) ;
#630 = FILL_AREA_STYLE ('',( #633 ) ) ;
#631 = VERTEX_POINT ( 'NONE', #414 ) ;
#632 = CARTESIAN_POINT ( 'NONE',  ( -47.50000000000000711, -14.49999999999999822, 0.000000000000000000 ) ) ;
#633 = FILL_AREA_STYLE_COLOUR ( '', #681 ) ;
#634 = ORIENTED_EDGE ( 'NONE', *, *, #768, .F. ) ;
#635 = CARTESIAN_POINT ( 'NONE',  ( -47.50000000000000711, -14.49999999999999822, 0.000000000000000000 ) ) ;
#636 = EDGE_CURVE ( 'NONE', #672, #631, #113, .T. ) ;
#637 = EDGE_LOOP ( 'NONE', ( #430, #796, #72, #235 ) ) ;
#638 = EDGE_CURVE ( 'NONE', #212, #747, #70, .T. ) ;
#639 = CARTESIAN_POINT ( 'NONE',  ( -47.50000000000000711, 0.000000000000000000, 5.500000000000000000 ) ) ;
#640 = FACE_OUTER_BOUND ( 'NONE', #607, .T. ) ;
#641 = CYLINDRICAL_SURFACE ( 'NONE', #580, 2.000000000000001776 ) ;
#642 = CARTESIAN_POINT ( 'NONE',  ( -47.50000000000000711, 0.000000000000000000, 5.500000000000000000 ) ) ;
#643 = DIRECTION ( 'NONE',  ( -0.000000000000000000, -0.000000000000000000, -1.000000000000000000 ) ) ;
#644 = MECHANICAL_DESIGN_GEOMETRIC_PRESENTATION_REPRESENTATION (  '', ( #657 ), #281 ) ;
#645 = CARTESIAN_POINT ( 'NONE',  ( 47.50000000000000711, 14.49999999999999289, 5.500000000000000000 ) ) ;
#646 = AXIS2_PLACEMENT_3D ( 'NONE', #139, #266, #515 ) ;
#647 = EDGE_LOOP ( 'NONE', ( #719, #614, #395, #354, #322 ) ) ;
#648 = DIRECTION ( 'NONE',  ( -7.304098846218135653E-17, 1.000000000000000000, 0.000000000000000000 ) ) ;
#649 = CYLINDRICAL_SURFACE ( 'NONE', #160, 24.99999999999998579 ) ;
#650 = VERTEX_POINT ( 'NONE', #735 ) ;
#651 = CARTESIAN_POINT ( 'NONE',  ( -80.00000000000000000, 25.00000000000000000, 5.500000000000000000 ) ) ;
#652 = DIRECTION ( 'NONE',  ( 1.000000000000000000, 0.000000000000000000, -0.000000000000000000 ) ) ;
#653 = ORIENTED_EDGE ( 'NONE', *, *, #535, .F. ) ;
#654 = EDGE_CURVE ( 'NONE', #200, #590, #188, .T. ) ;
#655 = CARTESIAN_POINT ( 'NONE',  ( 75.00000000000000000, -15.00000000000000711, 0.000000000000000000 ) ) ;
#656 = DIRECTION ( 'NONE',  ( 1.000000000000000000, 0.000000000000000000, 0.000000000000000000 ) ) ;
#657 = STYLED_ITEM ( 'NONE', ( #692 ), #382 ) ;
#658 = ORIENTED_EDGE ( 'NONE', *, *, #763, .T. ) ;
#659 = DIRECTION ( 'NONE',  ( -0.000000000000000000, -0.000000000000000000, -1.000000000000000000 ) ) ;
#660 = LINE ( 'NONE', #157, #412 ) ;
#661 = EDGE_LOOP ( 'NONE', ( #14, #184, #112, #193 ) ) ;
#662 = EDGE_CURVE ( 'NONE', #571, #672, #437, .T. ) ;
#663 = LINE ( 'NONE', #403, #625 ) ;
#664 = EDGE_LOOP ( 'NONE', ( #64, #276, #550, #110 ) ) ;
#665 = DIRECTION ( 'NONE',  ( -1.000000000000000000, 0.000000000000000000, 0.000000000000000000 ) ) ;
#666 = AXIS2_PLACEMENT_3D ( 'NONE', #415, #799, #613 ) ;
#667 = ORIENTED_EDGE ( 'NONE', *, *, #464, .T. ) ;
#668 = VECTOR ( 'NONE', #454, 1000.000000000000000 ) ;
#669 = VECTOR ( 'NONE', #588, 1000.000000000000000 ) ;
#670 = CARTESIAN_POINT ( 'NONE',  ( -80.00000000000000000, -25.00000000000000000, 0.000000000000000000 ) ) ;
#671 = DIRECTION ( 'NONE',  ( -0.000000000000000000, -0.000000000000000000, -1.000000000000000000 ) ) ;
#672 = VERTEX_POINT ( 'NONE', #632 ) ;
#673 = CARTESIAN_POINT ( 'NONE',  ( -47.50000000000000711, -14.49999999999999822, 5.500000000000000000 ) ) ;
#674 = CARTESIAN_POINT ( 'NONE',  ( -77.00000000000000000, -15.00000000000000711, 0.000000000000000000 ) ) ;
#675 = ORIENTED_EDGE ( 'NONE', *, *, #824, .F. ) ;
#676 = EDGE_CURVE ( 'NONE', #557, #404, #242, .T. ) ;
#677 = CARTESIAN_POINT ( 'NONE',  ( -73.00000000000000000, 14.99999999999999289, 5.500000000000000000 ) ) ;
#678 = DIRECTION ( 'NONE',  ( -0.000000000000000000, -0.000000000000000000, -1.000000000000000000 ) ) ;
#679 = ORIENTED_EDGE ( 'NONE', *, *, #124, .F. ) ;
#680 = AXIS2_PLACEMENT_3D ( 'NONE', #518, #195, #144 ) ;
#681 = COLOUR_RGB ( '',0.7921568627450980005, 0.8196078431372548767, 0.9333333333333333481 ) ;
#682 = CARTESIAN_POINT ( 'NONE',  ( -80.00000000000000000, 0.000000000000000000, 0.000000000000000000 ) ) ;
#683 = EDGE_LOOP ( 'NONE', ( #469, #252 ) ) ;
#684 = EDGE_CURVE ( 'NONE', #373, #88, #443, .T. ) ;
#685 = ORIENTED_EDGE ( 'NONE', *, *, #489, .T. ) ;
#686 = SURFACE_STYLE_FILL_AREA ( #630 ) ;
#687 = ORIENTED_EDGE ( 'NONE', *, *, #569, .F. ) ;
#688 = CYLINDRICAL_SURFACE ( 'NONE', #54, 2.000000000000001776 ) ;
#689 = VECTOR ( 'NONE', #586, 1000.000000000000000 ) ;
#690 = AXIS2_PLACEMENT_3D ( 'NONE', #492, #309, #503 ) ;
#691 = EDGE_CURVE ( 'NONE', #475, #571, #282, .T. ) ;
#692 = PRESENTATION_STYLE_ASSIGNMENT (( #170 ) ) ;
#693 = CIRCLE ( 'NONE', #108, 2.000000000000001776 ) ;
#694 = ORIENTED_EDGE ( 'NONE', *, *, #103, .F. ) ;
#695 = CARTESIAN_POINT ( 'NONE',  ( 73.00000000000000000, 14.99999999999999289, 0.000000000000000000 ) ) ;
#696 = DIRECTION ( 'NONE',  ( -1.000000000000000000, 0.000000000000000000, 0.000000000000000000 ) ) ;
#697 = LINE ( 'NONE', #383, #187 ) ;
#698 = LINE ( 'NONE', #79, #213 ) ;
#699 = CARTESIAN_POINT ( 'NONE',  ( -105.0000000000000142, 0.000000000000000000, 0.4999999999999995559 ) ) ;
#700 = EDGE_CURVE ( 'NONE', #88, #373, #348, .T. ) ;
#701 = EDGE_CURVE ( 'NONE', #287, #200, #500, .T. ) ;
#702 = DIRECTION ( 'NONE',  ( -1.000000000000000000, 0.000000000000000000, 0.000000000000000000 ) ) ;
#703 = DIRECTION ( 'NONE',  ( -0.000000000000000000, -0.000000000000000000, -1.000000000000000000 ) ) ;
#704 = ORIENTED_EDGE ( 'NONE', *, *, #559, .T. ) ;
#705 = CARTESIAN_POINT ( 'NONE',  ( 80.00000000000000000, -19.99999999999998579, 0.4999999999999995559 ) ) ;
#706 = FACE_BOUND ( 'NONE', #524, .T. ) ;
#707 = CIRCLE ( 'NONE', #646, 2.000000000000001776 ) ;
#708 = DIRECTION ( 'NONE',  ( -1.000000000000000000, 0.000000000000000000, 0.000000000000000000 ) ) ;
#709 = VECTOR ( 'NONE', #368, 1000.000000000000000 ) ;
#710 = ORIENTED_EDGE ( 'NONE', *, *, #577, .F. ) ;
#711 = CARTESIAN_POINT ( 'NONE',  ( 77.00000000000000000, 14.99999999999999289, 5.500000000000000000 ) ) ;
#712 = LINE ( 'NONE', #329, #787 ) ;
#713 = EDGE_CURVE ( 'NONE', #417, #287, #555, .T. ) ;
#714 = CARTESIAN_POINT ( 'NONE',  ( 80.00000000000000000, 24.99999999999998579, 0.4999999999999995559 ) ) ;
#715 = DIRECTION ( 'NONE',  ( -1.000000000000000000, 0.000000000000000000, 0.000000000000000000 ) ) ;
#716 = VERTEX_POINT ( 'NONE', #825 ) ;
#717 = CARTESIAN_POINT ( 'NONE',  ( -80.00000000000000000, 20.00000000000000000, 0.4999999999999995559 ) ) ;
#718 = DIRECTION ( 'NONE',  ( -0.000000000000000000, -0.000000000000000000, -1.000000000000000000 ) ) ;
#719 = ORIENTED_EDGE ( 'NONE', *, *, #713, .F. ) ;
#720 = DIRECTION ( 'NONE',  ( 1.000000000000000000, -8.673617379884035472E-17, 0.000000000000000000 ) ) ;
#721 = EDGE_CURVE ( 'NONE', #373, #426, #781, .T. ) ;
#722 = DIRECTION ( 'NONE',  ( -0.000000000000000000, -0.000000000000000000, -1.000000000000000000 ) ) ;
#723 = CIRCLE ( 'NONE', #371, 14.49999999999999289 ) ;
#724 = ADVANCED_FACE ( 'NONE', ( #777 ), #335, .T. ) ;
#725 = ORIENTED_EDGE ( 'NONE', *, *, #464, .F. ) ;
#726 = DIRECTION ( 'NONE',  ( -1.000000000000000000, 0.000000000000000000, 0.000000000000000000 ) ) ;
#727 = ORIENTED_EDGE ( 'NONE', *, *, #542, .T. ) ;
#728 = FACE_OUTER_BOUND ( 'NONE', #58, .T. ) ;
#729 = ORIENTED_EDGE ( 'NONE', *, *, #310, .T. ) ;
#730 = FACE_OUTER_BOUND ( 'NONE', #432, .T. ) ;
#731 = DIRECTION ( 'NONE',  ( -1.000000000000000000, 0.000000000000000000, 0.000000000000000000 ) ) ;
#732 = EDGE_LOOP ( 'NONE', ( #560, #240 ) ) ;
#733 = CIRCLE ( 'NONE', #295, 2.000000000000001776 ) ;
#734 = AXIS2_PLACEMENT_3D ( 'NONE', #717, #381, #762 ) ;
#735 = CARTESIAN_POINT ( 'NONE',  ( 73.00000000000000000, -15.00000000000000711, 0.000000000000000000 ) ) ;
#736 = DIRECTION ( 'NONE',  ( -1.000000000000000000, 0.000000000000000000, 0.000000000000000000 ) ) ;
#737 = ADVANCED_FACE ( 'NONE', ( #319 ), #332, .F. ) ;
#738 = ORIENTED_EDGE ( 'NONE', *, *, #506, .F. ) ;
#739 = EDGE_CURVE ( 'NONE', #650, #223, #693, .T. ) ;
#740 = DIRECTION ( 'NONE',  ( 0.000000000000000000, 0.000000000000000000, 1.000000000000000000 ) ) ;
#741 = ORIENTED_EDGE ( 'NONE', *, *, #190, .T. ) ;
#742 = DIRECTION ( 'NONE',  ( -0.000000000000000000, -0.000000000000000000, -1.000000000000000000 ) ) ;
#743 = ORIENTED_EDGE ( 'NONE', *, *, #470, .T. ) ;
#744 = AXIS2_PLACEMENT_3D ( 'NONE', #596, #9, #715 ) ;
#745 = AXIS2_PLACEMENT_3D ( 'NONE', #639, #65, #98 ) ;
#746 = FACE_OUTER_BOUND ( 'NONE', #647, .T. ) ;
#747 = VERTEX_POINT ( 'NONE', #699 ) ;
#748 = DIRECTION ( 'NONE',  ( -0.000000000000000000, -0.000000000000000000, -1.000000000000000000 ) ) ;
#749 = VERTEX_POINT ( 'NONE', #273 ) ;
#750 = CARTESIAN_POINT ( 'NONE',  ( 75.00000000000000000, 14.99999999999999289, 0.000000000000000000 ) ) ;
#751 = ADVANCED_FACE ( 'NONE', ( #585 ), #575, .T. ) ;
#752 = CARTESIAN_POINT ( 'NONE',  ( 80.00000000000000000, 19.99999999999998579, 0.4999999999999995559 ) ) ;
#753 = VERTEX_POINT ( 'NONE', #711 ) ;
#754 = DIRECTION ( 'NONE',  ( -0.000000000000000000, -0.000000000000000000, -1.000000000000000000 ) ) ;
#755 = CARTESIAN_POINT ( 'NONE',  ( -47.50000000000000711, 0.000000000000000000, 0.000000000000000000 ) ) ;
#756 = AXIS2_PLACEMENT_3D ( 'NONE', #216, #474, #736 ) ;
#757 = CARTESIAN_POINT ( 'NONE',  ( -73.00000000000000000, 14.99999999999999289, 0.000000000000000000 ) ) ;
#758 = CIRCLE ( 'NONE', #744, 19.99999999999998934 ) ;
#759 = AXIS2_PLACEMENT_3D ( 'NONE', #591, #643, #315 ) ;
#760 = VERTEX_POINT ( 'NONE', #197 ) ;
#761 = EDGE_CURVE ( 'NONE', #88, #141, #6, .T. ) ;
#762 = DIRECTION ( 'NONE',  ( 0.000000000000000000, 0.000000000000000000, -1.000000000000000000 ) ) ;
#763 = EDGE_CURVE ( 'NONE', #223, #650, #707, .T. ) ;
#764 = DIRECTION ( 'NONE',  ( -7.304098846218135653E-17, -1.000000000000000000, 0.000000000000000000 ) ) ;
#765 = ORIENTED_EDGE ( 'NONE', *, *, #251, .F. ) ;
#766 = DIRECTION ( 'NONE',  ( -0.000000000000000000, -0.000000000000000000, -1.000000000000000000 ) ) ;
#767 = PLANE ( 'NONE',  #118 ) ;
#768 = EDGE_CURVE ( 'NONE', #760, #716, #83, .T. ) ;
#769 = DIRECTION ( 'NONE',  ( -1.000000000000000000, 0.000000000000000000, 0.000000000000000000 ) ) ;
#770 = CARTESIAN_POINT ( 'NONE',  ( -73.00000000000000000, 14.99999999999999289, 5.500000000000000000 ) ) ;
#771 = EDGE_LOOP ( 'NONE', ( #653, #399, #704, #22 ) ) ;
#772 = CARTESIAN_POINT ( 'NONE',  ( -47.50000000000000711, -14.49999999999999822, 5.500000000000000000 ) ) ;
#773 = ADVANCED_FACE ( 'NONE', ( #259 ), #73, .F. ) ;
#774 = AXIS2_PLACEMENT_3D ( 'NONE', #161, #480, #786 ) ;
#775 = CYLINDRICAL_SURFACE ( 'NONE', #680, 5.000000000000000888 ) ;
#776 = ORIENTED_EDGE ( 'NONE', *, *, #292, .F. ) ;
#777 = FACE_OUTER_BOUND ( 'NONE', #300, .T. ) ;
#778 = DIRECTION ( 'NONE',  ( -0.000000000000000000, -0.000000000000000000, -1.000000000000000000 ) ) ;
#779 = DIRECTION ( 'NONE',  ( 0.000000000000000000, 0.000000000000000000, 1.000000000000000000 ) ) ;
#780 = ORIENTED_EDGE ( 'NONE', *, *, #277, .T. ) ;
#781 = LINE ( 'NONE', #453, #19 ) ;
#782 = EDGE_CURVE ( 'NONE', #749, #650, #531, .T. ) ;
#783 = EDGE_CURVE ( 'NONE', #747, #760, #176, .T. ) ;
#784 = DIRECTION ( 'NONE',  ( -1.000000000000000000, 0.000000000000000000, 0.000000000000000000 ) ) ;
#785 = ORIENTED_EDGE ( 'NONE', *, *, #700, .T. ) ;
#786 = DIRECTION ( 'NONE',  ( 1.000000000000000000, 0.000000000000000000, 0.000000000000000000 ) ) ;
#787 = VECTOR ( 'NONE', #592, 1000.000000000000000 ) ;
#788 = ORIENTED_EDGE ( 'NONE', *, *, #388, .T. ) ;
#789 = VECTOR ( 'NONE', #766, 1000.000000000000000 ) ;
#790 = DIRECTION ( 'NONE',  ( 1.000000000000000000, 0.000000000000000000, 0.000000000000000000 ) ) ;
#791 = PRODUCT_DEFINITION_SHAPE ( 'NONE', 'NONE',  #296 ) ;
#792 = CYLINDRICAL_SURFACE ( 'NONE', #756, 2.000000000000001776 ) ;
#793 = ORIENTED_EDGE ( 'NONE', *, *, #126, .F. ) ;
#794 = DIRECTION ( 'NONE',  ( 0.000000000000000000, 0.000000000000000000, 1.000000000000000000 ) ) ;
#795 = CYLINDRICAL_SURFACE ( 'NONE', #305, 14.49999999999999289 ) ;
#796 = ORIENTED_EDGE ( 'NONE', *, *, #425, .F. ) ;
#797 = EDGE_CURVE ( 'NONE', #314, #153, #151, .T. ) ;
#798 = DIRECTION ( 'NONE',  ( 0.000000000000000000, 0.000000000000000000, 1.000000000000000000 ) ) ;
#799 = DIRECTION ( 'NONE',  ( 0.000000000000000000, 0.000000000000000000, 1.000000000000000000 ) ) ;
#800 = ORIENTED_EDGE ( 'NONE', *, *, #700, .F. ) ;
#801 = VECTOR ( 'NONE', #1, 1000.000000000000000 ) ;
#802 = CARTESIAN_POINT ( 'NONE',  ( -47.50000000000000711, 14.49999999999999822, 5.500000000000000000 ) ) ;
#803 =( GEOMETRIC_REPRESENTATION_CONTEXT ( 3 ) GLOBAL_UNCERTAINTY_ASSIGNED_CONTEXT ( ( #460 ) ) GLOBAL_UNIT_ASSIGNED_CONTEXT ( ( #418, #411, #405 ) ) REPRESENTATION_CONTEXT ( 'NONE', 'WORKASPACE' ) );
#804 = CIRCLE ( 'NONE', #231, 2.000000000000001776 ) ;
#805 = CARTESIAN_POINT ( 'NONE',  ( -80.00000000000000000, -20.00000000000000000, 0.4999999999999995559 ) ) ;
#806 = CARTESIAN_POINT ( 'NONE',  ( 77.00000000000000000, -15.00000000000000711, 5.500000000000000000 ) ) ;
#807 = ORIENTED_EDGE ( 'NONE', *, *, #797, .F. ) ;
#808 = ADVANCED_FACE ( 'NONE', ( #11 ), #23, .F. ) ;
#809 = DIRECTION ( 'NONE',  ( 0.000000000000000000, 0.000000000000000000, -1.000000000000000000 ) ) ;
#810 = ORIENTED_EDGE ( 'NONE', *, *, #278, .F. ) ;
#811 = SURFACE_SIDE_STYLE ('',( #686 ) ) ;
#812 = ORIENTED_EDGE ( 'NONE', *, *, #676, .T. ) ;
#813 = AXIS2_PLACEMENT_3D ( 'NONE', #816, #549, #568 ) ;
#814 = AXIS2_PLACEMENT_3D ( 'NONE', #651, #449, #720 ) ;
#815 = ORIENTED_EDGE ( 'NONE', *, *, #761, .T. ) ;
#816 = CARTESIAN_POINT ( 'NONE',  ( -75.00000000000000000, 14.99999999999999289, 5.500000000000000000 ) ) ;
#817 = DIRECTION ( 'NONE',  ( 0.000000000000000000, 0.000000000000000000, 1.000000000000000000 ) ) ;
#818 = ORIENTED_EDGE ( 'NONE', *, *, #559, .F. ) ;
#819 = EDGE_LOOP ( 'NONE', ( #501, #339 ) ) ;
#820 = CARTESIAN_POINT ( 'NONE',  ( 47.50000000000000711, 14.49999999999999289, 0.000000000000000000 ) ) ;
#821 = EDGE_CURVE ( 'NONE', #462, #716, #262, .T. ) ;
#822 = CARTESIAN_POINT ( 'NONE',  ( -80.00000000000000000, -25.00000000000000000, 0.4999999999999995559 ) ) ;
#823 = EDGE_LOOP ( 'NONE', ( #100, #727, #508, #302, #741 ) ) ;
#824 = EDGE_CURVE ( 'NONE', #444, #200, #525, .T. ) ;
#825 = CARTESIAN_POINT ( 'NONE',  ( -80.00000000000000000, 20.00000000000000000, 5.500000000000000000 ) ) ;
ENDSEC;
END-ISO-10303-21;
