ISO-10303-21;
HEADER;
FILE_DESCRIPTION (( 'STEP AP214' ),
    '1' );
FILE_NAME ('6. Top Motor Mount^Backv2.STEP',
    '2026-06-02T06:34:59',
    ( '' ),
    ( '' ),
    'SwSTEP 2.0',
    'SolidWorks 2026',
    '' );
FILE_SCHEMA (( 'AUTOMOTIVE_DESIGN' ));
ENDSEC;

DATA;
#1 = EDGE_CURVE ( 'NONE', #514, #363, #637, .T. ) ;
#2 = EDGE_LOOP ( 'NONE', ( #357, #838, #468, #715 ) ) ;
#3 = DIRECTION ( 'NONE',  ( 0.000000000000000000, 0.000000000000000000, 1.000000000000000000 ) ) ;
#4 = FACE_OUTER_BOUND ( 'NONE', #272, .T. ) ;
#5 = DIRECTION ( 'NONE',  ( 0.000000000000000000, 0.000000000000000000, 1.000000000000000000 ) ) ;
#6 = VERTEX_POINT ( 'NONE', #19 ) ;
#7 = CARTESIAN_POINT ( 'NONE',  ( 7.999999999999998224, -11.00000000000016165, 4.000000000000000000 ) ) ;
#8 =( BOUNDED_CURVE ( )  B_SPLINE_CURVE ( 3, ( #155, #624, #23, #292 ),
 .UNSPECIFIED., .F., .F. ) 
 B_SPLINE_CURVE_WITH_KNOTS ( ( 4, 4 ),
 ( 3.141592653589793116, 4.712388980384689674 ),
 .UNSPECIFIED. ) 
 CURVE ( )  GEOMETRIC_REPRESENTATION_ITEM ( )  RATIONAL_B_SPLINE_CURVE ( ( 1.000000000000000000, 0.8047378541243649375, 0.8047378541243649375, 1.000000000000000000 ) ) 
 REPRESENTATION_ITEM ( '' )  );
#9 = FACE_OUTER_BOUND ( 'NONE', #219, .T. ) ;
#10 = ORIENTED_EDGE ( 'NONE', *, *, #167, .F. ) ;
#11 = FACE_OUTER_BOUND ( 'NONE', #802, .T. ) ;
#12 = AXIS2_PLACEMENT_3D ( 'NONE', #770, #216, #229 ) ;
#13 = VECTOR ( 'NONE', #163, 1000.000000000000000 ) ;
#14 = EDGE_CURVE ( 'NONE', #145, #150, #762, .T. ) ;
#15 = CARTESIAN_POINT ( 'NONE',  ( 0.000000000000000000, -11.00000000000011013, -25.98870062158990635 ) ) ;
#16 = AXIS2_PLACEMENT_3D ( 'NONE', #720, #190, #318 ) ;
#17 = AXIS2_PLACEMENT_3D ( 'NONE', #493, #35, #364 ) ;
#18 = DIRECTION ( 'NONE',  ( -0.000000000000000000, -0.000000000000000000, -1.000000000000000000 ) ) ;
#19 = CARTESIAN_POINT ( 'NONE',  ( 1.249999999999919842, -19.00000000000011369, 4.000000000000000000 ) ) ;
#20 = DIRECTION ( 'NONE',  ( -0.000000000000000000, -0.000000000000000000, -1.000000000000000000 ) ) ;
#21 = EDGE_CURVE ( 'NONE', #497, #99, #689, .T. ) ;
#22 = DIRECTION ( 'NONE',  ( 1.000000000000000000, 0.000000000000000000, -0.000000000000000000 ) ) ;
#23 = CARTESIAN_POINT ( 'NONE',  ( -12.64568774417010211, 8.547397868083960404, 2.064049099597420858E-15 ) ) ;
#24 = LINE ( 'NONE', #508, #228 ) ;
#25 = LINE ( 'NONE', #559, #749 ) ;
#26 = ORIENTED_EDGE ( 'NONE', *, *, #829, .T. ) ;
#27 =( LENGTH_UNIT ( ) NAMED_UNIT ( * ) SI_UNIT ( .MILLI., .METRE. ) );
#28 = ORIENTED_EDGE ( 'NONE', *, *, #78, .F. ) ;
#29 = AXIS2_PLACEMENT_3D ( 'NONE', #613, #351, #480 ) ;
#30 = VECTOR ( 'NONE', #866, 1000.000000000000000 ) ;
#31 = AXIS2_PLACEMENT_3D ( 'NONE', #700, #504, #355 ) ;
#32 = DIRECTION ( 'NONE',  ( 0.000000000000000000, 1.000000000000000000, 0.000000000000000000 ) ) ;
#33 = EDGE_CURVE ( 'NONE', #36, #828, #8, .T. ) ;
#34 = VERTEX_POINT ( 'NONE', #560 ) ;
#35 = DIRECTION ( 'NONE',  ( 0.000000000000000000, 0.000000000000000000, 1.000000000000000000 ) ) ;
#36 = VERTEX_POINT ( 'NONE', #830 ) ;
#37 = CARTESIAN_POINT ( 'NONE',  ( -1.249999999999972022, -3.000000000000110134, 0.000000000000000000 ) ) ;
#38 = LINE ( 'NONE', #517, #616 ) ;
#39 = EDGE_CURVE ( 'NONE', #123, #343, #791, .T. ) ;
#40 =( NAMED_UNIT ( * ) PLANE_ANGLE_UNIT ( ) SI_UNIT ( $, .RADIAN. ) );
#41 = CARTESIAN_POINT ( 'NONE',  ( 7.999999999999998224, -11.00000000000016165, 2.000000000000000000 ) ) ;
#42 = CARTESIAN_POINT ( 'NONE',  ( 0.000000000000000000, -11.00000000000011013, 2.000000000000000000 ) ) ;
#43 = ORIENTED_EDGE ( 'NONE', *, *, #751, .F. ) ;
#44 = CARTESIAN_POINT ( 'NONE',  ( 10.30000000000000604, -11.00000000000018119, 4.000000000000000000 ) ) ;
#45 = ADVANCED_FACE ( 'NONE', ( #458 ), #647, .T. ) ;
#46 = CIRCLE ( 'NONE', #102, 2.550000000000000266 ) ;
#47 = AXIS2_PLACEMENT_3D ( 'NONE', #780, #246, #714 ) ;
#48 = CARTESIAN_POINT ( 'NONE',  ( 12.89421588159395782, 10.61846567994943413, -36.30000000000000426 ) ) ;
#49 = ORIENTED_EDGE ( 'NONE', *, *, #161, .T. ) ;
#50 = CARTESIAN_POINT ( 'NONE',  ( -10.30000000000000604, -11.00000000000011013, 4.000000000000000000 ) ) ;
#51 = LINE ( 'NONE', #172, #722 ) ;
#52 = VERTEX_POINT ( 'NONE', #656 ) ;
#53 = DIRECTION ( 'NONE',  ( -0.000000000000000000, -0.000000000000000000, -1.000000000000000000 ) ) ;
#54 = DIRECTION ( 'NONE',  ( 0.1191452206184306223, -0.9928768384869219865, 0.000000000000000000 ) ) ;
#55 = ORIENTED_EDGE ( 'NONE', *, *, #109, .F. ) ;
#56 = CARTESIAN_POINT ( 'NONE',  ( 2.775557561562891351E-14, -3.000000000000110134, 0.000000000000000000 ) ) ;
#57 = VECTOR ( 'NONE', #376, 1000.000000000000000 ) ;
#58 = DIRECTION ( 'NONE',  ( 1.000000000000000000, 0.000000000000000000, 0.000000000000000000 ) ) ;
#59 = CIRCLE ( 'NONE', #636, 2.550000000000000266 ) ;
#60 = AXIS2_PLACEMENT_3D ( 'NONE', #84, #839, #226 ) ;
#61 = ORIENTED_EDGE ( 'NONE', *, *, #1, .F. ) ;
#62 = DIRECTION ( 'NONE',  ( 0.000000000000000000, 1.000000000000000000, 0.000000000000000000 ) ) ;
#63 = CARTESIAN_POINT ( 'NONE',  ( 0.000000000000000000, 10.61846567994943413, -8.599999999999996092 ) ) ;
#64 = ORIENTED_EDGE ( 'NONE', *, *, #279, .T. ) ;
#65 = PLANE ( 'NONE',  #72 ) ;
#66 = DIRECTION ( 'NONE',  ( -1.000000000000000000, 0.000000000000000000, 0.000000000000000000 ) ) ;
#67 = VERTEX_POINT ( 'NONE', #449 ) ;
#68 = CARTESIAN_POINT ( 'NONE',  ( 0.2500000000000000000, -0.9000000000001110445, 2.000000000000000000 ) ) ;
#69 = ADVANCED_FACE ( 'NONE', ( #582, #787, #188 ), #258, .F. ) ;
#70 = AXIS2_PLACEMENT_3D ( 'NONE', #191, #533, #66 ) ;
#71 = EDGE_LOOP ( 'NONE', ( #443, #92, #546, #831 ) ) ;
#72 = AXIS2_PLACEMENT_3D ( 'NONE', #73, #599, #686 ) ;
#73 = CARTESIAN_POINT ( 'NONE',  ( -13.30000000000000604, 13.99999999999982236, 4.000000000000000000 ) ) ;
#74 = EDGE_CURVE ( 'NONE', #207, #251, #240, .T. ) ;
#75 = ORIENTED_EDGE ( 'NONE', *, *, #520, .F. ) ;
#76 = CARTESIAN_POINT ( 'NONE',  ( 10.30000000000000604, -11.00000000000018119, 0.000000000000000000 ) ) ;
#77 = LINE ( 'NONE', #705, #540 ) ;
#78 = EDGE_CURVE ( 'NONE', #6, #607, #269, .T. ) ;
#79 = ORIENTED_EDGE ( 'NONE', *, *, #33, .F. ) ;
#80 = CARTESIAN_POINT ( 'NONE',  ( 0.000000000000000000, -11.00000000000011013, 4.000000000000000000 ) ) ;
#81 = FACE_BOUND ( 'NONE', #729, .T. ) ;
#82 = EDGE_LOOP ( 'NONE', ( #308, #471 ) ) ;
#83 = EDGE_CURVE ( 'NONE', #828, #52, #779, .T. ) ;
#84 = CARTESIAN_POINT ( 'NONE',  ( 0.000000000000000000, -11.00000000000011013, 0.000000000000000000 ) ) ;
#85 = VECTOR ( 'NONE', #558, 1000.000000000000000 ) ;
#86 = AXIS2_PLACEMENT_3D ( 'NONE', #687, #349, #682 ) ;
#87 = VERTEX_POINT ( 'NONE', #713 ) ;
#88 = PRODUCT_DEFINITION_FORMATION_WITH_SPECIFIED_SOURCE ( 'ANY', '', #800, .NOT_KNOWN. ) ;
#89 = DIRECTION ( 'NONE',  ( 0.000000000000000000, 0.000000000000000000, 1.000000000000000000 ) ) ;
#90 = EDGE_LOOP ( 'NONE', ( #411, #764 ) ) ;
#91 = DIRECTION ( 'NONE',  ( -0.000000000000000000, -0.000000000000000000, -1.000000000000000000 ) ) ;
#92 = ORIENTED_EDGE ( 'NONE', *, *, #372, .F. ) ;
#93 = CARTESIAN_POINT ( 'NONE',  ( 7.999999999999998224, -11.00000000000016165, 0.000000000000000000 ) ) ;
#94 = DIRECTION ( 'NONE',  ( -0.000000000000000000, 1.000000000000000000, -0.000000000000000000 ) ) ;
#95 = ORIENTED_EDGE ( 'NONE', *, *, #727, .T. ) ;
#96 = PLANE ( 'NONE',  #311 ) ;
#97 = EDGE_CURVE ( 'NONE', #663, #859, #119, .T. ) ;
#98 = CARTESIAN_POINT ( 'NONE',  ( -1.249999999999972022, -3.000000000000110134, 2.000000000000000000 ) ) ;
#99 = VERTEX_POINT ( 'NONE', #384 ) ;
#100 = CARTESIAN_POINT ( 'NONE',  ( -12.29421588159396350, 5.618465679949435021, 0.000000000000000000 ) ) ;
#101 = ORIENTED_EDGE ( 'NONE', *, *, #21, .F. ) ;
#102 = AXIS2_PLACEMENT_3D ( 'NONE', #585, #378, #256 ) ;
#103 = EDGE_CURVE ( 'NONE', #699, #166, #51, .T. ) ;
#104 = CARTESIAN_POINT ( 'NONE',  ( 3.122849337825749926E-16, 10.61846567994943413, -13.69999999999999751 ) ) ;
#105 = ORIENTED_EDGE ( 'NONE', *, *, #112, .F. ) ;
#106 = APPLICATION_CONTEXT ( 'automotive_design' ) ;
#107 = CARTESIAN_POINT ( 'NONE',  ( -12.89421588159395959, 10.61846567994943413, -36.30000000000000426 ) ) ;
#108 = APPLICATION_PROTOCOL_DEFINITION ( 'draft international standard', 'automotive_design', 1998, #693 ) ;
#109 = EDGE_CURVE ( 'NONE', #365, #52, #316, .T. ) ;
#110 = EDGE_LOOP ( 'NONE', ( #259, #807, #486, #640 ) ) ;
#111 = DIRECTION ( 'NONE',  ( 1.000000000000000000, 0.000000000000000000, 0.000000000000000000 ) ) ;
#112 = EDGE_CURVE ( 'NONE', #339, #113, #499, .T. ) ;
#113 = VERTEX_POINT ( 'NONE', #586 ) ;
#114 = LINE ( 'NONE', #798, #605 ) ;
#115 = STYLED_ITEM ( 'NONE', ( #209 ), #264 ) ;
#116 = VECTOR ( 'NONE', #548, 1000.000000000000000 ) ;
#117 = DIRECTION ( 'NONE',  ( -0.000000000000000000, -0.000000000000000000, -1.000000000000000000 ) ) ;
#118 = VECTOR ( 'NONE', #572, 1000.000000000000000 ) ;
#119 = LINE ( 'NONE', #796, #350 ) ;
#120 = ORIENTED_EDGE ( 'NONE', *, *, #268, .T. ) ;
#121 = CARTESIAN_POINT ( 'NONE',  ( 0.000000000000000000, 3.999999999999821476, -11.14999999999999680 ) ) ;
#122 = DIRECTION ( 'NONE',  ( 0.000000000000000000, 0.000000000000000000, -1.000000000000000000 ) ) ;
#123 = VERTEX_POINT ( 'NONE', #442 ) ;
#124 = CARTESIAN_POINT ( 'NONE',  ( -8.000000000000000000, -11.00000000000011013, 2.000000000000000000 ) ) ;
#125 = EDGE_CURVE ( 'NONE', #52, #420, #553, .T. ) ;
#126 =( LENGTH_UNIT ( ) NAMED_UNIT ( * ) SI_UNIT ( .MILLI., .METRE. ) );
#127 = ORIENTED_EDGE ( 'NONE', *, *, #628, .F. ) ;
#128 = DIRECTION ( 'NONE',  ( 0.000000000000000000, 0.000000000000000000, -1.000000000000000000 ) ) ;
#129 = CLOSED_SHELL ( 'NONE', ( #816, #610, #254, #382, #761, #590, #45, #581, #171, #291, #484, #740, #196, #869, #387, #417, #346, #565, #69, #733, #391, #332, #845, #552, #840, #326 ) ) ;
#130 = CARTESIAN_POINT ( 'NONE',  ( -9.250000000000000000, -11.00000000000011013, 0.000000000000000000 ) ) ;
#131 = CIRCLE ( 'NONE', #708, 1.249999999999999334 ) ;
#132 = VERTEX_POINT ( 'NONE', #48 ) ;
#133 = DIRECTION ( 'NONE',  ( 1.000000000000000000, 0.000000000000000000, 0.000000000000000000 ) ) ;
#134 = CARTESIAN_POINT ( 'NONE',  ( 7.999999999999998224, -11.00000000000016165, 0.000000000000000000 ) ) ;
#135 = ORIENTED_EDGE ( 'NONE', *, *, #712, .F. ) ;
#136 = EDGE_CURVE ( 'NONE', #99, #34, #862, .T. ) ;
#137 = DIRECTION ( 'NONE',  ( 1.000000000000000000, 0.000000000000000000, 0.000000000000000000 ) ) ;
#138 = CARTESIAN_POINT ( 'NONE',  ( 10.30000000000000426, -11.00000000000011013, 0.000000000000000000 ) ) ;
#139 = SURFACE_STYLE_FILL_AREA ( #743 ) ;
#140 = ORIENTED_EDGE ( 'NONE', *, *, #440, .F. ) ;
#141 = DIRECTION ( 'NONE',  ( 0.1191452206184307333, 0.9928768384869219865, -0.000000000000000000 ) ) ;
#142 = PRODUCT_DEFINITION_CONTEXT ( 'detailed design', #693, 'design' ) ;
#143 = CYLINDRICAL_SURFACE ( 'NONE', #526, 1.249999999999999334 ) ;
#144 = VECTOR ( 'NONE', #342, 1000.000000000000000 ) ;
#145 = VERTEX_POINT ( 'NONE', #104 ) ;
#146 = LINE ( 'NONE', #469, #195 ) ;
#147 = FACE_OUTER_BOUND ( 'NONE', #329, .T. ) ;
#148 = EDGE_CURVE ( 'NONE', #507, #159, #571, .T. ) ;
#149 = CARTESIAN_POINT ( 'NONE',  ( 13.30000000000000604, 13.99999999999982236, -36.30000000000000426 ) ) ;
#150 = VERTEX_POINT ( 'NONE', #521 ) ;
#151 = DIRECTION ( 'NONE',  ( 0.000000000000000000, 0.000000000000000000, 1.000000000000000000 ) ) ;
#152 = ORIENTED_EDGE ( 'NONE', *, *, #829, .F. ) ;
#153 = DIRECTION ( 'NONE',  ( 0.000000000000000000, 0.000000000000000000, 1.000000000000000000 ) ) ;
#154 = ORIENTED_EDGE ( 'NONE', *, *, #286, .T. ) ;
#155 = CARTESIAN_POINT ( 'NONE',  ( -12.89421588159395959, 10.61846567994943413, -4.999999999999997335 ) ) ;
#156 =( NAMED_UNIT ( * ) SI_UNIT ( $, .STERADIAN. ) SOLID_ANGLE_UNIT ( ) );
#157 = VECTOR ( 'NONE', #728, 1000.000000000000000 ) ;
#158 = AXIS2_PLACEMENT_3D ( 'NONE', #344, #473, #273 ) ;
#159 = VERTEX_POINT ( 'NONE', #642 ) ;
#160 = CARTESIAN_POINT ( 'NONE',  ( -0.2499999999999985290, -0.7030344275608165772, 2.000000000000000000 ) ) ;
#161 = EDGE_CURVE ( 'NONE', #217, #497, #38, .T. ) ;
#162 = ORIENTED_EDGE ( 'NONE', *, *, #505, .T. ) ;
#163 = DIRECTION ( 'NONE',  ( -0.000000000000000000, -0.000000000000000000, -1.000000000000000000 ) ) ;
#164 = ORIENTED_EDGE ( 'NONE', *, *, #215, .F. ) ;
#165 = CYLINDRICAL_SURFACE ( 'NONE', #31, 2.550000000000000266 ) ;
#166 = VERTEX_POINT ( 'NONE', #107 ) ;
#167 = EDGE_CURVE ( 'NONE', #217, #859, #194, .T. ) ;
#168 = DIRECTION ( 'NONE',  ( -0.000000000000000000, -0.000000000000000000, -1.000000000000000000 ) ) ;
#169 = AXIS2_PLACEMENT_3D ( 'NONE', #470, #563, #220 ) ;
#170 = AXIS2_PLACEMENT_3D ( 'NONE', #422, #89, #22 ) ;
#171 = ADVANCED_FACE ( 'NONE', ( #277, #734, #549, #805, #818, #606 ), #601, .F. ) ;
#172 = CARTESIAN_POINT ( 'NONE',  ( -13.30000000000000604, 13.99999999999982236, -36.30000000000000426 ) ) ;
#173 = EDGE_LOOP ( 'NONE', ( #525, #767, #278, #223 ) ) ;
#174 = DIRECTION ( 'NONE',  ( -1.000000000000000000, 0.000000000000000000, 0.000000000000000000 ) ) ;
#175 = PRODUCT_RELATED_PRODUCT_CATEGORY ( 'part', '', ( #800 ) ) ;
#176 = CARTESIAN_POINT ( 'NONE',  ( 12.89421588159395782, 10.61846567994943058, -2.071067811865474617 ) ) ;
#177 = EDGE_LOOP ( 'NONE', ( #506, #503, #405, #377 ) ) ;
#178 = PLANE ( 'NONE',  #16 ) ;
#179 = FACE_OUTER_BOUND ( 'NONE', #414, .T. ) ;
#180 = CARTESIAN_POINT ( 'NONE',  ( -8.000000000000000000, -11.00000000000011013, 0.000000000000000000 ) ) ;
#181 = ORIENTED_EDGE ( 'NONE', *, *, #702, .T. ) ;
#182 = DIRECTION ( 'NONE',  ( 0.000000000000000000, 0.000000000000000000, 1.000000000000000000 ) ) ;
#183 = CIRCLE ( 'NONE', #169, 1.249999999999999334 ) ;
#184 = DIRECTION ( 'NONE',  ( 0.000000000000000000, 0.000000000000000000, 1.000000000000000000 ) ) ;
#185 = ORIENTED_EDGE ( 'NONE', *, *, #33, .T. ) ;
#186 = CARTESIAN_POINT ( 'NONE',  ( 0.000000000000000000, 13.99999999999982236, -21.15000000000000568 ) ) ;
#187 = EDGE_CURVE ( 'NONE', #189, #561, #337, .T. ) ;
#188 = FACE_OUTER_BOUND ( 'NONE', #598, .T. ) ;
#189 = VERTEX_POINT ( 'NONE', #467 ) ;
#190 = DIRECTION ( 'NONE',  ( -0.9928768384869219865, 0.1191452206184310109, 0.000000000000000000 ) ) ;
#191 = CARTESIAN_POINT ( 'NONE',  ( -8.153200337090993344E-14, -19.00000000000011369, 2.000000000000000000 ) ) ;
#192 = ORIENTED_EDGE ( 'NONE', *, *, #315, .T. ) ;
#193 = DIRECTION ( 'NONE',  ( -0.000000000000000000, -0.000000000000000000, -1.000000000000000000 ) ) ;
#194 = CIRCLE ( 'NONE', #821, 10.30000000000000604 ) ;
#195 = VECTOR ( 'NONE', #284, 1000.000000000000000 ) ;
#196 = ADVANCED_FACE ( 'NONE', ( #662 ), #143, .F. ) ;
#197 = DIRECTION ( 'NONE',  ( 0.000000000000000000, 0.000000000000000000, 1.000000000000000000 ) ) ;
#198 = CIRCLE ( 'NONE', #243, 2.550000000000000266 ) ;
#199 = ORIENTED_EDGE ( 'NONE', *, *, #490, .T. ) ;
#200 = CARTESIAN_POINT ( 'NONE',  ( -8.000000000000000000, -11.00000000000011013, 0.000000000000000000 ) ) ;
#201 = CARTESIAN_POINT ( 'NONE',  ( 0.000000000000000000, 13.99999999999982236, -18.60000000000000497 ) ) ;
#202 = CARTESIAN_POINT ( 'NONE',  ( -6.750000000000000000, -11.00000000000011013, 0.000000000000000000 ) ) ;
#203 = EDGE_CURVE ( 'NONE', #753, #365, #609, .T. ) ;
#204 = ORIENTED_EDGE ( 'NONE', *, *, #673, .F. ) ;
#205 = CARTESIAN_POINT ( 'NONE',  ( -13.30000000000000604, 13.99999999999982236, 4.000000000000000000 ) ) ;
#206 = CYLINDRICAL_SURFACE ( 'NONE', #564, 10.30000000000000604 ) ;
#207 = VERTEX_POINT ( 'NONE', #130 ) ;
#208 = CARTESIAN_POINT ( 'NONE',  ( 0.000000000000000000, 13.99999999999982236, -8.599999999999996092 ) ) ;
#209 = PRESENTATION_STYLE_ASSIGNMENT (( #674 ) ) ;
#210 = PRESENTATION_LAYER_ASSIGNMENT (  '', '', ( #115 ) ) ;
#211 = ORIENTED_EDGE ( 'NONE', *, *, #125, .T. ) ;
#212 = AXIS2_PLACEMENT_3D ( 'NONE', #809, #672, #615 ) ;
#213 = DIRECTION ( 'NONE',  ( 1.000000000000000000, 0.000000000000000000, 0.000000000000000000 ) ) ;
#214 = LINE ( 'NONE', #678, #116 ) ;
#215 = EDGE_CURVE ( 'NONE', #217, #680, #536, .T. ) ;
#216 = DIRECTION ( 'NONE',  ( 1.000000000000000000, 0.000000000000000000, 0.000000000000000000 ) ) ;
#217 = VERTEX_POINT ( 'NONE', #801 ) ;
#218 = CARTESIAN_POINT ( 'NONE',  ( 2.775557561562891351E-14, -3.000000000000110134, 4.000000000000000000 ) ) ;
#219 = EDGE_LOOP ( 'NONE', ( #320, #232, #769, #380 ) ) ;
#220 = DIRECTION ( 'NONE',  ( 1.000000000000000000, 0.000000000000000000, 0.000000000000000000 ) ) ;
#221 = VERTEX_POINT ( 'NONE', #274 ) ;
#222 = DIRECTION ( 'NONE',  ( -0.000000000000000000, 1.000000000000000000, -0.000000000000000000 ) ) ;
#223 = ORIENTED_EDGE ( 'NONE', *, *, #648, .F. ) ;
#224 = EDGE_CURVE ( 'NONE', #753, #699, #398, .T. ) ;
#225 = EDGE_LOOP ( 'NONE', ( #313, #204, #152, #433 ) ) ;
#226 = DIRECTION ( 'NONE',  ( 1.000000000000000000, 8.707301330873870946E-14, 0.000000000000000000 ) ) ;
#227 = AXIS2_PLACEMENT_3D ( 'NONE', #121, #803, #314 ) ;
#228 = VECTOR ( 'NONE', #690, 1000.000000000000000 ) ;
#229 = DIRECTION ( 'NONE',  ( 0.000000000000000000, 0.000000000000000000, -1.000000000000000000 ) ) ;
#230 = VERTEX_POINT ( 'NONE', #63 ) ;
#231 = FACE_OUTER_BOUND ( 'NONE', #2, .T. ) ;
#232 = ORIENTED_EDGE ( 'NONE', *, *, #696, .T. ) ;
#233 = ORIENTED_EDGE ( 'NONE', *, *, #109, .T. ) ;
#234 = CYLINDRICAL_SURFACE ( 'NONE', #515, 1.249999999999999778 ) ;
#235 = ORIENTED_EDGE ( 'NONE', *, *, #541, .T. ) ;
#236 = EDGE_CURVE ( 'NONE', #363, #360, #281, .T. ) ;
#237 = DIRECTION ( 'NONE',  ( -0.000000000000000000, -0.000000000000000000, -1.000000000000000000 ) ) ;
#238 = LINE ( 'NONE', #429, #849 ) ;
#239 = ORIENTED_EDGE ( 'NONE', *, *, #286, .F. ) ;
#240 = CIRCLE ( 'NONE', #651, 1.249999999999999334 ) ;
#241 = DIRECTION ( 'NONE',  ( 0.000000000000000000, 0.000000000000000000, 1.000000000000000000 ) ) ;
#242 = CIRCLE ( 'NONE', #653, 10.30000000000000604 ) ;
#243 = AXIS2_PLACEMENT_3D ( 'NONE', #625, #758, #419 ) ;
#244 = EDGE_CURVE ( 'NONE', #343, #812, #539, .T. ) ;
#245 = CARTESIAN_POINT ( 'NONE',  ( 12.64568774417010033, 8.547397868083960404, 5.387069660668501490E-16 ) ) ;
#246 = DIRECTION ( 'NONE',  ( 0.000000000000000000, 0.000000000000000000, 1.000000000000000000 ) ) ;
#247 = VERTEX_POINT ( 'NONE', #670 ) ;
#248 = FACE_OUTER_BOUND ( 'NONE', #654, .T. ) ;
#249 = DIRECTION ( 'NONE',  ( -0.000000000000000000, -0.000000000000000000, -1.000000000000000000 ) ) ;
#250 = CARTESIAN_POINT ( 'NONE',  ( -11.68114354174297453, 0.5095295145245635204, 0.000000000000000000 ) ) ;
#251 = VERTEX_POINT ( 'NONE', #202 ) ;
#252 = DIRECTION ( 'NONE',  ( 0.000000000000000000, 0.000000000000000000, 1.000000000000000000 ) ) ;
#253 = CARTESIAN_POINT ( 'NONE',  ( 0.000000000000000000, -11.00000000000011013, 2.000000000000000000 ) ) ;
#254 = ADVANCED_FACE ( 'NONE', ( #334 ), #475, .F. ) ;
#255 = ORIENTED_EDGE ( 'NONE', *, *, #97, .F. ) ;
#256 = DIRECTION ( 'NONE',  ( 0.000000000000000000, 0.000000000000000000, 1.000000000000000000 ) ) ;
#257 = VECTOR ( 'NONE', #538, 1000.000000000000000 ) ;
#258 = PLANE ( 'NONE',  #604 ) ;
#259 = ORIENTED_EDGE ( 'NONE', *, *, #83, .F. ) ;
#260 = DIRECTION ( 'NONE',  ( 0.000000000000000000, 0.000000000000000000, -1.000000000000000000 ) ) ;
#261 = DIRECTION ( 'NONE',  ( 1.000000000000000000, 0.000000000000000000, -0.000000000000000000 ) ) ;
#262 = ORIENTED_EDGE ( 'NONE', *, *, #304, .T. ) ;
#263 = FACE_OUTER_BOUND ( 'NONE', #864, .T. ) ;
#264 = MANIFOLD_SOLID_BREP ( 'Fillet1', #129 ) ;
#265 = CARTESIAN_POINT ( 'NONE',  ( -13.30000000000000604, 13.99999999999982236, 4.000000000000000000 ) ) ;
#266 = EDGE_LOOP ( 'NONE', ( #771, #815, #789, #446 ) ) ;
#267 = LINE ( 'NONE', #483, #323 ) ;
#268 = EDGE_CURVE ( 'NONE', #230, #660, #392, .T. ) ;
#269 = CIRCLE ( 'NONE', #706, 1.250000000000001332 ) ;
#270 = CIRCLE ( 'NONE', #778, 2.550000000000000266 ) ;
#271 = DIRECTION ( 'NONE',  ( 0.1191452206184306778, -0.9928768384869219865, 0.000000000000000000 ) ) ;
#272 = EDGE_LOOP ( 'NONE', ( #428, #871, #26, #164 ) ) ;
#273 = DIRECTION ( 'NONE',  ( 0.000000000000000000, 0.000000000000000000, 1.000000000000000000 ) ) ;
#274 = CARTESIAN_POINT ( 'NONE',  ( 1.249999999999919620, -19.00000000000011369, 0.000000000000000000 ) ) ;
#275 = ORIENTED_EDGE ( 'NONE', *, *, #853, .T. ) ;
#276 = LINE ( 'NONE', #547, #352 ) ;
#277 = FACE_OUTER_BOUND ( 'NONE', #110, .T. ) ;
#278 = ORIENTED_EDGE ( 'NONE', *, *, #799, .T. ) ;
#279 = EDGE_CURVE ( 'NONE', #288, #123, #183, .T. ) ;
#280 = CARTESIAN_POINT ( 'NONE',  ( -0.2499999999999995837, -0.7030344275608165772, 0.000000000000000000 ) ) ;
#281 = CIRCLE ( 'NONE', #512, 1.249999999999999778 ) ;
#282 = ORIENTED_EDGE ( 'NONE', *, *, #628, .T. ) ;
#283 = AXIS2_PLACEMENT_3D ( 'NONE', #721, #117, #822 ) ;
#284 = DIRECTION ( 'NONE',  ( -1.000000000000000000, -0.000000000000000000, -0.000000000000000000 ) ) ;
#285 = VECTOR ( 'NONE', #20, 1000.000000000000000 ) ;
#286 = EDGE_CURVE ( 'NONE', #221, #247, #408, .T. ) ;
#287 = DIRECTION ( 'NONE',  ( 0.000000000000000000, -0.000000000000000000, 1.000000000000000000 ) ) ;
#288 = VERTEX_POINT ( 'NONE', #623 ) ;
#289 = DIRECTION ( 'NONE',  ( -1.000000000000000000, 0.000000000000000000, 0.000000000000000000 ) ) ;
#290 = ORIENTED_EDGE ( 'NONE', *, *, #78, .T. ) ;
#291 = ADVANCED_FACE ( 'NONE', ( #837 ), #629, .F. ) ;
#292 = CARTESIAN_POINT ( 'NONE',  ( -12.29421588159396350, 5.618465679949435021, 0.000000000000000000 ) ) ;
#293 = DIRECTION ( 'NONE',  ( -0.000000000000000000, -0.000000000000000000, -1.000000000000000000 ) ) ;
#294 = ORIENTED_EDGE ( 'NONE', *, *, #236, .F. ) ;
#295 = EDGE_CURVE ( 'NONE', #288, #812, #25, .T. ) ;
#296 = LINE ( 'NONE', #149, #478 ) ;
#297 = ORIENTED_EDGE ( 'NONE', *, *, #74, .T. ) ;
#298 = DIRECTION ( 'NONE',  ( 0.000000000000000000, 0.000000000000000000, 1.000000000000000000 ) ) ;
#299 = COLOUR_RGB ( '',0.7921568627450980005, 0.8196078431372548767, 0.9333333333333333481 ) ;
#300 = VECTOR ( 'NONE', #580, 1000.000000000000114 ) ;
#301 = DIRECTION ( 'NONE',  ( 1.000000000000000000, -0.000000000000000000, -0.000000000000000000 ) ) ;
#302 = ORIENTED_EDGE ( 'NONE', *, *, #14, .F. ) ;
#303 = CARTESIAN_POINT ( 'NONE',  ( 13.30000000000000604, 13.99999999999982236, 4.000000000000000000 ) ) ;
#304 = EDGE_CURVE ( 'NONE', #67, #360, #752, .T. ) ;
#305 = DIRECTION ( 'NONE',  ( -1.000000000000000000, 0.000000000000000000, 0.000000000000000000 ) ) ;
#306 = APPLICATION_PROTOCOL_DEFINITION ( 'draft international standard', 'automotive_design', 1998, #106 ) ;
#307 = DIRECTION ( 'NONE',  ( -0.000000000000000000, -0.000000000000000000, 1.000000000000000000 ) ) ;
#308 = ORIENTED_EDGE ( 'NONE', *, *, #372, .T. ) ;
#309 = FACE_OUTER_BOUND ( 'NONE', #266, .T. ) ;
#310 = AXIS2_PLACEMENT_3D ( 'NONE', #68, #415, #872 ) ;
#311 = AXIS2_PLACEMENT_3D ( 'NONE', #621, #436, #643 ) ;
#312 = DIRECTION ( 'NONE',  ( 0.1191452206184310109, 0.9928768384869219865, -0.000000000000000000 ) ) ;
#313 = ORIENTED_EDGE ( 'NONE', *, *, #136, .F. ) ;
#314 = DIRECTION ( 'NONE',  ( 0.000000000000000000, 0.000000000000000000, 1.000000000000000000 ) ) ;
#315 = EDGE_CURVE ( 'NONE', #566, #699, #296, .T. ) ;
#316 = LINE ( 'NONE', #444, #765 ) ;
#317 = ORIENTED_EDGE ( 'NONE', *, *, #112, .T. ) ;
#318 = DIRECTION ( 'NONE',  ( -0.1191452206184310109, -0.9928768384869219865, 0.000000000000000000 ) ) ;
#319 = DIRECTION ( 'NONE',  ( -1.000000000000000000, -0.000000000000000000, -0.000000000000000000 ) ) ;
#320 = ORIENTED_EDGE ( 'NONE', *, *, #203, .T. ) ;
#321 = CARTESIAN_POINT ( 'NONE',  ( -8.153200337090993344E-14, -19.00000000000011369, 4.000000000000000000 ) ) ;
#322 = AXIS2_PLACEMENT_3D ( 'NONE', #524, #184, #388 ) ;
#323 = VECTOR ( 'NONE', #817, 1000.000000000000000 ) ;
#324 = FILL_AREA_STYLE_COLOUR ( '', #299 ) ;
#325 = ORIENTED_EDGE ( 'NONE', *, *, #39, .F. ) ;
#326 = ADVANCED_FACE ( 'NONE', ( #413 ), #568, .F. ) ;
#327 = DIRECTION ( 'NONE',  ( 1.000000000000000000, 0.000000000000000000, 0.000000000000000000 ) ) ;
#328 = CARTESIAN_POINT ( 'NONE',  ( 0.000000000000000000, -11.00000000000011013, 0.000000000000000000 ) ) ;
#329 = EDGE_LOOP ( 'NONE', ( #736, #290, #522, #239 ) ) ;
#330 = LINE ( 'NONE', #76, #465 ) ;
#331 = PRODUCT_DEFINITION_SHAPE ( 'NONE', 'NONE',  #633 ) ;
#332 = ADVANCED_FACE ( 'NONE', ( #416, #431, #688 ), #703, .F. ) ;
#333 = LINE ( 'NONE', #371, #618 ) ;
#334 = FACE_OUTER_BOUND ( 'NONE', #537, .T. ) ;
#335 = EDGE_LOOP ( 'NONE', ( #784, #367 ) ) ;
#336 = PLANE ( 'NONE',  #310 ) ;
#337 = CIRCLE ( 'NONE', #421, 1.249999999999999334 ) ;
#338 = AXIS2_PLACEMENT_3D ( 'NONE', #218, #151, #137 ) ;
#339 = VERTEX_POINT ( 'NONE', #366 ) ;
#340 = CARTESIAN_POINT ( 'NONE',  ( 2.775557561562891351E-14, -3.000000000000110134, 2.000000000000000000 ) ) ;
#341 = EDGE_CURVE ( 'NONE', #828, #339, #635, .T. ) ;
#342 = DIRECTION ( 'NONE',  ( -0.000000000000000000, -0.000000000000000000, -1.000000000000000000 ) ) ;
#343 = VERTEX_POINT ( 'NONE', #557 ) ;
#344 = CARTESIAN_POINT ( 'NONE',  ( 0.000000000000000000, 3.999999999999821476, -11.14999999999999680 ) ) ;
#345 = CARTESIAN_POINT ( 'NONE',  ( 12.89421588159395782, 5.618465679949434133, 0.000000000000000000 ) ) ;
#346 = ADVANCED_FACE ( 'NONE', ( #9, #485, #756, #81, #619 ), #760, .T. ) ;
#347 = ORIENTED_EDGE ( 'NONE', *, *, #1, .T. ) ;
#348 = CARTESIAN_POINT ( 'NONE',  ( 10.30000000000000604, -11.00000000000018119, 27.03014329091337586 ) ) ;
#349 = DIRECTION ( 'NONE',  ( -0.000000000000000000, -0.000000000000000000, -1.000000000000000000 ) ) ;
#350 = VECTOR ( 'NONE', #850, 1000.000000000000000 ) ;
#351 = DIRECTION ( 'NONE',  ( 0.000000000000000000, -1.000000000000000000, 0.000000000000000000 ) ) ;
#352 = VECTOR ( 'NONE', #877, 1000.000000000000000 ) ;
#353 = ORIENTED_EDGE ( 'NONE', *, *, #295, .F. ) ;
#354 = VECTOR ( 'NONE', #825, 1000.000000000000000 ) ;
#355 = DIRECTION ( 'NONE',  ( 0.000000000000000000, 0.000000000000000000, 1.000000000000000000 ) ) ;
#356 = EDGE_CURVE ( 'NONE', #500, #87, #333, .T. ) ;
#357 = ORIENTED_EDGE ( 'NONE', *, *, #793, .F. ) ;
#358 = DIRECTION ( 'NONE',  ( -0.000000000000000000, 1.000000000000000000, -0.000000000000000000 ) ) ;
#359 = DIRECTION ( 'NONE',  ( 0.000000000000000000, 1.000000000000000000, 0.000000000000000000 ) ) ;
#360 = VERTEX_POINT ( 'NONE', #37 ) ;
#361 = DIRECTION ( 'NONE',  ( 0.000000000000000000, 0.000000000000000000, 1.000000000000000000 ) ) ;
#362 = DIRECTION ( 'NONE',  ( 1.000000000000000000, 0.000000000000000000, 0.000000000000000000 ) ) ;
#363 = VERTEX_POINT ( 'NONE', #441 ) ;
#364 = DIRECTION ( 'NONE',  ( 1.000000000000000000, 0.000000000000000000, 0.000000000000000000 ) ) ;
#365 = VERTEX_POINT ( 'NONE', #50 ) ;
#366 = CARTESIAN_POINT ( 'NONE',  ( 12.29421588159396173, 5.618465679949438574, 0.000000000000000000 ) ) ;
#367 = ORIENTED_EDGE ( 'NONE', *, *, #575, .T. ) ;
#368 = CIRCLE ( 'NONE', #513, 1.249999999999999778 ) ;
#369 = EDGE_LOOP ( 'NONE', ( #492, #28 ) ) ;
#370 = CIRCLE ( 'NONE', #397, 2.550000000000000266 ) ;
#371 = CARTESIAN_POINT ( 'NONE',  ( 3.122849337825750419E-16, 3.999999999999821476, -23.70000000000000639 ) ) ;
#372 = EDGE_CURVE ( 'NONE', #875, #500, #665, .T. ) ;
#373 = CARTESIAN_POINT ( 'NONE',  ( 13.30000000000000604, 13.99999999999982236, 4.000000000000000000 ) ) ;
#374 = CARTESIAN_POINT ( 'NONE',  ( 0.000000000000000000, 10.61846567994943413, -21.15000000000000568 ) ) ;
#375 = EDGE_LOOP ( 'NONE', ( #747, #140 ) ) ;
#376 = DIRECTION ( 'NONE',  ( -0.000000000000000000, -0.000000000000000000, -1.000000000000000000 ) ) ;
#377 = ORIENTED_EDGE ( 'NONE', *, *, #21, .T. ) ;
#378 = DIRECTION ( 'NONE',  ( 0.000000000000000000, 1.000000000000000000, 0.000000000000000000 ) ) ;
#379 = DIRECTION ( 'NONE',  ( 0.000000000000000000, -1.000000000000000000, 0.000000000000000000 ) ) ;
#380 = ORIENTED_EDGE ( 'NONE', *, *, #826, .T. ) ;
#381 = PLANE ( 'NONE',  #750 ) ;
#382 = ADVANCED_FACE ( 'NONE', ( #711 ), #848, .F. ) ;
#383 = AXIS2_PLACEMENT_3D ( 'NONE', #827, #222, #298 ) ;
#384 = CARTESIAN_POINT ( 'NONE',  ( 0.2500000000000000000, -0.9000000000001110445, 0.000000000000000000 ) ) ;
#385 = ORIENTED_EDGE ( 'NONE', *, *, #74, .F. ) ;
#386 = CARTESIAN_POINT ( 'NONE',  ( -9.250000000000000000, -11.00000000000011013, 4.000000000000000000 ) ) ;
#387 = ADVANCED_FACE ( 'NONE', ( #179 ), #448, .F. ) ;
#388 = DIRECTION ( 'NONE',  ( 1.000000000000000000, 0.000000000000000000, 0.000000000000000000 ) ) ;
#389 = ORIENTED_EDGE ( 'NONE', *, *, #505, .F. ) ;
#390 = DIRECTION ( 'NONE',  ( -1.000000000000000000, 0.000000000000000000, 0.000000000000000000 ) ) ;
#391 = ADVANCED_FACE ( 'NONE', ( #4 ), #206, .F. ) ;
#392 = LINE ( 'NONE', #427, #562 ) ;
#393 = ORIENTED_EDGE ( 'NONE', *, *, #457, .F. ) ;
#394 = DIRECTION ( 'NONE',  ( -0.000000000000000000, -0.000000000000000000, -1.000000000000000000 ) ) ;
#395 = AXIS2_PLACEMENT_3D ( 'NONE', #491, #32, #287 ) ;
#396 = VECTOR ( 'NONE', #726, 1000.000000000000000 ) ;
#397 = AXIS2_PLACEMENT_3D ( 'NONE', #374, #359, #153 ) ;
#398 = LINE ( 'NONE', #666, #634 ) ;
#399 = ORIENTED_EDGE ( 'NONE', *, *, #434, .F. ) ;
#400 = DIRECTION ( 'NONE',  ( 1.000000000000000000, 0.000000000000000000, 0.000000000000000000 ) ) ;
#401 = DIRECTION ( 'NONE',  ( 0.000000000000000000, 0.000000000000000000, 1.000000000000000000 ) ) ;
#402 = ORIENTED_EDGE ( 'NONE', *, *, #97, .T. ) ;
#403 = LINE ( 'NONE', #669, #453 ) ;
#404 = SURFACE_SIDE_STYLE ('',( #139 ) ) ;
#405 = ORIENTED_EDGE ( 'NONE', *, *, #683, .F. ) ;
#406 = CYLINDRICAL_SURFACE ( 'NONE', #638, 1.249999999999999778 ) ;
#407 = EDGE_CURVE ( 'NONE', #34, #774, #214, .T. ) ;
#408 = CIRCLE ( 'NONE', #777, 1.250000000000001110 ) ;
#409 = CIRCLE ( 'NONE', #578, 1.250000000000001110 ) ;
#410 = DIRECTION ( 'NONE',  ( -0.000000000000000000, -0.000000000000000000, -1.000000000000000000 ) ) ;
#411 = ORIENTED_EDGE ( 'NONE', *, *, #644, .F. ) ;
#412 = DIRECTION ( 'NONE',  ( -0.000000000000000000, -0.000000000000000000, 1.000000000000000000 ) ) ;
#413 = FACE_OUTER_BOUND ( 'NONE', #591, .T. ) ;
#414 = EDGE_LOOP ( 'NONE', ( #353, #64, #611, #393 ) ) ;
#415 = DIRECTION ( 'NONE',  ( 1.000000000000000000, 0.000000000000000000, 0.000000000000000000 ) ) ;
#416 = FACE_BOUND ( 'NONE', #82, .T. ) ;
#417 = ADVANCED_FACE ( 'NONE', ( #147 ), #755, .F. ) ;
#418 = VERTEX_POINT ( 'NONE', #201 ) ;
#419 = DIRECTION ( 'NONE',  ( 0.000000000000000000, 0.000000000000000000, -1.000000000000000000 ) ) ;
#420 = VERTEX_POINT ( 'NONE', #138 ) ;
#421 = AXIS2_PLACEMENT_3D ( 'NONE', #704, #597, #58 ) ;
#422 = CARTESIAN_POINT ( 'NONE',  ( 0.000000000000000000, -11.00000000000011013, 4.000000000000000000 ) ) ;
#423 = CIRCLE ( 'NONE', #554, 2.550000000000000266 ) ;
#424 = EDGE_LOOP ( 'NONE', ( #709, #794, #836, #185, #759, #55, #741 ) ) ;
#425 = EDGE_CURVE ( 'NONE', #6, #221, #77, .T. ) ;
#426 = ORIENTED_EDGE ( 'NONE', *, *, #853, .F. ) ;
#427 = CARTESIAN_POINT ( 'NONE',  ( 0.000000000000000000, 3.999999999999821476, -8.599999999999996092 ) ) ;
#428 = ORIENTED_EDGE ( 'NONE', *, *, #167, .T. ) ;
#429 = CARTESIAN_POINT ( 'NONE',  ( -9.250000000000000000, -11.00000000000011013, 2.000000000000000000 ) ) ;
#430 = ORIENTED_EDGE ( 'NONE', *, *, #304, .F. ) ;
#431 = FACE_BOUND ( 'NONE', #335, .T. ) ;
#432 = ORIENTED_EDGE ( 'NONE', *, *, #799, .F. ) ;
#433 = ORIENTED_EDGE ( 'NONE', *, *, #407, .F. ) ;
#434 = EDGE_CURVE ( 'NONE', #230, #145, #270, .T. ) ;
#435 = CARTESIAN_POINT ( 'NONE',  ( 3.122849337825750419E-16, 3.999999999999821476, -13.69999999999999751 ) ) ;
#436 = DIRECTION ( 'NONE',  ( 0.000000000000000000, 0.000000000000000000, 1.000000000000000000 ) ) ;
#437 = AXIS2_PLACEMENT_3D ( 'NONE', #786, #854, #717 ) ;
#438 = ORIENTED_EDGE ( 'NONE', *, *, #673, .T. ) ;
#439 = DIRECTION ( 'NONE',  ( -0.000000000000000000, -0.000000000000000000, -1.000000000000000000 ) ) ;
#440 = EDGE_CURVE ( 'NONE', #87, #418, #479, .T. ) ;
#441 = CARTESIAN_POINT ( 'NONE',  ( 1.250000000000027534, -3.000000000000110134, 0.000000000000000000 ) ) ;
#442 = CARTESIAN_POINT ( 'NONE',  ( 6.749999999999999112, -11.00000000000016165, 4.000000000000000000 ) ) ;
#443 = ORIENTED_EDGE ( 'NONE', *, *, #356, .F. ) ;
#444 = CARTESIAN_POINT ( 'NONE',  ( -10.30000000000000604, -11.00000000000011013, 27.03014329091337586 ) ) ;
#445 = EDGE_CURVE ( 'NONE', #247, #221, #409, .T. ) ;
#446 = ORIENTED_EDGE ( 'NONE', *, *, #268, .F. ) ;
#447 = CARTESIAN_POINT ( 'NONE',  ( 13.30000000000000604, 13.99999999999982236, -36.30000000000000426 ) ) ;
#448 = CYLINDRICAL_SURFACE ( 'NONE', #283, 1.249999999999999334 ) ;
#449 = CARTESIAN_POINT ( 'NONE',  ( -1.249999999999972244, -3.000000000000110134, 4.000000000000000000 ) ) ;
#450 = EDGE_LOOP ( 'NONE', ( #297, #772 ) ) ;
#451 =( GEOMETRIC_REPRESENTATION_CONTEXT ( 3 ) GLOBAL_UNCERTAINTY_ASSIGNED_CONTEXT ( ( #502 ) ) GLOBAL_UNIT_ASSIGNED_CONTEXT ( ( #126, #545, #746 ) ) REPRESENTATION_CONTEXT ( 'NONE', 'WORKASPACE' ) );
#452 = LINE ( 'NONE', #795, #396 ) ;
#453 = VECTOR ( 'NONE', #412, 1000.000000000000000 ) ;
#454 = CARTESIAN_POINT ( 'NONE',  ( 12.29421588159396173, 5.618465679949438574, 0.000000000000000000 ) ) ;
#455 = EDGE_LOOP ( 'NONE', ( #543, #867 ) ) ;
#456 = CARTESIAN_POINT ( 'NONE',  ( 3.122849337825749926E-16, 10.61846567994943413, -23.70000000000000639 ) ) ;
#457 = EDGE_CURVE ( 'NONE', #812, #343, #766, .T. ) ;
#458 = FACE_OUTER_BOUND ( 'NONE', #744, .T. ) ;
#459 = ORIENTED_EDGE ( 'NONE', *, *, #236, .T. ) ;
#460 = CARTESIAN_POINT ( 'NONE',  ( 0.000000000000000000, -11.00000000000011013, 2.000000000000000000 ) ) ;
#461 = DIRECTION ( 'NONE',  ( -0.000000000000000000, -0.000000000000000000, -1.000000000000000000 ) ) ;
#462 = ORIENTED_EDGE ( 'NONE', *, *, #600, .T. ) ;
#463 = CARTESIAN_POINT ( 'NONE',  ( -1.250000000000082823, -19.00000000000011369, 4.000000000000000000 ) ) ;
#464 = VECTOR ( 'NONE', #312, 1000.000000000000000 ) ;
#465 = VECTOR ( 'NONE', #141, 1000.000000000000114 ) ;
#466 =( GEOMETRIC_REPRESENTATION_CONTEXT ( 3 ) GLOBAL_UNCERTAINTY_ASSIGNED_CONTEXT ( ( #474 ) ) GLOBAL_UNIT_ASSIGNED_CONTEXT ( ( #27, #40, #156 ) ) REPRESENTATION_CONTEXT ( 'NONE', 'WORKASPACE' ) );
#467 = CARTESIAN_POINT ( 'NONE',  ( -6.750000000000000888, -11.00000000000011013, 4.000000000000000000 ) ) ;
#468 = ORIENTED_EDGE ( 'NONE', *, *, #440, .T. ) ;
#469 = CARTESIAN_POINT ( 'NONE',  ( -0.2500000000000000000, -0.9000000000001110445, 2.000000000000000000 ) ) ;
#470 = CARTESIAN_POINT ( 'NONE',  ( 7.999999999999998224, -11.00000000000016165, 4.000000000000000000 ) ) ;
#471 = ORIENTED_EDGE ( 'NONE', *, *, #793, .T. ) ;
#472 = EDGE_CURVE ( 'NONE', #418, #87, #59, .T. ) ;
#473 = DIRECTION ( 'NONE',  ( -0.000000000000000000, 1.000000000000000000, -0.000000000000000000 ) ) ;
#474 = UNCERTAINTY_MEASURE_WITH_UNIT (LENGTH_MEASURE( 1.000000000000000082E-05 ), #27, 'distance_accuracy_value', 'NONE');
#475 = CYLINDRICAL_SURFACE ( 'NONE', #70, 1.250000000000001110 ) ;
#476 = ORIENTED_EDGE ( 'NONE', *, *, #148, .F. ) ;
#477 = CARTESIAN_POINT ( 'NONE',  ( -0.2500000000000000000, -0.9000000000001110445, 2.000000000000000000 ) ) ;
#478 = VECTOR ( 'NONE', #833, 1000.000000000000000 ) ;
#479 = CIRCLE ( 'NONE', #823, 2.550000000000000266 ) ;
#480 = DIRECTION ( 'NONE',  ( 0.000000000000000000, -0.000000000000000000, -1.000000000000000000 ) ) ;
#481 = ADVANCED_BREP_SHAPE_REPRESENTATION ( '6. Top Motor Mount^Backv2', ( #264, #47 ), #466 ) ;
#482 = ORIENTED_EDGE ( 'NONE', *, *, #683, .T. ) ;
#483 = CARTESIAN_POINT ( 'NONE',  ( 0.2500000000000000000, -0.9000000000001110445, 0.000000000000000000 ) ) ;
#484 = ADVANCED_FACE ( 'NONE', ( #592 ), #790, .F. ) ;
#485 = FACE_BOUND ( 'NONE', #626, .T. ) ;
#486 = ORIENTED_EDGE ( 'NONE', *, *, #727, .F. ) ;
#487 = FACE_OUTER_BOUND ( 'NONE', #424, .T. ) ;
#488 = ORIENTED_EDGE ( 'NONE', *, *, #516, .F. ) ;
#489 = DIRECTION ( 'NONE',  ( -0.000000000000000000, -0.000000000000000000, 1.000000000000000000 ) ) ;
#490 = EDGE_CURVE ( 'NONE', #663, #34, #655, .T. ) ;
#491 = CARTESIAN_POINT ( 'NONE',  ( 12.89421588159395782, 10.61846567994943413, -63.11407791361992281 ) ) ;
#492 = ORIENTED_EDGE ( 'NONE', *, *, #600, .F. ) ;
#493 = CARTESIAN_POINT ( 'NONE',  ( 2.775557561562891351E-14, -3.000000000000110134, 4.000000000000000000 ) ) ;
#494 = EDGE_LOOP ( 'NONE', ( #757, #685, #385, #432 ) ) ;
#495 = VECTOR ( 'NONE', #271, 1000.000000000000227 ) ;
#496 = CIRCLE ( 'NONE', #338, 1.250000000000000000 ) ;
#497 = VERTEX_POINT ( 'NONE', #860 ) ;
#498 = CYLINDRICAL_SURFACE ( 'NONE', #383, 2.550000000000000266 ) ;
#499 =( BOUNDED_CURVE ( )  B_SPLINE_CURVE ( 3, ( #454, #245, #176, #589 ),
 .UNSPECIFIED., .F., .T. ) 
 B_SPLINE_CURVE_WITH_KNOTS ( ( 4, 4 ),
 ( 4.712388980384690562, 6.283185307179586232 ),
 .UNSPECIFIED. ) 
 CURVE ( )  GEOMETRIC_REPRESENTATION_ITEM ( )  RATIONAL_B_SPLINE_CURVE ( ( 1.000000000000000000, 0.8047378541243652705, 0.8047378541243652705, 1.000000000000000000 ) ) 
 REPRESENTATION_ITEM ( '' )  );
#500 = VERTEX_POINT ( 'NONE', #456 ) ;
#501 = CARTESIAN_POINT ( 'NONE',  ( -8.153200337090993344E-14, -19.00000000000011369, 0.000000000000000000 ) ) ;
#502 = UNCERTAINTY_MEASURE_WITH_UNIT (LENGTH_MEASURE( 1.000000000000000082E-05 ), #126, 'distance_accuracy_value', 'NONE');
#503 = ORIENTED_EDGE ( 'NONE', *, *, #490, .F. ) ;
#504 = DIRECTION ( 'NONE',  ( -0.000000000000000000, 1.000000000000000000, -0.000000000000000000 ) ) ;
#505 = EDGE_CURVE ( 'NONE', #660, #150, #423, .T. ) ;
#506 = ORIENTED_EDGE ( 'NONE', *, *, #136, .T. ) ;
#507 = VERTEX_POINT ( 'NONE', #44 ) ;
#508 = CARTESIAN_POINT ( 'NONE',  ( -13.30000000000000604, 13.99999999999982236, 4.000000000000000000 ) ) ;
#509 = ORIENTED_EDGE ( 'NONE', *, *, #751, .T. ) ;
#510 = VECTOR ( 'NONE', #301, 1000.000000000000000 ) ;
#511 = CARTESIAN_POINT ( 'NONE',  ( -13.30000000000000604, 13.99999999999982236, 4.000000000000000000 ) ) ;
#512 = AXIS2_PLACEMENT_3D ( 'NONE', #739, #197, #873 ) ;
#513 = AXIS2_PLACEMENT_3D ( 'NONE', #56, #535, #327 ) ;
#514 = VERTEX_POINT ( 'NONE', #661 ) ;
#515 = AXIS2_PLACEMENT_3D ( 'NONE', #631, #91, #289 ) ;
#516 = EDGE_CURVE ( 'NONE', #607, #247, #519, .T. ) ;
#517 = CARTESIAN_POINT ( 'NONE',  ( 0.2500000000000000000, -0.9000000000001110445, 2.000000000000000000 ) ) ;
#518 = ORIENTED_EDGE ( 'NONE', *, *, #594, .T. ) ;
#519 = LINE ( 'NONE', #531, #30 ) ;
#520 = EDGE_CURVE ( 'NONE', #859, #774, #114, .T. ) ;
#521 = CARTESIAN_POINT ( 'NONE',  ( 3.122849337825749926E-16, 13.99999999999982236, -13.69999999999999751 ) ) ;
#522 = ORIENTED_EDGE ( 'NONE', *, *, #516, .T. ) ;
#523 = DIRECTION ( 'NONE',  ( -1.000000000000000000, 0.000000000000000000, 0.000000000000000000 ) ) ;
#524 = CARTESIAN_POINT ( 'NONE',  ( 0.000000000000000000, -11.00000000000011013, 0.000000000000000000 ) ) ;
#525 = ORIENTED_EDGE ( 'NONE', *, *, #776, .F. ) ;
#526 = AXIS2_PLACEMENT_3D ( 'NONE', #542, #410, #870 ) ;
#527 = CARTESIAN_POINT ( 'NONE',  ( -0.2500000000000000000, -0.7030344275608130244, 2.000000000000000000 ) ) ;
#528 = AXIS2_PLACEMENT_3D ( 'NONE', #41, #249, #174 ) ;
#529 = DIRECTION ( 'NONE',  ( 1.000000000000000000, 0.000000000000000000, 0.000000000000000000 ) ) ;
#530 = EDGE_LOOP ( 'NONE', ( #622, #154 ) ) ;
#531 = CARTESIAN_POINT ( 'NONE',  ( -1.250000000000082601, -19.00000000000011369, 2.000000000000000000 ) ) ;
#532 = EDGE_CURVE ( 'NONE', #132, #566, #650, .T. ) ;
#533 = DIRECTION ( 'NONE',  ( -0.000000000000000000, -0.000000000000000000, -1.000000000000000000 ) ) ;
#534 = ORIENTED_EDGE ( 'NONE', *, *, #668, .T. ) ;
#535 = DIRECTION ( 'NONE',  ( 0.000000000000000000, 0.000000000000000000, 1.000000000000000000 ) ) ;
#536 = LINE ( 'NONE', #814, #144 ) ;
#537 = EDGE_LOOP ( 'NONE', ( #462, #550, #630, #488 ) ) ;
#538 = DIRECTION ( 'NONE',  ( 0.000000000000000000, 0.000000000000000000, -1.000000000000000000 ) ) ;
#539 = CIRCLE ( 'NONE', #861, 1.249999999999999334 ) ;
#540 = VECTOR ( 'NONE', #439, 1000.000000000000000 ) ;
#541 = EDGE_CURVE ( 'NONE', #113, #36, #452, .T. ) ;
#542 = CARTESIAN_POINT ( 'NONE',  ( -8.000000000000000000, -11.00000000000011013, 2.000000000000000000 ) ) ;
#543 = ORIENTED_EDGE ( 'NONE', *, *, #244, .T. ) ;
#544 = DIRECTION ( 'NONE',  ( 0.000000000000000000, 0.000000000000000000, 1.000000000000000000 ) ) ;
#545 =( NAMED_UNIT ( * ) PLANE_ANGLE_UNIT ( ) SI_UNIT ( $, .RADIAN. ) );
#546 = ORIENTED_EDGE ( 'NONE', *, *, #788, .T. ) ;
#547 = CARTESIAN_POINT ( 'NONE',  ( 12.89421588159395782, 10.61846567994943413, -63.11407791361992281 ) ) ;
#548 = DIRECTION ( 'NONE',  ( -0.000000000000000000, 1.000000000000000000, -0.000000000000000000 ) ) ;
#549 = FACE_BOUND ( 'NONE', #450, .T. ) ;
#550 = ORIENTED_EDGE ( 'NONE', *, *, #425, .T. ) ;
#551 = LINE ( 'NONE', #754, #354 ) ;
#552 = ADVANCED_FACE ( 'NONE', ( #263 ), #852, .F. ) ;
#553 = CIRCLE ( 'NONE', #322, 10.30000000000000426 ) ;
#554 = AXIS2_PLACEMENT_3D ( 'NONE', #664, #738, #260 ) ;
#555 = EDGE_LOOP ( 'NONE', ( #389, #697 ) ) ;
#556 = DIRECTION ( 'NONE',  ( -1.000000000000000000, 0.000000000000000000, 0.000000000000000000 ) ) ;
#557 = CARTESIAN_POINT ( 'NONE',  ( 6.749999999999999112, -11.00000000000016165, 0.000000000000000000 ) ) ;
#558 = DIRECTION ( 'NONE',  ( -0.000000000000000000, -0.000000000000000000, -1.000000000000000000 ) ) ;
#559 = CARTESIAN_POINT ( 'NONE',  ( 9.249999999999998224, -11.00000000000016165, 2.000000000000000000 ) ) ;
#560 = CARTESIAN_POINT ( 'NONE',  ( -0.2500000000000000000, -0.9000000000001110445, 0.000000000000000000 ) ) ;
#561 = VERTEX_POINT ( 'NONE', #386 ) ;
#562 = VECTOR ( 'NONE', #94, 1000.000000000000000 ) ;
#563 = DIRECTION ( 'NONE',  ( 0.000000000000000000, 0.000000000000000000, 1.000000000000000000 ) ) ;
#564 = AXIS2_PLACEMENT_3D ( 'NONE', #15, #489, #692 ) ;
#565 = ADVANCED_FACE ( 'NONE', ( #658 ), #178, .F. ) ;
#566 = VERTEX_POINT ( 'NONE', #588 ) ;
#567 = ORIENTED_EDGE ( 'NONE', *, *, #826, .F. ) ;
#568 = CYLINDRICAL_SURFACE ( 'NONE', #12, 5.000000000000000888 ) ;
#569 = CARTESIAN_POINT ( 'NONE',  ( 1.250000000000027534, -3.000000000000110134, 2.000000000000000000 ) ) ;
#570 = FACE_OUTER_BOUND ( 'NONE', #579, .T. ) ;
#571 = LINE ( 'NONE', #373, #464 ) ;
#572 = DIRECTION ( 'NONE',  ( -0.000000000000000000, 1.000000000000000000, -0.000000000000000000 ) ) ;
#573 = ORIENTED_EDGE ( 'NONE', *, *, #532, .F. ) ;
#574 = DIRECTION ( 'NONE',  ( 0.000000000000000000, 1.000000000000000000, 0.000000000000000000 ) ) ;
#575 = EDGE_CURVE ( 'NONE', #145, #230, #46, .T. ) ;
#576 = VECTOR ( 'NONE', #358, 1000.000000000000000 ) ;
#577 = DIRECTION ( 'NONE',  ( 0.000000000000000000, 0.000000000000000000, 1.000000000000000000 ) ) ;
#578 = AXIS2_PLACEMENT_3D ( 'NONE', #782, #716, #111 ) ;
#579 = EDGE_LOOP ( 'NONE', ( #61, #275, #262, #294 ) ) ;
#580 = DIRECTION ( 'NONE',  ( 0.1191452206184311358, 0.9928768384869219865, -0.000000000000000000 ) ) ;
#581 = ADVANCED_FACE ( 'NONE', ( #248 ), #381, .T. ) ;
#582 = FACE_BOUND ( 'NONE', #375, .T. ) ;
#583 = PRODUCT_CONTEXT ( 'NONE', #106, 'mechanical' ) ;
#584 = ORIENTED_EDGE ( 'NONE', *, *, #707, .F. ) ;
#585 = CARTESIAN_POINT ( 'NONE',  ( 0.000000000000000000, 10.61846567994943413, -11.14999999999999680 ) ) ;
#586 = CARTESIAN_POINT ( 'NONE',  ( 12.89421588159395782, 10.61846567994943413, -4.999999999999997335 ) ) ;
#587 = ORIENTED_EDGE ( 'NONE', *, *, #224, .F. ) ;
#588 = CARTESIAN_POINT ( 'NONE',  ( 13.30000000000000604, 13.99999999999982236, -36.30000000000000426 ) ) ;
#589 = CARTESIAN_POINT ( 'NONE',  ( 12.89421588159395782, 10.61846567994943413, -4.999999999999997335 ) ) ;
#590 = ADVANCED_FACE ( 'NONE', ( #732 ), #785, .F. ) ;
#591 = EDGE_LOOP ( 'NONE', ( #105, #667, #79, #719 ) ) ;
#592 = FACE_OUTER_BOUND ( 'NONE', #675, .T. ) ;
#593 = AXIS2_PLACEMENT_3D ( 'NONE', #321, #596, #868 ) ;
#594 = EDGE_CURVE ( 'NONE', #360, #363, #368, .T. ) ;
#595 = ORIENTED_EDGE ( 'NONE', *, *, #295, .T. ) ;
#596 = DIRECTION ( 'NONE',  ( 0.000000000000000000, 0.000000000000000000, 1.000000000000000000 ) ) ;
#597 = DIRECTION ( 'NONE',  ( 0.000000000000000000, 0.000000000000000000, 1.000000000000000000 ) ) ;
#598 = EDGE_LOOP ( 'NONE', ( #841, #192, #587, #567 ) ) ;
#599 = DIRECTION ( 'NONE',  ( 0.9928768384869220975, 0.1191452206184306917, -0.000000000000000000 ) ) ;
#600 = EDGE_CURVE ( 'NONE', #607, #6, #724, .T. ) ;
#601 = PLANE ( 'NONE',  #806 ) ;
#602 = ORIENTED_EDGE ( 'NONE', *, *, #215, .T. ) ;
#603 = LINE ( 'NONE', #348, #257 ) ;
#604 = AXIS2_PLACEMENT_3D ( 'NONE', #511, #379, #652 ) ;
#605 = VECTOR ( 'NONE', #53, 1000.000000000000000 ) ;
#606 = FACE_BOUND ( 'NONE', #530, .T. ) ;
#607 = VERTEX_POINT ( 'NONE', #463 ) ;
#608 = DIRECTION ( 'NONE',  ( -0.000000000000000000, -0.000000000000000000, -1.000000000000000000 ) ) ;
#609 = LINE ( 'NONE', #265, #495 ) ;
#610 = ADVANCED_FACE ( 'NONE', ( #309 ), #681, .F. ) ;
#611 = ORIENTED_EDGE ( 'NONE', *, *, #39, .T. ) ;
#612 = CARTESIAN_POINT ( 'NONE',  ( -13.30000000000000604, 13.99999999999982236, -36.30000000000000426 ) ) ;
#613 = CARTESIAN_POINT ( 'NONE',  ( -0.2500000000000000000, -0.9000000000001110445, 2.000000000000000000 ) ) ;
#614 = CARTESIAN_POINT ( 'NONE',  ( 0.2500000000000000000, -0.9000000000001110445, 2.000000000000000000 ) ) ;
#615 = DIRECTION ( 'NONE',  ( 1.000000000000000000, 0.000000000000000000, 0.000000000000000000 ) ) ;
#616 = VECTOR ( 'NONE', #843, 1000.000000000000000 ) ;
#617 = VECTOR ( 'NONE', #400, 1000.000000000000000 ) ;
#618 = VECTOR ( 'NONE', #641, 1000.000000000000000 ) ;
#619 = FACE_BOUND ( 'NONE', #90, .T. ) ;
#620 = ORIENTED_EDGE ( 'NONE', *, *, #668, .F. ) ;
#621 = CARTESIAN_POINT ( 'NONE',  ( -9.547918011776346248E-12, -1.343369859796439414E-11, -36.30000000000000426 ) ) ;
#622 = ORIENTED_EDGE ( 'NONE', *, *, #445, .T. ) ;
#623 = CARTESIAN_POINT ( 'NONE',  ( 9.249999999999998224, -11.00000000000016165, 4.000000000000000000 ) ) ;
#624 = CARTESIAN_POINT ( 'NONE',  ( -12.89421588159395604, 10.61846567994943413, -2.071067811865473729 ) ) ;
#625 = CARTESIAN_POINT ( 'NONE',  ( 0.000000000000000000, 13.99999999999982236, -11.14999999999999680 ) ) ;
#626 = EDGE_LOOP ( 'NONE', ( #135, #694 ) ) ;
#627 = DIRECTION ( 'NONE',  ( 1.000000000000000000, 0.000000000000000000, 0.000000000000000000 ) ) ;
#628 = EDGE_CURVE ( 'NONE', #132, #113, #276, .T. ) ;
#629 = PLANE ( 'NONE',  #29 ) ;
#630 = ORIENTED_EDGE ( 'NONE', *, *, #445, .F. ) ;
#631 = CARTESIAN_POINT ( 'NONE',  ( 2.775557561562891351E-14, -3.000000000000110134, 2.000000000000000000 ) ) ;
#632 = ORIENTED_EDGE ( 'NONE', *, *, #244, .F. ) ;
#633 = PRODUCT_DEFINITION ( 'UNKNOWN', '', #88, #142 ) ;
#634 = VECTOR ( 'NONE', #461, 1000.000000000000000 ) ;
#635 = LINE ( 'NONE', #345, #510 ) ;
#636 = AXIS2_PLACEMENT_3D ( 'NONE', #186, #62, #252 ) ;
#637 = LINE ( 'NONE', #569, #846 ) ;
#638 = AXIS2_PLACEMENT_3D ( 'NONE', #340, #608, #556 ) ;
#639 = CARTESIAN_POINT ( 'NONE',  ( 9.249999999999998224, -11.00000000000016165, 0.000000000000000000 ) ) ;
#640 = ORIENTED_EDGE ( 'NONE', *, *, #125, .F. ) ;
#641 = DIRECTION ( 'NONE',  ( -0.000000000000000000, 1.000000000000000000, -0.000000000000000000 ) ) ;
#642 = CARTESIAN_POINT ( 'NONE',  ( 13.30000000000000604, 13.99999999999982236, 4.000000000000000000 ) ) ;
#643 = DIRECTION ( 'NONE',  ( 0.000000000000000000, -1.000000000000000000, 0.000000000000000000 ) ) ;
#644 = EDGE_CURVE ( 'NONE', #561, #189, #876, .T. ) ;
#645 = ORIENTED_EDGE ( 'NONE', *, *, #532, .T. ) ;
#646 = CARTESIAN_POINT ( 'NONE',  ( 0.000000000000000000, 13.99999999999982236, -21.15000000000000568 ) ) ;
#647 = CYLINDRICAL_SURFACE ( 'NONE', #735, 10.30000000000000426 ) ;
#648 = EDGE_CURVE ( 'NONE', #251, #207, #131, .T. ) ;
#649 = ORIENTED_EDGE ( 'NONE', *, *, #865, .F. ) ;
#650 = LINE ( 'NONE', #447, #300 ) ;
#651 = AXIS2_PLACEMENT_3D ( 'NONE', #180, #858, #723 ) ;
#652 = DIRECTION ( 'NONE',  ( 0.000000000000000000, -0.000000000000000000, -1.000000000000000000 ) ) ;
#653 = AXIS2_PLACEMENT_3D ( 'NONE', #80, #544, #742 ) ;
#654 = EDGE_LOOP ( 'NONE', ( #10, #49, #482, #402 ) ) ;
#655 = LINE ( 'NONE', #857, #808 ) ;
#656 = CARTESIAN_POINT ( 'NONE',  ( -10.30000000000000426, -11.00000000000011013, 0.000000000000000000 ) ) ;
#657 = ORIENTED_EDGE ( 'NONE', *, *, #103, .F. ) ;
#658 = FACE_OUTER_BOUND ( 'NONE', #725, .T. ) ;
#659 = CARTESIAN_POINT ( 'NONE',  ( -0.2500000000000000000, -0.9000000000001110445, 0.000000000000000000 ) ) ;
#660 = VERTEX_POINT ( 'NONE', #208 ) ;
#661 = CARTESIAN_POINT ( 'NONE',  ( 1.250000000000027756, -3.000000000000110134, 4.000000000000000000 ) ) ;
#662 = FACE_OUTER_BOUND ( 'NONE', #173, .T. ) ;
#663 = VERTEX_POINT ( 'NONE', #477 ) ;
#664 = CARTESIAN_POINT ( 'NONE',  ( 0.000000000000000000, 13.99999999999982236, -11.14999999999999680 ) ) ;
#665 = CIRCLE ( 'NONE', #437, 2.550000000000000266 ) ;
#666 = CARTESIAN_POINT ( 'NONE',  ( -13.30000000000000604, 13.99999999999982236, 4.000000000000000000 ) ) ;
#667 = ORIENTED_EDGE ( 'NONE', *, *, #341, .F. ) ;
#668 = EDGE_CURVE ( 'NONE', #166, #132, #745, .T. ) ;
#669 = CARTESIAN_POINT ( 'NONE',  ( -12.89421588159395959, 10.61846567994943413, -63.11407791361992281 ) ) ;
#670 = CARTESIAN_POINT ( 'NONE',  ( -1.250000000000082601, -19.00000000000011369, 0.000000000000000000 ) ) ;
#671 = ORIENTED_EDGE ( 'NONE', *, *, #696, .F. ) ;
#672 = DIRECTION ( 'NONE',  ( 0.000000000000000000, 0.000000000000000000, 1.000000000000000000 ) ) ;
#673 = EDGE_CURVE ( 'NONE', #680, #99, #267, .T. ) ;
#674 = SURFACE_STYLE_USAGE ( .BOTH. , #404 ) ;
#675 = EDGE_LOOP ( 'NONE', ( #701, #75, #255, #199 ) ) ;
#676 = CARTESIAN_POINT ( 'NONE',  ( 12.89421588159395782, 10.61846567994943413, -36.30000000000000426 ) ) ;
#677 = VECTOR ( 'NONE', #319, 1000.000000000000000 ) ;
#678 = CARTESIAN_POINT ( 'NONE',  ( -0.2500000000000000000, -0.7030344275608130244, 0.000000000000000000 ) ) ;
#679 = AXIS2_PLACEMENT_3D ( 'NONE', #527, #523, #182 ) ;
#680 = VERTEX_POINT ( 'NONE', #748 ) ;
#681 = CYLINDRICAL_SURFACE ( 'NONE', #158, 2.550000000000000266 ) ;
#682 = DIRECTION ( 'NONE',  ( -1.000000000000000000, 0.000000000000000000, 0.000000000000000000 ) ) ;
#683 = EDGE_CURVE ( 'NONE', #497, #663, #146, .T. ) ;
#684 = DIRECTION ( 'NONE',  ( 0.000000000000000000, 0.000000000000000000, 1.000000000000000000 ) ) ;
#685 = ORIENTED_EDGE ( 'NONE', *, *, #776, .T. ) ;
#686 = DIRECTION ( 'NONE',  ( -0.1191452206184306778, 0.9928768384869219865, 0.000000000000000000 ) ) ;
#687 = CARTESIAN_POINT ( 'NONE',  ( -8.153200337090993344E-14, -19.00000000000011369, 2.000000000000000000 ) ) ;
#688 = FACE_OUTER_BOUND ( 'NONE', #824, .T. ) ;
#689 = LINE ( 'NONE', #614, #85 ) ;
#690 = DIRECTION ( 'NONE',  ( -1.000000000000000000, -0.000000000000000000, -0.000000000000000000 ) ) ;
#691 = EDGE_LOOP ( 'NONE', ( #731, #595, #632, #325 ) ) ;
#692 = DIRECTION ( 'NONE',  ( 1.000000000000000000, 0.000000000000000000, 0.000000000000000000 ) ) ;
#693 = APPLICATION_CONTEXT ( 'automotive_design' ) ;
#694 = ORIENTED_EDGE ( 'NONE', *, *, #279, .F. ) ;
#695 = CARTESIAN_POINT ( 'NONE',  ( 0.000000000000000000, 3.999999999999821476, -18.60000000000000497 ) ) ;
#696 = EDGE_CURVE ( 'NONE', #365, #507, #242, .T. ) ;
#697 = ORIENTED_EDGE ( 'NONE', *, *, #804, .F. ) ;
#698 = CARTESIAN_POINT ( 'NONE',  ( 0.000000000000000000, 10.61846567994943413, -11.14999999999999680 ) ) ;
#699 = VERTEX_POINT ( 'NONE', #612 ) ;
#700 = CARTESIAN_POINT ( 'NONE',  ( 0.000000000000000000, 3.999999999999821476, -21.15000000000000568 ) ) ;
#701 = ORIENTED_EDGE ( 'NONE', *, *, #407, .T. ) ;
#702 = EDGE_CURVE ( 'NONE', #67, #514, #496, .T. ) ;
#703 = PLANE ( 'NONE',  #395 ) ;
#704 = CARTESIAN_POINT ( 'NONE',  ( -8.000000000000000000, -11.00000000000011013, 4.000000000000000000 ) ) ;
#705 = CARTESIAN_POINT ( 'NONE',  ( 1.249999999999919620, -19.00000000000011369, 2.000000000000000000 ) ) ;
#706 = AXIS2_PLACEMENT_3D ( 'NONE', #855, #577, #529 ) ;
#707 = EDGE_CURVE ( 'NONE', #166, #36, #403, .T. ) ;
#708 = AXIS2_PLACEMENT_3D ( 'NONE', #200, #3, #133 ) ;
#709 = ORIENTED_EDGE ( 'NONE', *, *, #224, .T. ) ;
#710 = FACE_OUTER_BOUND ( 'NONE', #834, .T. ) ;
#711 = FACE_OUTER_BOUND ( 'NONE', #691, .T. ) ;
#712 = EDGE_CURVE ( 'NONE', #123, #288, #737, .T. ) ;
#713 = CARTESIAN_POINT ( 'NONE',  ( 3.122849337825749926E-16, 13.99999999999982236, -23.70000000000000639 ) ) ;
#714 = DIRECTION ( 'NONE',  ( 1.000000000000000000, 0.000000000000000000, 0.000000000000000000 ) ) ;
#715 = ORIENTED_EDGE ( 'NONE', *, *, #788, .F. ) ;
#716 = DIRECTION ( 'NONE',  ( 0.000000000000000000, 0.000000000000000000, 1.000000000000000000 ) ) ;
#717 = DIRECTION ( 'NONE',  ( 0.000000000000000000, 0.000000000000000000, 1.000000000000000000 ) ) ;
#718 = CARTESIAN_POINT ( 'NONE',  ( 6.749999999999999112, -11.00000000000016165, 2.000000000000000000 ) ) ;
#719 = ORIENTED_EDGE ( 'NONE', *, *, #541, .F. ) ;
#720 = CARTESIAN_POINT ( 'NONE',  ( 13.30000000000000604, 13.99999999999982236, 4.000000000000000000 ) ) ;
#721 = CARTESIAN_POINT ( 'NONE',  ( 7.999999999999998224, -11.00000000000016165, 2.000000000000000000 ) ) ;
#722 = VECTOR ( 'NONE', #54, 1000.000000000000114 ) ;
#723 = DIRECTION ( 'NONE',  ( 1.000000000000000000, 0.000000000000000000, 0.000000000000000000 ) ) ;
#724 = CIRCLE ( 'NONE', #593, 1.250000000000001332 ) ;
#725 = EDGE_LOOP ( 'NONE', ( #509, #95, #317, #127, #645, #649, #476 ) ) ;
#726 = DIRECTION ( 'NONE',  ( -1.000000000000000000, 0.000000000000000000, 0.000000000000000000 ) ) ;
#727 = EDGE_CURVE ( 'NONE', #420, #339, #330, .T. ) ;
#728 = DIRECTION ( 'NONE',  ( 0.1191452206184313856, -0.9928768384869219865, 0.000000000000000000 ) ) ;
#729 = EDGE_LOOP ( 'NONE', ( #819, #426 ) ) ;
#730 = DIRECTION ( 'NONE',  ( -1.000000000000000000, 0.000000000000000000, -0.000000000000000000 ) ) ;
#731 = ORIENTED_EDGE ( 'NONE', *, *, #712, .T. ) ;
#732 = FACE_OUTER_BOUND ( 'NONE', #494, .T. ) ;
#733 = ADVANCED_FACE ( 'NONE', ( #487 ), #65, .F. ) ;
#734 = FACE_BOUND ( 'NONE', #225, .T. ) ;
#735 = AXIS2_PLACEMENT_3D ( 'NONE', #253, #237, #305 ) ;
#736 = ORIENTED_EDGE ( 'NONE', *, *, #425, .F. ) ;
#737 = CIRCLE ( 'NONE', #847, 1.249999999999999334 ) ;
#738 = DIRECTION ( 'NONE',  ( 0.000000000000000000, 1.000000000000000000, -0.000000000000000000 ) ) ;
#739 = CARTESIAN_POINT ( 'NONE',  ( 2.775557561562891351E-14, -3.000000000000110134, 0.000000000000000000 ) ) ;
#740 = ADVANCED_FACE ( 'NONE', ( #813 ), #336, .F. ) ;
#741 = ORIENTED_EDGE ( 'NONE', *, *, #203, .F. ) ;
#742 = DIRECTION ( 'NONE',  ( 1.000000000000000000, 0.000000000000000000, 0.000000000000000000 ) ) ;
#743 = FILL_AREA_STYLE ('',( #324 ) ) ;
#744 = EDGE_LOOP ( 'NONE', ( #233, #211, #43, #671 ) ) ;
#745 = LINE ( 'NONE', #676, #617 ) ;
#746 =( NAMED_UNIT ( * ) SI_UNIT ( $, .STERADIAN. ) SOLID_ANGLE_UNIT ( ) );
#747 = ORIENTED_EDGE ( 'NONE', *, *, #472, .F. ) ;
#748 = CARTESIAN_POINT ( 'NONE',  ( 0.2500000000000000000, -0.7030344275608130244, 0.000000000000000000 ) ) ;
#749 = VECTOR ( 'NONE', #18, 1000.000000000000000 ) ;
#750 = AXIS2_PLACEMENT_3D ( 'NONE', #460, #128, #730 ) ;
#751 = EDGE_CURVE ( 'NONE', #507, #420, #603, .T. ) ;
#752 = LINE ( 'NONE', #98, #13 ) ;
#753 = VERTEX_POINT ( 'NONE', #205 ) ;
#754 = CARTESIAN_POINT ( 'NONE',  ( -6.750000000000000888, -11.00000000000011013, 2.000000000000000000 ) ) ;
#755 = CYLINDRICAL_SURFACE ( 'NONE', #86, 1.250000000000001110 ) ;
#756 = FACE_BOUND ( 'NONE', #369, .T. ) ;
#757 = ORIENTED_EDGE ( 'NONE', *, *, #644, .T. ) ;
#758 = DIRECTION ( 'NONE',  ( 0.000000000000000000, 1.000000000000000000, -0.000000000000000000 ) ) ;
#759 = ORIENTED_EDGE ( 'NONE', *, *, #83, .T. ) ;
#760 = PLANE ( 'NONE',  #170 ) ;
#761 = ADVANCED_FACE ( 'NONE', ( #11 ), #406, .F. ) ;
#762 = LINE ( 'NONE', #435, #576 ) ;
#763 = LINE ( 'NONE', #303, #285 ) ;
#764 = ORIENTED_EDGE ( 'NONE', *, *, #187, .F. ) ;
#765 = VECTOR ( 'NONE', #122, 1000.000000000000000 ) ;
#766 = CIRCLE ( 'NONE', #832, 1.249999999999999334 ) ;
#767 = ORIENTED_EDGE ( 'NONE', *, *, #187, .T. ) ;
#768 = FACE_OUTER_BOUND ( 'NONE', #71, .T. ) ;
#769 = ORIENTED_EDGE ( 'NONE', *, *, #148, .T. ) ;
#770 = CARTESIAN_POINT ( 'NONE',  ( 12.89421588159395782, 5.618465679949434133, -4.999999999999997335 ) ) ;
#771 = ORIENTED_EDGE ( 'NONE', *, *, #575, .F. ) ;
#772 = ORIENTED_EDGE ( 'NONE', *, *, #648, .T. ) ;
#773 = CARTESIAN_POINT ( 'NONE',  ( 0.000000000000000000, 10.61846567994943413, -18.60000000000000497 ) ) ;
#774 = VERTEX_POINT ( 'NONE', #280 ) ;
#775 = DIRECTION ( 'NONE',  ( 0.000000000000000000, 0.000000000000000000, 1.000000000000000000 ) ) ;
#776 = EDGE_CURVE ( 'NONE', #189, #251, #551, .T. ) ;
#777 = AXIS2_PLACEMENT_3D ( 'NONE', #501, #684, #362 ) ;
#778 = AXIS2_PLACEMENT_3D ( 'NONE', #698, #842, #775 ) ;
#779 = LINE ( 'NONE', #250, #157 ) ;
#780 = CARTESIAN_POINT ( 'NONE',  ( 0.000000000000000000, 0.000000000000000000, 0.000000000000000000 ) ) ;
#781 = ORIENTED_EDGE ( 'NONE', *, *, #594, .F. ) ;
#782 = CARTESIAN_POINT ( 'NONE',  ( -8.153200337090993344E-14, -19.00000000000011369, 0.000000000000000000 ) ) ;
#783 = DIRECTION ( 'NONE',  ( -1.000000000000000000, 0.000000000000000000, 0.000000000000000000 ) ) ;
#784 = ORIENTED_EDGE ( 'NONE', *, *, #434, .T. ) ;
#785 = CYLINDRICAL_SURFACE ( 'NONE', #863, 1.249999999999999334 ) ;
#786 = CARTESIAN_POINT ( 'NONE',  ( 0.000000000000000000, 10.61846567994943413, -21.15000000000000568 ) ) ;
#787 = FACE_BOUND ( 'NONE', #555, .T. ) ;
#788 = EDGE_CURVE ( 'NONE', #875, #418, #835, .T. ) ;
#789 = ORIENTED_EDGE ( 'NONE', *, *, #804, .T. ) ;
#790 = PLANE ( 'NONE',  #679 ) ;
#791 = LINE ( 'NONE', #718, #57 ) ;
#792 = SHAPE_DEFINITION_REPRESENTATION ( #331, #481 ) ;
#793 = EDGE_CURVE ( 'NONE', #500, #875, #370, .T. ) ;
#794 = ORIENTED_EDGE ( 'NONE', *, *, #103, .T. ) ;
#795 = CARTESIAN_POINT ( 'NONE',  ( -12.89421588159395782, 10.61846567994943413, -4.999999999999997335 ) ) ;
#796 = CARTESIAN_POINT ( 'NONE',  ( -0.2500000000000000000, -0.7030344275608130244, 2.000000000000000000 ) ) ;
#797 = EDGE_LOOP ( 'NONE', ( #438, #101, #844, #602 ) ) ;
#798 = CARTESIAN_POINT ( 'NONE',  ( -0.2499999999999995837, -0.7030344275608165772, 2.000000000000000000 ) ) ;
#799 = EDGE_CURVE ( 'NONE', #561, #207, #238, .T. ) ;
#800 = PRODUCT ( '6. Top Motor Mount^Backv2', '6. Top Motor Mount^Backv2', '', ( #583 ) ) ;
#801 = CARTESIAN_POINT ( 'NONE',  ( 0.2500000000000000000, -0.7030344275608130244, 2.000000000000000000 ) ) ;
#802 = EDGE_LOOP ( 'NONE', ( #181, #347, #781, #430 ) ) ;
#803 = DIRECTION ( 'NONE',  ( -0.000000000000000000, 1.000000000000000000, -0.000000000000000000 ) ) ;
#804 = EDGE_CURVE ( 'NONE', #150, #660, #198, .T. ) ;
#805 = FACE_BOUND ( 'NONE', #851, .T. ) ;
#806 = AXIS2_PLACEMENT_3D ( 'NONE', #328, #5, #261 ) ;
#807 = ORIENTED_EDGE ( 'NONE', *, *, #341, .T. ) ;
#808 = VECTOR ( 'NONE', #394, 1000.000000000000000 ) ;
#809 = CARTESIAN_POINT ( 'NONE',  ( -8.000000000000000000, -11.00000000000011013, 4.000000000000000000 ) ) ;
#810 = CIRCLE ( 'NONE', #17, 1.250000000000000000 ) ;
#811 = DIRECTION ( 'NONE',  ( 1.000000000000000000, 0.000000000000000000, 0.000000000000000000 ) ) ;
#812 = VERTEX_POINT ( 'NONE', #639 ) ;
#813 = FACE_OUTER_BOUND ( 'NONE', #797, .T. ) ;
#814 = CARTESIAN_POINT ( 'NONE',  ( 0.2500000000000000000, -0.7030344275608130244, 2.000000000000000000 ) ) ;
#815 = ORIENTED_EDGE ( 'NONE', *, *, #14, .T. ) ;
#816 = ADVANCED_FACE ( 'NONE', ( #231 ), #498, .F. ) ;
#817 = DIRECTION ( 'NONE',  ( -0.000000000000000000, -1.000000000000000000, -0.000000000000000000 ) ) ;
#818 = FACE_BOUND ( 'NONE', #455, .T. ) ;
#819 = ORIENTED_EDGE ( 'NONE', *, *, #702, .F. ) ;
#820 = DIRECTION ( 'NONE',  ( 0.000000000000000000, 0.000000000000000000, 1.000000000000000000 ) ) ;
#821 = AXIS2_PLACEMENT_3D ( 'NONE', #42, #307, #783 ) ;
#822 = DIRECTION ( 'NONE',  ( -1.000000000000000000, 0.000000000000000000, 0.000000000000000000 ) ) ;
#823 = AXIS2_PLACEMENT_3D ( 'NONE', #646, #574, #241 ) ;
#824 = EDGE_LOOP ( 'NONE', ( #282, #235, #584, #534 ) ) ;
#825 = DIRECTION ( 'NONE',  ( -0.000000000000000000, -0.000000000000000000, -1.000000000000000000 ) ) ;
#826 = EDGE_CURVE ( 'NONE', #159, #753, #24, .T. ) ;
#827 = CARTESIAN_POINT ( 'NONE',  ( 0.000000000000000000, 3.999999999999821476, -21.15000000000000568 ) ) ;
#828 = VERTEX_POINT ( 'NONE', #100 ) ;
#829 = EDGE_CURVE ( 'NONE', #774, #680, #878, .T. ) ;
#830 = CARTESIAN_POINT ( 'NONE',  ( -12.89421588159395959, 10.61846567994943413, -4.999999999999997335 ) ) ;
#831 = ORIENTED_EDGE ( 'NONE', *, *, #472, .T. ) ;
#832 = AXIS2_PLACEMENT_3D ( 'NONE', #93, #361, #627 ) ;
#833 = DIRECTION ( 'NONE',  ( -1.000000000000000000, 0.000000000000000000, 0.000000000000000000 ) ) ;
#834 = EDGE_LOOP ( 'NONE', ( #620, #657, #856, #573 ) ) ;
#835 = LINE ( 'NONE', #695, #118 ) ;
#836 = ORIENTED_EDGE ( 'NONE', *, *, #707, .T. ) ;
#837 = FACE_OUTER_BOUND ( 'NONE', #177, .T. ) ;
#838 = ORIENTED_EDGE ( 'NONE', *, *, #356, .T. ) ;
#839 = DIRECTION ( 'NONE',  ( -0.000000000000000000, -0.000000000000000000, -1.000000000000000000 ) ) ;
#840 = ADVANCED_FACE ( 'NONE', ( #768 ), #165, .F. ) ;
#841 = ORIENTED_EDGE ( 'NONE', *, *, #865, .T. ) ;
#842 = DIRECTION ( 'NONE',  ( 0.000000000000000000, 1.000000000000000000, 0.000000000000000000 ) ) ;
#843 = DIRECTION ( 'NONE',  ( -0.000000000000000000, -1.000000000000000000, -0.000000000000000000 ) ) ;
#844 = ORIENTED_EDGE ( 'NONE', *, *, #161, .F. ) ;
#845 = ADVANCED_FACE ( 'NONE', ( #710 ), #96, .F. ) ;
#846 = VECTOR ( 'NONE', #168, 1000.000000000000000 ) ;
#847 = AXIS2_PLACEMENT_3D ( 'NONE', #7, #820, #213 ) ;
#848 = CYLINDRICAL_SURFACE ( 'NONE', #528, 1.249999999999999334 ) ;
#849 = VECTOR ( 'NONE', #293, 1000.000000000000000 ) ;
#850 = DIRECTION ( 'NONE',  ( -0.000000000000000000, 1.000000000000000000, -0.000000000000000000 ) ) ;
#851 = EDGE_LOOP ( 'NONE', ( #518, #459 ) ) ;
#852 = CYLINDRICAL_SURFACE ( 'NONE', #227, 2.550000000000000266 ) ;
#853 = EDGE_CURVE ( 'NONE', #514, #67, #810, .T. ) ;
#854 = DIRECTION ( 'NONE',  ( 0.000000000000000000, 1.000000000000000000, 0.000000000000000000 ) ) ;
#855 = CARTESIAN_POINT ( 'NONE',  ( -8.153200337090993344E-14, -19.00000000000011369, 4.000000000000000000 ) ) ;
#856 = ORIENTED_EDGE ( 'NONE', *, *, #315, .F. ) ;
#857 = CARTESIAN_POINT ( 'NONE',  ( -0.2500000000000000000, -0.9000000000001110445, 2.000000000000000000 ) ) ;
#858 = DIRECTION ( 'NONE',  ( 0.000000000000000000, 0.000000000000000000, 1.000000000000000000 ) ) ;
#859 = VERTEX_POINT ( 'NONE', #160 ) ;
#860 = CARTESIAN_POINT ( 'NONE',  ( 0.2500000000000000000, -0.9000000000001110445, 2.000000000000000000 ) ) ;
#861 = AXIS2_PLACEMENT_3D ( 'NONE', #134, #401, #811 ) ;
#862 = LINE ( 'NONE', #659, #677 ) ;
#863 = AXIS2_PLACEMENT_3D ( 'NONE', #124, #193, #390 ) ;
#864 = EDGE_LOOP ( 'NONE', ( #302, #399, #120, #162 ) ) ;
#865 = EDGE_CURVE ( 'NONE', #159, #566, #763, .T. ) ;
#866 = DIRECTION ( 'NONE',  ( -0.000000000000000000, -0.000000000000000000, -1.000000000000000000 ) ) ;
#867 = ORIENTED_EDGE ( 'NONE', *, *, #457, .T. ) ;
#868 = DIRECTION ( 'NONE',  ( 1.000000000000000000, 0.000000000000000000, 0.000000000000000000 ) ) ;
#869 = ADVANCED_FACE ( 'NONE', ( #570 ), #234, .F. ) ;
#870 = DIRECTION ( 'NONE',  ( -1.000000000000000000, 0.000000000000000000, 0.000000000000000000 ) ) ;
#871 = ORIENTED_EDGE ( 'NONE', *, *, #520, .T. ) ;
#872 = DIRECTION ( 'NONE',  ( 0.000000000000000000, 0.000000000000000000, -1.000000000000000000 ) ) ;
#873 = DIRECTION ( 'NONE',  ( 1.000000000000000000, 0.000000000000000000, 0.000000000000000000 ) ) ;
#874 = MECHANICAL_DESIGN_GEOMETRIC_PRESENTATION_REPRESENTATION (  '', ( #115 ), #451 ) ;
#875 = VERTEX_POINT ( 'NONE', #773 ) ;
#876 = CIRCLE ( 'NONE', #212, 1.249999999999999334 ) ;
#877 = DIRECTION ( 'NONE',  ( -0.000000000000000000, -0.000000000000000000, 1.000000000000000000 ) ) ;
#878 = CIRCLE ( 'NONE', #60, 10.30000000000000604 ) ;
ENDSEC;
END-ISO-10303-21;
