ISO-10303-21;
HEADER;
FILE_DESCRIPTION (( 'STEP AP214' ),
    '1' );
FILE_NAME ('6. Top Motor Mount^Back.STEP',
    '2026-06-02T07:07:36',
    ( '' ),
    ( '' ),
    'SwSTEP 2.0',
    'SolidWorks 2026',
    '' );
FILE_SCHEMA (( 'AUTOMOTIVE_DESIGN' ));
ENDSEC;

DATA;
#1 = AXIS2_PLACEMENT_3D ( 'NONE', #805, #356, #73 ) ;
#2 = AXIS2_PLACEMENT_3D ( 'NONE', #455, #170, #771 ) ;
#3 = CYLINDRICAL_SURFACE ( 'NONE', #598, 4.050000000000002487 ) ;
#4 = EDGE_LOOP ( 'NONE', ( #479, #16 ) ) ;
#5 = CARTESIAN_POINT ( 'NONE',  ( 6.749999999999999112, -11.00000000000016165, 2.000000000000000000 ) ) ;
#6 = DIRECTION ( 'NONE',  ( 0.000000000000000000, 0.000000000000000000, 1.000000000000000000 ) ) ;
#7 = ORIENTED_EDGE ( 'NONE', *, *, #589, .F. ) ;
#8 = DIRECTION ( 'NONE',  ( 1.000000000000000000, 0.000000000000000000, 0.000000000000000000 ) ) ;
#9 =( NAMED_UNIT ( * ) PLANE_ANGLE_UNIT ( ) SI_UNIT ( $, .RADIAN. ) );
#10 = EDGE_CURVE ( 'NONE', #78, #504, #310, .T. ) ;
#11 = DIRECTION ( 'NONE',  ( 0.000000000000000000, 0.000000000000000000, 1.000000000000000000 ) ) ;
#12 = ORIENTED_EDGE ( 'NONE', *, *, #568, .T. ) ;
#13 = LINE ( 'NONE', #531, #835 ) ;
#14 = DIRECTION ( 'NONE',  ( -0.000000000000000000, -0.000000000000000000, 1.000000000000000000 ) ) ;
#15 = UNCERTAINTY_MEASURE_WITH_UNIT (LENGTH_MEASURE( 1.000000000000000082E-05 ), #599, 'distance_accuracy_value', 'NONE');
#16 = ORIENTED_EDGE ( 'NONE', *, *, #104, .T. ) ;
#17 = CYLINDRICAL_SURFACE ( 'NONE', #309, 1.249999999999999334 ) ;
#18 = PRESENTATION_STYLE_ASSIGNMENT (( #97 ) ) ;
#19 = DIRECTION ( 'NONE',  ( 1.000000000000000000, 0.000000000000000000, 0.000000000000000000 ) ) ;
#20 = ORIENTED_EDGE ( 'NONE', *, *, #770, .F. ) ;
#21 = DIRECTION ( 'NONE',  ( 1.000000000000000000, 0.000000000000000000, 0.000000000000000000 ) ) ;
#22 = EDGE_CURVE ( 'NONE', #779, #789, #437, .T. ) ;
#23 = PLANE ( 'NONE',  #340 ) ;
#24 = ADVANCED_BREP_SHAPE_REPRESENTATION ( '6. Top Motor Mount^Back', ( #459, #342 ), #452 ) ;
#25 = CARTESIAN_POINT ( 'NONE',  ( -12.89421588159395959, 10.61846567994943413, -4.999999999999997335 ) ) ;
#26 = ORIENTED_EDGE ( 'NONE', *, *, #10, .F. ) ;
#27 = APPLICATION_PROTOCOL_DEFINITION ( 'draft international standard', 'automotive_design', 1998, #537 ) ;
#28 = LINE ( 'NONE', #911, #532 ) ;
#29 = LINE ( 'NONE', #905, #754 ) ;
#30 = AXIS2_PLACEMENT_3D ( 'NONE', #519, #77, #154 ) ;
#31 = ORIENTED_EDGE ( 'NONE', *, *, #115, .T. ) ;
#32 = VECTOR ( 'NONE', #730, 1000.000000000000000 ) ;
#33 = LINE ( 'NONE', #462, #179 ) ;
#34 = FACE_BOUND ( 'NONE', #728, .T. ) ;
#35 = ORIENTED_EDGE ( 'NONE', *, *, #774, .F. ) ;
#36 = CARTESIAN_POINT ( 'NONE',  ( 10.30000000000000604, -11.00000000000018119, 4.000000000000000000 ) ) ;
#37 = CARTESIAN_POINT ( 'NONE',  ( 0.000000000000000000, 13.99999999999982236, -21.15000000000000568 ) ) ;
#38 = CARTESIAN_POINT ( 'NONE',  ( 12.89421588159395782, 5.618465679949434133, -4.999999999999997335 ) ) ;
#39 = VERTEX_POINT ( 'NONE', #651 ) ;
#40 = DIRECTION ( 'NONE',  ( 1.000000000000000000, 0.000000000000000000, 0.000000000000000000 ) ) ;
#41 = DIRECTION ( 'NONE',  ( 0.000000000000000000, 0.000000000000000000, 1.000000000000000000 ) ) ;
#42 =( BOUNDED_CURVE ( )  B_SPLINE_CURVE ( 3, ( #116, #59, #339, #345 ),
 .UNSPECIFIED., .F., .F. ) 
 B_SPLINE_CURVE_WITH_KNOTS ( ( 4, 4 ),
 ( 4.712388980384690562, 6.283185307179586232 ),
 .UNSPECIFIED. ) 
 CURVE ( )  GEOMETRIC_REPRESENTATION_ITEM ( )  RATIONAL_B_SPLINE_CURVE ( ( 1.000000000000000000, 0.8047378541243652705, 0.8047378541243652705, 1.000000000000000000 ) ) 
 REPRESENTATION_ITEM ( '' )  );
#43 = CARTESIAN_POINT ( 'NONE',  ( -9.545570990902773706E-12, -11.00000000001332268, 0.000000000000000000 ) ) ;
#44 = CIRCLE ( 'NONE', #453, 10.30000000000000604 ) ;
#45 = ORIENTED_EDGE ( 'NONE', *, *, #496, .F. ) ;
#46 = ADVANCED_FACE ( 'NONE', ( #810 ), #3, .F. ) ;
#47 = AXIS2_PLACEMENT_3D ( 'NONE', #177, #398, #540 ) ;
#48 = CYLINDRICAL_SURFACE ( 'NONE', #832, 10.30000000000000426 ) ;
#49 = AXIS2_PLACEMENT_3D ( 'NONE', #920, #174, #93 ) ;
#50 = LINE ( 'NONE', #420, #236 ) ;
#51 = ORIENTED_EDGE ( 'NONE', *, *, #857, .T. ) ;
#52 = VERTEX_POINT ( 'NONE', #749 ) ;
#53 = DIRECTION ( 'NONE',  ( 0.000000000000000000, 0.000000000000000000, 1.000000000000000000 ) ) ;
#54 = LINE ( 'NONE', #196, #146 ) ;
#55 = VERTEX_POINT ( 'NONE', #369 ) ;
#56 = ORIENTED_EDGE ( 'NONE', *, *, #240, .T. ) ;
#57 = DIRECTION ( 'NONE',  ( -0.000000000000000000, -0.000000000000000000, -1.000000000000000000 ) ) ;
#58 = EDGE_CURVE ( 'NONE', #779, #55, #359, .T. ) ;
#59 = CARTESIAN_POINT ( 'NONE',  ( 12.64568774417010033, 8.547397868083960404, 5.387069660668501490E-16 ) ) ;
#60 = ORIENTED_EDGE ( 'NONE', *, *, #617, .F. ) ;
#61 = ORIENTED_EDGE ( 'NONE', *, *, #138, .T. ) ;
#62 = CARTESIAN_POINT ( 'NONE',  ( 0.000000000000000000, -11.00000000000011013, 0.000000000000000000 ) ) ;
#63 = CIRCLE ( 'NONE', #164, 4.050000000000002487 ) ;
#64 = DIRECTION ( 'NONE',  ( -1.000000000000000000, 0.000000000000000000, 0.000000000000000000 ) ) ;
#65 = ORIENTED_EDGE ( 'NONE', *, *, #573, .T. ) ;
#66 = ORIENTED_EDGE ( 'NONE', *, *, #873, .F. ) ;
#67 = DIRECTION ( 'NONE',  ( 0.000000000000000000, 1.000000000000000000, 0.000000000000000000 ) ) ;
#68 = EDGE_LOOP ( 'NONE', ( #543, #326, #635, #652 ) ) ;
#69 = ORIENTED_EDGE ( 'NONE', *, *, #770, .T. ) ;
#70 = DIRECTION ( 'NONE',  ( -1.000000000000000000, 0.000000000000000000, 0.000000000000000000 ) ) ;
#71 = CYLINDRICAL_SURFACE ( 'NONE', #940, 2.550000000000000266 ) ;
#72 = EDGE_LOOP ( 'NONE', ( #700, #851, #203, #943 ) ) ;
#73 = DIRECTION ( 'NONE',  ( 1.000000000000000000, 0.000000000000000000, -0.000000000000000000 ) ) ;
#74 = EDGE_CURVE ( 'NONE', #55, #935, #910, .T. ) ;
#75 = CIRCLE ( 'NONE', #2, 1.250000000000001110 ) ;
#76 = CIRCLE ( 'NONE', #291, 10.30000000000000604 ) ;
#77 = DIRECTION ( 'NONE',  ( 0.000000000000000000, 0.000000000000000000, 1.000000000000000000 ) ) ;
#78 = VERTEX_POINT ( 'NONE', #364 ) ;
#79 = DIRECTION ( 'NONE',  ( -0.000000000000000000, -0.000000000000000000, -1.000000000000000000 ) ) ;
#80 = EDGE_CURVE ( 'NONE', #39, #117, #349, .T. ) ;
#81 = LINE ( 'NONE', #687, #641 ) ;
#82 = EDGE_LOOP ( 'NONE', ( #83, #648 ) ) ;
#83 = ORIENTED_EDGE ( 'NONE', *, *, #483, .F. ) ;
#84 = CARTESIAN_POINT ( 'NONE',  ( -9.545570990902773706E-12, -11.00000000001332268, 4.000000000000000000 ) ) ;
#85 = FILL_AREA_STYLE_COLOUR ( '', #878 ) ;
#86 = ADVANCED_FACE ( 'NONE', ( #822 ), #888, .F. ) ;
#87 = DIRECTION ( 'NONE',  ( 0.000000000000000000, 0.000000000000000000, 1.000000000000000000 ) ) ;
#88 = ORIENTED_EDGE ( 'NONE', *, *, #837, .F. ) ;
#89 = DIRECTION ( 'NONE',  ( 0.000000000000000000, -1.000000000000000000, 0.000000000000000000 ) ) ;
#90 = FILL_AREA_STYLE ('',( #85 ) ) ;
#91 = VECTOR ( 'NONE', #241, 1000.000000000000000 ) ;
#92 = ADVANCED_FACE ( 'NONE', ( #273 ), #71, .F. ) ;
#93 = DIRECTION ( 'NONE',  ( 1.000000000000000000, 0.000000000000000000, 0.000000000000000000 ) ) ;
#94 = VECTOR ( 'NONE', #384, 1000.000000000000000 ) ;
#95 = ORIENTED_EDGE ( 'NONE', *, *, #793, .T. ) ;
#96 = CARTESIAN_POINT ( 'NONE',  ( -1.250000000000082601, -19.00000000000011369, 2.000000000000000000 ) ) ;
#97 = SURFACE_STYLE_USAGE ( .BOTH. , #665 ) ;
#98 = DIRECTION ( 'NONE',  ( 0.000000000000000000, 1.000000000000000000, 0.000000000000000000 ) ) ;
#99 = ORIENTED_EDGE ( 'NONE', *, *, #654, .T. ) ;
#100 = CARTESIAN_POINT ( 'NONE',  ( 7.999999999999998224, -11.00000000000016165, 4.000000000000000000 ) ) ;
#101 = DIRECTION ( 'NONE',  ( -1.000000000000000000, 0.000000000000000000, 0.000000000000000000 ) ) ;
#102 = LINE ( 'NONE', #395, #91 ) ;
#103 = EDGE_LOOP ( 'NONE', ( #871, #396 ) ) ;
#104 = EDGE_CURVE ( 'NONE', #504, #78, #517, .T. ) ;
#105 = CARTESIAN_POINT ( 'NONE',  ( -4.050000000009547740, -11.00000000001332268, 0.000000000000000000 ) ) ;
#106 = DIRECTION ( 'NONE',  ( 0.000000000000000000, 0.000000000000000000, 1.000000000000000000 ) ) ;
#107 = CIRCLE ( 'NONE', #512, 1.249999999999999334 ) ;
#108 = ORIENTED_EDGE ( 'NONE', *, *, #594, .F. ) ;
#109 = DIRECTION ( 'NONE',  ( 0.000000000000000000, 0.000000000000000000, 1.000000000000000000 ) ) ;
#110 = FACE_OUTER_BOUND ( 'NONE', #591, .T. ) ;
#111 = EDGE_CURVE ( 'NONE', #757, #180, #628, .T. ) ;
#112 = LINE ( 'NONE', #760, #502 ) ;
#113 = ORIENTED_EDGE ( 'NONE', *, *, #671, .T. ) ;
#114 = LINE ( 'NONE', #925, #373 ) ;
#115 = EDGE_CURVE ( 'NONE', #343, #619, #120, .T. ) ;
#116 = CARTESIAN_POINT ( 'NONE',  ( 12.29421588159396173, 5.618465679949438574, 0.000000000000000000 ) ) ;
#117 = VERTEX_POINT ( 'NONE', #510 ) ;
#118 = CARTESIAN_POINT ( 'NONE',  ( 0.000000000000000000, 13.99999999999982236, -18.60000000000000497 ) ) ;
#119 = DIRECTION ( 'NONE',  ( -0.000000000000000000, -0.000000000000000000, -1.000000000000000000 ) ) ;
#120 = CIRCLE ( 'NONE', #274, 1.249999999999999334 ) ;
#121 = ORIENTED_EDGE ( 'NONE', *, *, #440, .T. ) ;
#122 = VERTEX_POINT ( 'NONE', #893 ) ;
#123 = FACE_OUTER_BOUND ( 'NONE', #866, .T. ) ;
#124 = CIRCLE ( 'NONE', #655, 4.050000000000002487 ) ;
#125 = CARTESIAN_POINT ( 'NONE',  ( -1.250000000000082823, -19.00000000000011369, 4.000000000000000000 ) ) ;
#126 = VERTEX_POINT ( 'NONE', #288 ) ;
#127 = FACE_BOUND ( 'NONE', #347, .T. ) ;
#128 = CARTESIAN_POINT ( 'NONE',  ( -10.30000000000000604, -11.00000000000011013, 27.03014329091337586 ) ) ;
#129 = ORIENTED_EDGE ( 'NONE', *, *, #394, .F. ) ;
#130 = CYLINDRICAL_SURFACE ( 'NONE', #767, 1.250000000000001110 ) ;
#131 = EDGE_CURVE ( 'NONE', #126, #221, #353, .T. ) ;
#132 = DIRECTION ( 'NONE',  ( 0.000000000000000000, 0.000000000000000000, 1.000000000000000000 ) ) ;
#133 = ORIENTED_EDGE ( 'NONE', *, *, #857, .F. ) ;
#134 = ORIENTED_EDGE ( 'NONE', *, *, #383, .T. ) ;
#135 = FACE_OUTER_BOUND ( 'NONE', #846, .T. ) ;
#136 = EDGE_LOOP ( 'NONE', ( #723, #572, #500, #623 ) ) ;
#137 = CARTESIAN_POINT ( 'NONE',  ( -13.30000000000000604, 13.99999999999982236, -36.30000000000000426 ) ) ;
#138 = EDGE_CURVE ( 'NONE', #562, #649, #44, .T. ) ;
#139 = EDGE_LOOP ( 'NONE', ( #823, #298, #951, #279, #645, #614, #658 ) ) ;
#140 = EDGE_LOOP ( 'NONE', ( #312, #31, #99, #530 ) ) ;
#141 = DIRECTION ( 'NONE',  ( -1.000000000000000000, -0.000000000000000000, -0.000000000000000000 ) ) ;
#142 = CARTESIAN_POINT ( 'NONE',  ( -8.000000000000000000, -11.00000000000011013, 4.000000000000000000 ) ) ;
#143 = EDGE_CURVE ( 'NONE', #804, #341, #375, .T. ) ;
#144 = ORIENTED_EDGE ( 'NONE', *, *, #338, .T. ) ;
#145 = CARTESIAN_POINT ( 'NONE',  ( -10.30000000000000426, -11.00000000000011013, 0.000000000000000000 ) ) ;
#146 = VECTOR ( 'NONE', #638, 1000.000000000000000 ) ;
#147 = LINE ( 'NONE', #169, #467 ) ;
#148 = AXIS2_PLACEMENT_3D ( 'NONE', #742, #457, #514 ) ;
#149 = ORIENTED_EDGE ( 'NONE', *, *, #216, .F. ) ;
#150 = ORIENTED_EDGE ( 'NONE', *, *, #287, .F. ) ;
#151 = DIRECTION ( 'NONE',  ( -0.000000000000000000, -0.000000000000000000, -1.000000000000000000 ) ) ;
#152 = EDGE_CURVE ( 'NONE', #746, #609, #608, .T. ) ;
#153 = CARTESIAN_POINT ( 'NONE',  ( -12.29421588159396350, 5.618465679949435021, 0.000000000000000000 ) ) ;
#154 = DIRECTION ( 'NONE',  ( 1.000000000000000000, 0.000000000000000000, 0.000000000000000000 ) ) ;
#155 = ORIENTED_EDGE ( 'NONE', *, *, #744, .F. ) ;
#156 = FACE_OUTER_BOUND ( 'NONE', #266, .T. ) ;
#157 = FACE_BOUND ( 'NONE', #159, .T. ) ;
#158 = EDGE_CURVE ( 'NONE', #740, #908, #845, .T. ) ;
#159 = EDGE_LOOP ( 'NONE', ( #826, #456 ) ) ;
#160 = VERTEX_POINT ( 'NONE', #469 ) ;
#161 = FACE_OUTER_BOUND ( 'NONE', #874, .T. ) ;
#162 = DIRECTION ( 'NONE',  ( -1.000000000000000000, -0.000000000000000000, -0.000000000000000000 ) ) ;
#163 = STYLED_ITEM ( 'NONE', ( #18 ), #459 ) ;
#164 = AXIS2_PLACEMENT_3D ( 'NONE', #313, #317, #401 ) ;
#165 = DIRECTION ( 'NONE',  ( 1.000000000000000000, 0.000000000000000000, 0.000000000000000000 ) ) ;
#166 = VECTOR ( 'NONE', #477, 1000.000000000000000 ) ;
#167 = ORIENTED_EDGE ( 'NONE', *, *, #726, .T. ) ;
#168 = DIRECTION ( 'NONE',  ( -0.000000000000000000, -0.000000000000000000, -1.000000000000000000 ) ) ;
#169 = CARTESIAN_POINT ( 'NONE',  ( 13.30000000000000604, 13.99999999999982236, 4.000000000000000000 ) ) ;
#170 = DIRECTION ( 'NONE',  ( 0.000000000000000000, 0.000000000000000000, 1.000000000000000000 ) ) ;
#171 = EDGE_CURVE ( 'NONE', #722, #504, #622, .T. ) ;
#172 = EDGE_LOOP ( 'NONE', ( #946, #736 ) ) ;
#173 = CARTESIAN_POINT ( 'NONE',  ( -9.250000000000000000, -11.00000000000011013, 2.000000000000000000 ) ) ;
#174 = DIRECTION ( 'NONE',  ( 0.000000000000000000, 0.000000000000000000, 1.000000000000000000 ) ) ;
#175 = ORIENTED_EDGE ( 'NONE', *, *, #233, .T. ) ;
#176 = EDGE_CURVE ( 'NONE', #341, #804, #75, .T. ) ;
#177 = CARTESIAN_POINT ( 'NONE',  ( -8.000000000000000000, -11.00000000000011013, 0.000000000000000000 ) ) ;
#178 = DIRECTION ( 'NONE',  ( -1.000000000000000000, 0.000000000000000000, 0.000000000000000000 ) ) ;
#179 = VECTOR ( 'NONE', #919, 1000.000000000000000 ) ;
#180 = VERTEX_POINT ( 'NONE', #850 ) ;
#181 = CARTESIAN_POINT ( 'NONE',  ( -9.250000000000000000, -11.00000000000011013, 4.000000000000000000 ) ) ;
#182 = CARTESIAN_POINT ( 'NONE',  ( 0.000000000000000000, 3.999999999999821476, -18.60000000000000497 ) ) ;
#183 = VERTEX_POINT ( 'NONE', #376 ) ;
#184 = CYLINDRICAL_SURFACE ( 'NONE', #276, 2.550000000000000266 ) ;
#185 = EDGE_CURVE ( 'NONE', #52, #355, #880, .T. ) ;
#186 = FACE_BOUND ( 'NONE', #438, .T. ) ;
#187 = EDGE_LOOP ( 'NONE', ( #217, #605, #411, #586 ) ) ;
#188 = CARTESIAN_POINT ( 'NONE',  ( 7.999999999999998224, -11.00000000000016165, 2.000000000000000000 ) ) ;
#189 = DIRECTION ( 'NONE',  ( 0.000000000000000000, 0.000000000000000000, 1.000000000000000000 ) ) ;
#190 = ORIENTED_EDGE ( 'NONE', *, *, #873, .T. ) ;
#191 = VECTOR ( 'NONE', #379, 1000.000000000000000 ) ;
#192 = CARTESIAN_POINT ( 'NONE',  ( -4.050000000009547740, -11.00000000001332268, 4.000000000000000000 ) ) ;
#193 = DIRECTION ( 'NONE',  ( 0.000000000000000000, 0.000000000000000000, -1.000000000000000000 ) ) ;
#194 = EDGE_LOOP ( 'NONE', ( #269, #766, #149, #66 ) ) ;
#195 = LINE ( 'NONE', #729, #751 ) ;
#196 = CARTESIAN_POINT ( 'NONE',  ( -6.750000000000000888, -11.00000000000011013, 2.000000000000000000 ) ) ;
#197 = ORIENTED_EDGE ( 'NONE', *, *, #744, .T. ) ;
#198 = ADVANCED_FACE ( 'NONE', ( #756 ), #380, .F. ) ;
#199 = VERTEX_POINT ( 'NONE', #460 ) ;
#200 = DIRECTION ( 'NONE',  ( 0.000000000000000000, 0.000000000000000000, 1.000000000000000000 ) ) ;
#201 = EDGE_LOOP ( 'NONE', ( #331, #696, #838, #330 ) ) ;
#202 = AXIS2_PLACEMENT_3D ( 'NONE', #634, #252, #132 ) ;
#203 = ORIENTED_EDGE ( 'NONE', *, *, #511, .T. ) ;
#204 = CARTESIAN_POINT ( 'NONE',  ( -13.30000000000000604, 13.99999999999982236, 4.000000000000000000 ) ) ;
#205 = AXIS2_PLACEMENT_3D ( 'NONE', #915, #549, #472 ) ;
#206 = EDGE_CURVE ( 'NONE', #935, #816, #112, .T. ) ;
#207 = VECTOR ( 'NONE', #229, 1000.000000000000000 ) ;
#208 = DIRECTION ( 'NONE',  ( 1.000000000000000000, 0.000000000000000000, 0.000000000000000000 ) ) ;
#209 = VERTEX_POINT ( 'NONE', #385 ) ;
#210 = FACE_OUTER_BOUND ( 'NONE', #136, .T. ) ;
#211 = CARTESIAN_POINT ( 'NONE',  ( 2.775557561562891351E-14, -3.000000000000110134, 2.000000000000000000 ) ) ;
#212 = VERTEX_POINT ( 'NONE', #604 ) ;
#213 = CARTESIAN_POINT ( 'NONE',  ( -8.000000000000000000, -11.00000000000011013, 2.000000000000000000 ) ) ;
#214 = CYLINDRICAL_SURFACE ( 'NONE', #814, 1.249999999999999778 ) ;
#215 = DIRECTION ( 'NONE',  ( 0.000000000000000000, 0.000000000000000000, 1.000000000000000000 ) ) ;
#216 = EDGE_CURVE ( 'NONE', #117, #525, #725, .T. ) ;
#217 = ORIENTED_EDGE ( 'NONE', *, *, #131, .F. ) ;
#218 = DIRECTION ( 'NONE',  ( 0.000000000000000000, 0.000000000000000000, 1.000000000000000000 ) ) ;
#219 = CIRCLE ( 'NONE', #907, 1.250000000000000000 ) ;
#220 = DIRECTION ( 'NONE',  ( -1.000000000000000000, 0.000000000000000000, 0.000000000000000000 ) ) ;
#221 = VERTEX_POINT ( 'NONE', #311 ) ;
#222 = FACE_OUTER_BOUND ( 'NONE', #267, .T. ) ;
#223 = EDGE_CURVE ( 'NONE', #378, #841, #29, .T. ) ;
#224 = LINE ( 'NONE', #825, #323 ) ;
#225 = DIRECTION ( 'NONE',  ( 1.000000000000000000, 0.000000000000000000, 0.000000000000000000 ) ) ;
#226 = ORIENTED_EDGE ( 'NONE', *, *, #377, .T. ) ;
#227 = FACE_OUTER_BOUND ( 'NONE', #68, .T. ) ;
#228 = CARTESIAN_POINT ( 'NONE',  ( -9.545570990902773706E-12, -11.00000000001332268, 10.00000000000000000 ) ) ;
#229 = DIRECTION ( 'NONE',  ( -0.000000000000000000, 1.000000000000000000, -0.000000000000000000 ) ) ;
#230 = ORIENTED_EDGE ( 'NONE', *, *, #738, .F. ) ;
#231 = DIRECTION ( 'NONE',  ( 0.000000000000000000, -0.000000000000000000, -1.000000000000000000 ) ) ;
#232 = AXIS2_PLACEMENT_3D ( 'NONE', #399, #945, #322 ) ;
#233 = EDGE_CURVE ( 'NONE', #859, #576, #552, .T. ) ;
#234 = AXIS2_PLACEMENT_3D ( 'NONE', #882, #57, #868 ) ;
#235 = LINE ( 'NONE', #545, #708 ) ;
#236 = VECTOR ( 'NONE', #119, 1000.000000000000000 ) ;
#237 = ORIENTED_EDGE ( 'NONE', *, *, #666, .F. ) ;
#238 = DIRECTION ( 'NONE',  ( -1.000000000000000000, 0.000000000000000000, -0.000000000000000000 ) ) ;
#239 = LINE ( 'NONE', #852, #404 ) ;
#240 = EDGE_CURVE ( 'NONE', #370, #789, #235, .T. ) ;
#241 = DIRECTION ( 'NONE',  ( -0.000000000000000000, -0.000000000000000000, -1.000000000000000000 ) ) ;
#242 = ORIENTED_EDGE ( 'NONE', *, *, #666, .T. ) ;
#243 = CARTESIAN_POINT ( 'NONE',  ( 0.000000000000000000, 3.999999999999821476, -11.14999999999999680 ) ) ;
#244 = PRODUCT_DEFINITION_SHAPE ( 'NONE', 'NONE',  #306 ) ;
#245 = CARTESIAN_POINT ( 'NONE',  ( -0.2500000000000000000, -0.7030344275608130244, 0.000000000000000000 ) ) ;
#246 = EDGE_LOOP ( 'NONE', ( #553, #931, #249, #336 ) ) ;
#247 = CARTESIAN_POINT ( 'NONE',  ( -6.750000000000000000, -11.00000000000011013, 0.000000000000000000 ) ) ;
#248 = CARTESIAN_POINT ( 'NONE',  ( 1.250000000000027534, -3.000000000000110134, 2.000000000000000000 ) ) ;
#249 = ORIENTED_EDGE ( 'NONE', *, *, #240, .F. ) ;
#250 = ADVANCED_FACE ( 'NONE', ( #913 ), #688, .F. ) ;
#251 = DIRECTION ( 'NONE',  ( -0.000000000000000000, 1.000000000000000000, -0.000000000000000000 ) ) ;
#252 = DIRECTION ( 'NONE',  ( 0.000000000000000000, 1.000000000000000000, 0.000000000000000000 ) ) ;
#253 = ORIENTED_EDGE ( 'NONE', *, *, #671, .F. ) ;
#254 = CARTESIAN_POINT ( 'NONE',  ( 2.775557561562891351E-14, -3.000000000000110134, 4.000000000000000000 ) ) ;
#255 = CARTESIAN_POINT ( 'NONE',  ( 1.249999999999919620, -19.00000000000011369, 0.000000000000000000 ) ) ;
#256 = ORIENTED_EDGE ( 'NONE', *, *, #350, .T. ) ;
#257 = ORIENTED_EDGE ( 'NONE', *, *, #74, .T. ) ;
#258 = LINE ( 'NONE', #724, #515 ) ;
#259 = PLANE ( 'NONE',  #408 ) ;
#260 = CIRCLE ( 'NONE', #202, 2.550000000000000266 ) ;
#261 = ORIENTED_EDGE ( 'NONE', *, *, #419, .T. ) ;
#262 = AXIS2_PLACEMENT_3D ( 'NONE', #937, #570, #70 ) ;
#263 = ORIENTED_EDGE ( 'NONE', *, *, #152, .F. ) ;
#264 = DIRECTION ( 'NONE',  ( -0.000000000000000000, 1.000000000000000000, -0.000000000000000000 ) ) ;
#265 = DIRECTION ( 'NONE',  ( 1.000000000000000000, 0.000000000000000000, 0.000000000000000000 ) ) ;
#266 = EDGE_LOOP ( 'NONE', ( #69, #365, #280, #95 ) ) ;
#267 = EDGE_LOOP ( 'NONE', ( #61, #242, #421, #230 ) ) ;
#268 = DIRECTION ( 'NONE',  ( -0.000000000000000000, -0.000000000000000000, -1.000000000000000000 ) ) ;
#269 = ORIENTED_EDGE ( 'NONE', *, *, #419, .F. ) ;
#270 = ORIENTED_EDGE ( 'NONE', *, *, #407, .T. ) ;
#271 = FACE_OUTER_BOUND ( 'NONE', #187, .T. ) ;
#272 = EDGE_CURVE ( 'NONE', #382, #341, #102, .T. ) ;
#273 = FACE_OUTER_BOUND ( 'NONE', #761, .T. ) ;
#274 = AXIS2_PLACEMENT_3D ( 'NONE', #142, #897, #208 ) ;
#275 = CARTESIAN_POINT ( 'NONE',  ( -0.2500000000000000000, -0.9000000000001110445, 0.000000000000000000 ) ) ;
#276 = AXIS2_PLACEMENT_3D ( 'NONE', #243, #480, #856 ) ;
#277 = CIRCLE ( 'NONE', #863, 4.050000000000002487 ) ;
#278 = CIRCLE ( 'NONE', #785, 1.249999999999999334 ) ;
#279 = ORIENTED_EDGE ( 'NONE', *, *, #216, .T. ) ;
#280 = ORIENTED_EDGE ( 'NONE', *, *, #511, .F. ) ;
#281 = DIRECTION ( 'NONE',  ( -1.000000000000000000, 0.000000000000000000, 0.000000000000000000 ) ) ;
#282 = CARTESIAN_POINT ( 'NONE',  ( -0.2500000000000000000, -0.9000000000001110445, 2.000000000000000000 ) ) ;
#283 = ORIENTED_EDGE ( 'NONE', *, *, #223, .F. ) ;
#284 = VERTEX_POINT ( 'NONE', #699 ) ;
#285 = CARTESIAN_POINT ( 'NONE',  ( -13.30000000000000604, 13.99999999999982236, 4.000000000000000000 ) ) ;
#286 = DIRECTION ( 'NONE',  ( 0.000000000000000000, 0.000000000000000000, 1.000000000000000000 ) ) ;
#287 = EDGE_CURVE ( 'NONE', #183, #630, #463, .T. ) ;
#288 = CARTESIAN_POINT ( 'NONE',  ( 9.249999999999998224, -11.00000000000016165, 4.000000000000000000 ) ) ;
#289 = EDGE_LOOP ( 'NONE', ( #478, #190, #818, #898 ) ) ;
#290 = LINE ( 'NONE', #448, #768 ) ;
#291 = AXIS2_PLACEMENT_3D ( 'NONE', #62, #933, #794 ) ;
#292 = DIRECTION ( 'NONE',  ( 0.000000000000000000, -0.000000000000000000, 1.000000000000000000 ) ) ;
#293 = DIRECTION ( 'NONE',  ( -0.000000000000000000, -0.000000000000000000, -1.000000000000000000 ) ) ;
#294 = ORIENTED_EDGE ( 'NONE', *, *, #158, .F. ) ;
#295 = FACE_OUTER_BOUND ( 'NONE', #520, .T. ) ;
#296 = DIRECTION ( 'NONE',  ( -0.000000000000000000, -1.000000000000000000, -0.000000000000000000 ) ) ;
#297 = FACE_OUTER_BOUND ( 'NONE', #663, .T. ) ;
#298 = ORIENTED_EDGE ( 'NONE', *, *, #887, .T. ) ;
#299 = FACE_BOUND ( 'NONE', #392, .T. ) ;
#300 = EDGE_CURVE ( 'NONE', #574, #212, #307, .T. ) ;
#301 = LINE ( 'NONE', #436, #924 ) ;
#302 = DIRECTION ( 'NONE',  ( 0.000000000000000000, 0.000000000000000000, -1.000000000000000000 ) ) ;
#303 = ORIENTED_EDGE ( 'NONE', *, *, #104, .F. ) ;
#304 = CARTESIAN_POINT ( 'NONE',  ( 0.2500000000000000000, -0.9000000000001110445, 2.000000000000000000 ) ) ;
#305 = DIRECTION ( 'NONE',  ( 0.000000000000000000, 1.000000000000000000, 0.000000000000000000 ) ) ;
#306 = PRODUCT_DEFINITION ( 'UNKNOWN', '', #358, #679 ) ;
#307 = CIRCLE ( 'NONE', #49, 1.249999999999999334 ) ;
#308 = AXIS2_PLACEMENT_3D ( 'NONE', #640, #337, #860 ) ;
#309 = AXIS2_PLACEMENT_3D ( 'NONE', #213, #151, #281 ) ;
#310 = CIRCLE ( 'NONE', #325, 1.249999999999999778 ) ;
#311 = CARTESIAN_POINT ( 'NONE',  ( 9.249999999999998224, -11.00000000000016165, 0.000000000000000000 ) ) ;
#312 = ORIENTED_EDGE ( 'NONE', *, *, #407, .F. ) ;
#313 = CARTESIAN_POINT ( 'NONE',  ( -9.545570990902773706E-12, -11.00000000001332268, 0.000000000000000000 ) ) ;
#314 = EDGE_CURVE ( 'NONE', #209, #722, #584, .T. ) ;
#315 = CARTESIAN_POINT ( 'NONE',  ( -13.30000000000000604, 13.99999999999982236, 4.000000000000000000 ) ) ;
#316 = EDGE_LOOP ( 'NONE', ( #447, #601, #45, #428 ) ) ;
#317 = DIRECTION ( 'NONE',  ( 0.000000000000000000, 0.000000000000000000, -1.000000000000000000 ) ) ;
#318 = DIRECTION ( 'NONE',  ( -0.000000000000000000, 1.000000000000000000, -0.000000000000000000 ) ) ;
#319 = ADVANCED_FACE ( 'NONE', ( #34, #297, #870, #703, #186, #403 ), #791, .T. ) ;
#320 = ORIENTED_EDGE ( 'NONE', *, *, #158, .T. ) ;
#321 = CYLINDRICAL_SURFACE ( 'NONE', #847, 1.249999999999999334 ) ;
#322 = DIRECTION ( 'NONE',  ( 0.000000000000000000, 0.000000000000000000, -1.000000000000000000 ) ) ;
#323 = VECTOR ( 'NONE', #367, 1000.000000000000000 ) ;
#324 = CIRCLE ( 'NONE', #694, 1.249999999999999334 ) ;
#325 = AXIS2_PLACEMENT_3D ( 'NONE', #506, #87, #446 ) ;
#326 = ORIENTED_EDGE ( 'NONE', *, *, #894, .T. ) ;
#327 = CARTESIAN_POINT ( 'NONE',  ( 3.122849337825749926E-16, 13.99999999999982236, -23.70000000000000639 ) ) ;
#328 = PRODUCT ( '6. Top Motor Mount^Back', '6. Top Motor Mount^Back', '', ( #624 ) ) ;
#329 = CARTESIAN_POINT ( 'NONE',  ( 13.30000000000000604, 13.99999999999982236, -36.30000000000000426 ) ) ;
#330 = ORIENTED_EDGE ( 'NONE', *, *, #440, .F. ) ;
#331 = ORIENTED_EDGE ( 'NONE', *, *, #528, .F. ) ;
#332 = DIRECTION ( 'NONE',  ( 1.000000000000000000, 0.000000000000000000, 0.000000000000000000 ) ) ;
#333 = EDGE_CURVE ( 'NONE', #55, #903, #629, .T. ) ;
#334 = CARTESIAN_POINT ( 'NONE',  ( 13.30000000000000604, 13.99999999999982236, 4.000000000000000000 ) ) ;
#335 = ORIENTED_EDGE ( 'NONE', *, *, #206, .T. ) ;
#336 = ORIENTED_EDGE ( 'NONE', *, *, #942, .F. ) ;
#337 = DIRECTION ( 'NONE',  ( -0.000000000000000000, 1.000000000000000000, -0.000000000000000000 ) ) ;
#338 = EDGE_CURVE ( 'NONE', #160, #126, #278, .T. ) ;
#339 = CARTESIAN_POINT ( 'NONE',  ( 12.89421588159395782, 10.61846567994943058, -2.071067811865474617 ) ) ;
#340 = AXIS2_PLACEMENT_3D ( 'NONE', #374, #305, #292 ) ;
#341 = VERTEX_POINT ( 'NONE', #255 ) ;
#342 = AXIS2_PLACEMENT_3D ( 'NONE', #701, #109, #40 ) ;
#343 = VERTEX_POINT ( 'NONE', #647 ) ;
#344 = CYLINDRICAL_SURFACE ( 'NONE', #308, 2.550000000000000266 ) ;
#345 = CARTESIAN_POINT ( 'NONE',  ( 12.89421588159395782, 10.61846567994943413, -4.999999999999997335 ) ) ;
#346 = EDGE_CURVE ( 'NONE', #859, #183, #260, .T. ) ;
#347 = EDGE_LOOP ( 'NONE', ( #20, #263, #494, #294 ) ) ;
#348 = CARTESIAN_POINT ( 'NONE',  ( 1.250000000000027756, -3.000000000000110134, 4.000000000000000000 ) ) ;
#349 = LINE ( 'NONE', #667, #485 ) ;
#350 = EDGE_CURVE ( 'NONE', #596, #199, #124, .T. ) ;
#351 = ORIENTED_EDGE ( 'NONE', *, *, #185, .F. ) ;
#352 = FACE_OUTER_BOUND ( 'NONE', #201, .T. ) ;
#353 = LINE ( 'NONE', #524, #660 ) ;
#354 = VECTOR ( 'NONE', #536, 1000.000000000000000 ) ;
#355 = VERTEX_POINT ( 'NONE', #716 ) ;
#356 = DIRECTION ( 'NONE',  ( 0.000000000000000000, 0.000000000000000000, 1.000000000000000000 ) ) ;
#357 = AXIS2_PLACEMENT_3D ( 'NONE', #702, #849, #41 ) ;
#358 = PRODUCT_DEFINITION_FORMATION_WITH_SPECIFIED_SOURCE ( 'ANY', '', #328, .NOT_KNOWN. ) ;
#359 = LINE ( 'NONE', #585, #390 ) ;
#360 = VERTEX_POINT ( 'NONE', #125 ) ;
#361 = CARTESIAN_POINT ( 'NONE',  ( 0.000000000000000000, -11.00000000000011013, -25.98870062158990635 ) ) ;
#362 = DIRECTION ( 'NONE',  ( 0.000000000000000000, 0.000000000000000000, 1.000000000000000000 ) ) ;
#363 = ADVANCED_FACE ( 'NONE', ( #712 ), #259, .F. ) ;
#364 = CARTESIAN_POINT ( 'NONE',  ( -1.249999999999972022, -3.000000000000110134, 0.000000000000000000 ) ) ;
#365 = ORIENTED_EDGE ( 'NONE', *, *, #424, .F. ) ;
#366 = CARTESIAN_POINT ( 'NONE',  ( 12.89421588159395782, 10.61846567994943413, -4.999999999999997335 ) ) ;
#367 = DIRECTION ( 'NONE',  ( -0.000000000000000000, -0.000000000000000000, -1.000000000000000000 ) ) ;
#368 = EDGE_CURVE ( 'NONE', #180, #199, #50, .T. ) ;
#369 = CARTESIAN_POINT ( 'NONE',  ( -10.30000000000000604, -11.00000000000011013, 4.000000000000000000 ) ) ;
#370 = VERTEX_POINT ( 'NONE', #329 ) ;
#371 = DIRECTION ( 'NONE',  ( 1.000000000000000000, 0.000000000000000000, 0.000000000000000000 ) ) ;
#372 = CIRCLE ( 'NONE', #232, 2.550000000000000266 ) ;
#373 = VECTOR ( 'NONE', #251, 1000.000000000000000 ) ;
#374 = CARTESIAN_POINT ( 'NONE',  ( 12.89421588159395782, 10.61846567994943413, -63.11407791361992281 ) ) ;
#375 = CIRCLE ( 'NONE', #30, 1.250000000000001110 ) ;
#376 = CARTESIAN_POINT ( 'NONE',  ( 3.122849337825749926E-16, 10.61846567994943413, -23.70000000000000639 ) ) ;
#377 = EDGE_CURVE ( 'NONE', #757, #596, #556, .T. ) ;
#378 = VERTEX_POINT ( 'NONE', #561 ) ;
#379 = DIRECTION ( 'NONE',  ( -0.000000000000000000, 1.000000000000000000, -0.000000000000000000 ) ) ;
#380 = PLANE ( 'NONE',  #733 ) ;
#381 = UNCERTAINTY_MEASURE_WITH_UNIT (LENGTH_MEASURE( 1.000000000000000082E-05 ), #539, 'distance_accuracy_value', 'NONE');
#382 = VERTEX_POINT ( 'NONE', #488 ) ;
#383 = EDGE_CURVE ( 'NONE', #918, #538, #372, .T. ) ;
#384 = DIRECTION ( 'NONE',  ( -1.000000000000000000, -0.000000000000000000, -0.000000000000000000 ) ) ;
#385 = CARTESIAN_POINT ( 'NONE',  ( -1.249999999999972244, -3.000000000000110134, 4.000000000000000000 ) ) ;
#386 = ORIENTED_EDGE ( 'NONE', *, *, #368, .T. ) ;
#387 = DIRECTION ( 'NONE',  ( 0.000000000000000000, 0.000000000000000000, 1.000000000000000000 ) ) ;
#388 = CIRCLE ( 'NONE', #497, 1.249999999999999334 ) ;
#389 = AXIS2_PLACEMENT_3D ( 'NONE', #393, #387, #769 ) ;
#390 = VECTOR ( 'NONE', #745, 1000.000000000000227 ) ;
#391 = DIRECTION ( 'NONE',  ( -0.1191452206184306778, 0.9928768384869219865, 0.000000000000000000 ) ) ;
#392 = EDGE_LOOP ( 'NONE', ( #155, #776 ) ) ;
#393 = CARTESIAN_POINT ( 'NONE',  ( -9.547918011776346248E-12, -1.343369859796439414E-11, -36.30000000000000426 ) ) ;
#394 = EDGE_CURVE ( 'NONE', #183, #859, #431, .T. ) ;
#395 = CARTESIAN_POINT ( 'NONE',  ( 1.249999999999919620, -19.00000000000011369, 2.000000000000000000 ) ) ;
#396 = ORIENTED_EDGE ( 'NONE', *, *, #434, .T. ) ;
#397 = SHAPE_DEFINITION_REPRESENTATION ( #244, #24 ) ;
#398 = DIRECTION ( 'NONE',  ( 0.000000000000000000, 0.000000000000000000, 1.000000000000000000 ) ) ;
#399 = CARTESIAN_POINT ( 'NONE',  ( 0.000000000000000000, 13.99999999999982236, -11.14999999999999680 ) ) ;
#400 = EDGE_LOOP ( 'NONE', ( #717, #35 ) ) ;
#401 = DIRECTION ( 'NONE',  ( -1.000000000000000000, 0.000000000000000000, 0.000000000000000000 ) ) ;
#402 = VECTOR ( 'NONE', #930, 1000.000000000000000 ) ;
#403 = FACE_BOUND ( 'NONE', #948, .T. ) ;
#404 = VECTOR ( 'NONE', #559, 1000.000000000000000 ) ;
#405 = AXIS2_PLACEMENT_3D ( 'NONE', #285, #602, #231 ) ;
#406 = ORIENTED_EDGE ( 'NONE', *, *, #774, .T. ) ;
#407 = EDGE_CURVE ( 'NONE', #343, #574, #54, .T. ) ;
#408 = AXIS2_PLACEMENT_3D ( 'NONE', #334, #775, #864 ) ;
#409 = CARTESIAN_POINT ( 'NONE',  ( -0.2499999999999985290, -0.7030344275608165772, 2.000000000000000000 ) ) ;
#410 = DIRECTION ( 'NONE',  ( 0.000000000000000000, 1.000000000000000000, 0.000000000000000000 ) ) ;
#411 = ORIENTED_EDGE ( 'NONE', *, *, #877, .T. ) ;
#412 = ADVANCED_FACE ( 'NONE', ( #492 ), #214, .F. ) ;
#413 = EDGE_LOOP ( 'NONE', ( #644, #51, #226, #256 ) ) ;
#414 = LINE ( 'NONE', #578, #862 ) ;
#415 = CARTESIAN_POINT ( 'NONE',  ( 7.999999999999998224, -11.00000000000016165, 4.000000000000000000 ) ) ;
#416 = EDGE_LOOP ( 'NONE', ( #668, #386, #875, #464 ) ) ;
#417 = ORIENTED_EDGE ( 'NONE', *, *, #176, .T. ) ;
#418 = DIRECTION ( 'NONE',  ( -1.000000000000000000, 0.000000000000000000, 0.000000000000000000 ) ) ;
#419 = EDGE_CURVE ( 'NONE', #284, #841, #42, .T. ) ;
#420 = CARTESIAN_POINT ( 'NONE',  ( 4.049999999990457233, -11.00000000001332268, 10.00000000000000000 ) ) ;
#421 = ORIENTED_EDGE ( 'NONE', *, *, #693, .T. ) ;
#422 = AXIS2_PLACEMENT_3D ( 'NONE', #923, #615, #238 ) ;
#423 = FACE_BOUND ( 'NONE', #914, .T. ) ;
#424 = EDGE_CURVE ( 'NONE', #122, #740, #566, .T. ) ;
#425 = VERTEX_POINT ( 'NONE', #642 ) ;
#426 = FACE_OUTER_BOUND ( 'NONE', #797, .T. ) ;
#427 = DIRECTION ( 'NONE',  ( -1.000000000000000000, 0.000000000000000000, 0.000000000000000000 ) ) ;
#428 = ORIENTED_EDGE ( 'NONE', *, *, #738, .T. ) ;
#429 = DIRECTION ( 'NONE',  ( 0.000000000000000000, 0.000000000000000000, -1.000000000000000000 ) ) ;
#430 = DIRECTION ( 'NONE',  ( -0.000000000000000000, -0.000000000000000000, -1.000000000000000000 ) ) ;
#431 = CIRCLE ( 'NONE', #921, 2.550000000000000266 ) ;
#432 = ORIENTED_EDGE ( 'NONE', *, *, #454, .T. ) ;
#433 = CARTESIAN_POINT ( 'NONE',  ( 7.999999999999998224, -11.00000000000016165, 0.000000000000000000 ) ) ;
#434 = EDGE_CURVE ( 'NONE', #221, #425, #388, .T. ) ;
#435 = VECTOR ( 'NONE', #268, 1000.000000000000000 ) ;
#436 = CARTESIAN_POINT ( 'NONE',  ( 12.89421588159395782, 5.618465679949434133, 0.000000000000000000 ) ) ;
#437 = LINE ( 'NONE', #807, #32 ) ;
#438 = EDGE_LOOP ( 'NONE', ( #486, #60 ) ) ;
#439 = FACE_OUTER_BOUND ( 'NONE', #140, .T. ) ;
#440 = EDGE_CURVE ( 'NONE', #903, #546, #802, .T. ) ;
#441 = CARTESIAN_POINT ( 'NONE',  ( -9.545570990902773706E-12, -11.00000000001332268, 10.00000000000000000 ) ) ;
#442 = EDGE_LOOP ( 'NONE', ( #922, #557, #26, #636 ) ) ;
#443 = PLANE ( 'NONE',  #909 ) ;
#444 = FACE_OUTER_BOUND ( 'NONE', #416, .T. ) ;
#445 = ADVANCED_FACE ( 'NONE', ( #444 ), #458, .F. ) ;
#446 = DIRECTION ( 'NONE',  ( 1.000000000000000000, 0.000000000000000000, 0.000000000000000000 ) ) ;
#447 = ORIENTED_EDGE ( 'NONE', *, *, #152, .T. ) ;
#448 = CARTESIAN_POINT ( 'NONE',  ( -13.30000000000000604, 13.99999999999982236, -36.30000000000000426 ) ) ;
#449 = AXIS2_PLACEMENT_3D ( 'NONE', #228, #748, #101 ) ;
#450 = CIRCLE ( 'NONE', #627, 2.550000000000000266 ) ;
#451 = CARTESIAN_POINT ( 'NONE',  ( 3.122849337825749926E-16, 13.99999999999982236, -13.69999999999999751 ) ) ;
#452 =( GEOMETRIC_REPRESENTATION_CONTEXT ( 3 ) GLOBAL_UNCERTAINTY_ASSIGNED_CONTEXT ( ( #381 ) ) GLOBAL_UNIT_ASSIGNED_CONTEXT ( ( #539, #780, #558 ) ) REPRESENTATION_CONTEXT ( 'NONE', 'WORKASPACE' ) );
#453 = AXIS2_PLACEMENT_3D ( 'NONE', #734, #593, #220 ) ;
#454 = EDGE_CURVE ( 'NONE', #816, #779, #607, .T. ) ;
#455 = CARTESIAN_POINT ( 'NONE',  ( -8.153200337090993344E-14, -19.00000000000011369, 0.000000000000000000 ) ) ;
#456 = ORIENTED_EDGE ( 'NONE', *, *, #185, .T. ) ;
#457 = DIRECTION ( 'NONE',  ( -0.000000000000000000, -0.000000000000000000, -1.000000000000000000 ) ) ;
#458 = CYLINDRICAL_SURFACE ( 'NONE', #449, 4.050000000000002487 ) ;
#459 = MANIFOLD_SOLID_BREP ( 'Cut-Extrude2', #551 ) ;
#460 = CARTESIAN_POINT ( 'NONE',  ( 4.049999999990457233, -11.00000000001332268, 0.000000000000000000 ) ) ;
#461 = ORIENTED_EDGE ( 'NONE', *, *, #877, .F. ) ;
#462 = CARTESIAN_POINT ( 'NONE',  ( 10.30000000000000604, -11.00000000000018119, 27.03014329091337586 ) ) ;
#463 = LINE ( 'NONE', #840, #690 ) ;
#464 = ORIENTED_EDGE ( 'NONE', *, *, #377, .F. ) ;
#465 = EDGE_CURVE ( 'NONE', #525, #284, #301, .T. ) ;
#466 = FACE_OUTER_BOUND ( 'NONE', #246, .T. ) ;
#467 = VECTOR ( 'NONE', #739, 1000.000000000000000 ) ;
#468 = AXIS2_PLACEMENT_3D ( 'NONE', #597, #885, #896 ) ;
#469 = CARTESIAN_POINT ( 'NONE',  ( 6.749999999999999112, -11.00000000000016165, 4.000000000000000000 ) ) ;
#470 = ORIENTED_EDGE ( 'NONE', *, *, #522, .T. ) ;
#471 = CARTESIAN_POINT ( 'NONE',  ( 0.000000000000000000, 13.99999999999982236, -8.599999999999996092 ) ) ;
#472 = DIRECTION ( 'NONE',  ( 0.000000000000000000, 0.000000000000000000, 1.000000000000000000 ) ) ;
#473 = DIRECTION ( 'NONE',  ( -0.000000000000000000, 1.000000000000000000, -0.000000000000000000 ) ) ;
#474 = EDGE_LOOP ( 'NONE', ( #811, #88 ) ) ;
#475 = PLANE ( 'NONE',  #389 ) ;
#476 = EDGE_CURVE ( 'NONE', #209, #78, #224, .T. ) ;
#477 = DIRECTION ( 'NONE',  ( 0.000000000000000000, 0.000000000000000000, -1.000000000000000000 ) ) ;
#478 = ORIENTED_EDGE ( 'NONE', *, *, #223, .T. ) ;
#479 = ORIENTED_EDGE ( 'NONE', *, *, #10, .T. ) ;
#480 = DIRECTION ( 'NONE',  ( -0.000000000000000000, 1.000000000000000000, -0.000000000000000000 ) ) ;
#481 = CARTESIAN_POINT ( 'NONE',  ( 0.000000000000000000, -11.00000000000011013, 4.000000000000000000 ) ) ;
#482 = AXIS2_PLACEMENT_3D ( 'NONE', #743, #362, #836 ) ;
#483 = EDGE_CURVE ( 'NONE', #360, #382, #784, .T. ) ;
#484 = CIRCLE ( 'NONE', #468, 1.250000000000001332 ) ;
#485 = VECTOR ( 'NONE', #14, 1000.000000000000000 ) ;
#486 = ORIENTED_EDGE ( 'NONE', *, *, #314, .F. ) ;
#487 = FACE_OUTER_BOUND ( 'NONE', #316, .T. ) ;
#488 = CARTESIAN_POINT ( 'NONE',  ( 1.249999999999919842, -19.00000000000011369, 4.000000000000000000 ) ) ;
#489 = ORIENTED_EDGE ( 'NONE', *, *, #661, .F. ) ;
#490 = DIRECTION ( 'NONE',  ( -0.000000000000000000, -0.000000000000000000, -1.000000000000000000 ) ) ;
#491 = ADVANCED_FACE ( 'NONE', ( #670, #157, #518 ), #23, .F. ) ;
#492 = FACE_OUTER_BOUND ( 'NONE', #772, .T. ) ;
#493 = ORIENTED_EDGE ( 'NONE', *, *, #333, .T. ) ;
#494 = ORIENTED_EDGE ( 'NONE', *, *, #693, .F. ) ;
#495 = CARTESIAN_POINT ( 'NONE',  ( 0.000000000000000000, 13.99999999999982236, -11.14999999999999680 ) ) ;
#496 = EDGE_CURVE ( 'NONE', #562, #927, #677, .T. ) ;
#497 = AXIS2_PLACEMENT_3D ( 'NONE', #886, #941, #265 ) ;
#498 = VECTOR ( 'NONE', #141, 1000.000000000000000 ) ;
#499 = ORIENTED_EDGE ( 'NONE', *, *, #346, .F. ) ;
#500 = ORIENTED_EDGE ( 'NONE', *, *, #143, .F. ) ;
#501 = DIRECTION ( 'NONE',  ( 0.000000000000000000, 0.000000000000000000, -1.000000000000000000 ) ) ;
#502 = VECTOR ( 'NONE', #678, 1000.000000000000000 ) ;
#503 = DIRECTION ( 'NONE',  ( 0.000000000000000000, 0.000000000000000000, 1.000000000000000000 ) ) ;
#504 = VERTEX_POINT ( 'NONE', #821 ) ;
#505 = CYLINDRICAL_SURFACE ( 'NONE', #262, 1.249999999999999334 ) ;
#506 = CARTESIAN_POINT ( 'NONE',  ( 2.775557561562891351E-14, -3.000000000000110134, 0.000000000000000000 ) ) ;
#507 = ORIENTED_EDGE ( 'NONE', *, *, #74, .F. ) ;
#508 = PLANE ( 'NONE',  #405 ) ;
#509 = DIRECTION ( 'NONE',  ( 1.000000000000000000, 0.000000000000000000, 0.000000000000000000 ) ) ;
#510 = CARTESIAN_POINT ( 'NONE',  ( -12.89421588159395959, 10.61846567994943413, -4.999999999999997335 ) ) ;
#511 = EDGE_CURVE ( 'NONE', #927, #122, #611, .T. ) ;
#512 = AXIS2_PLACEMENT_3D ( 'NONE', #711, #53, #332 ) ;
#513 = ORIENTED_EDGE ( 'NONE', *, *, #715, .T. ) ;
#514 = DIRECTION ( 'NONE',  ( -1.000000000000000000, 0.000000000000000000, 0.000000000000000000 ) ) ;
#515 = VECTOR ( 'NONE', #264, 1000.000000000000000 ) ;
#516 = VECTOR ( 'NONE', #168, 1000.000000000000000 ) ;
#517 = CIRCLE ( 'NONE', #643, 1.249999999999999778 ) ;
#518 = FACE_OUTER_BOUND ( 'NONE', #289, .T. ) ;
#519 = CARTESIAN_POINT ( 'NONE',  ( -8.153200337090993344E-14, -19.00000000000011369, 0.000000000000000000 ) ) ;
#520 = EDGE_LOOP ( 'NONE', ( #129, #936, #65, #803 ) ) ;
#521 = CARTESIAN_POINT ( 'NONE',  ( -0.2499999999999995837, -0.7030344275608165772, 0.000000000000000000 ) ) ;
#522 = EDGE_CURVE ( 'NONE', #816, #370, #147, .T. ) ;
#523 =( NAMED_UNIT ( * ) SI_UNIT ( $, .STERADIAN. ) SOLID_ANGLE_UNIT ( ) );
#524 = CARTESIAN_POINT ( 'NONE',  ( 9.249999999999998224, -11.00000000000016165, 2.000000000000000000 ) ) ;
#525 = VERTEX_POINT ( 'NONE', #153 ) ;
#526 = CYLINDRICAL_SURFACE ( 'NONE', #148, 1.250000000000001110 ) ;
#527 = DIRECTION ( 'NONE',  ( 1.000000000000000000, 0.000000000000000000, 0.000000000000000000 ) ) ;
#528 = EDGE_CURVE ( 'NONE', #525, #903, #81, .T. ) ;
#529 = DIRECTION ( 'NONE',  ( 0.9928768384869220975, 0.1191452206184306917, -0.000000000000000000 ) ) ;
#530 = ORIENTED_EDGE ( 'NONE', *, *, #300, .F. ) ;
#531 = CARTESIAN_POINT ( 'NONE',  ( -12.89421588159395782, 10.61846567994943413, -4.999999999999997335 ) ) ;
#532 = VECTOR ( 'NONE', #509, 1000.000000000000000 ) ;
#533 = SURFACE_STYLE_FILL_AREA ( #90 ) ;
#534 = AXIS2_PLACEMENT_3D ( 'NONE', #834, #631, #685 ) ;
#535 = AXIS2_PLACEMENT_3D ( 'NONE', #481, #709, #926 ) ;
#536 = DIRECTION ( 'NONE',  ( -0.000000000000000000, -1.000000000000000000, -0.000000000000000000 ) ) ;
#537 = APPLICATION_CONTEXT ( 'automotive_design' ) ;
#538 = VERTEX_POINT ( 'NONE', #451 ) ;
#539 =( LENGTH_UNIT ( ) NAMED_UNIT ( * ) SI_UNIT ( .MILLI., .METRE. ) );
#540 = DIRECTION ( 'NONE',  ( 1.000000000000000000, 0.000000000000000000, 0.000000000000000000 ) ) ;
#541 = DIRECTION ( 'NONE',  ( -0.000000000000000000, -0.000000000000000000, 1.000000000000000000 ) ) ;
#542 = EDGE_CURVE ( 'NONE', #39, #378, #28, .T. ) ;
#543 = ORIENTED_EDGE ( 'NONE', *, *, #272, .F. ) ;
#544 = PLANE ( 'NONE',  #357 ) ;
#545 = CARTESIAN_POINT ( 'NONE',  ( 13.30000000000000604, 13.99999999999982236, -36.30000000000000426 ) ) ;
#546 = VERTEX_POINT ( 'NONE', #813 ) ;
#547 = DIRECTION ( 'NONE',  ( 0.1191452206184311358, 0.9928768384869219865, -0.000000000000000000 ) ) ;
#548 = ADVANCED_FACE ( 'NONE', ( #466 ), #475, .F. ) ;
#549 = DIRECTION ( 'NONE',  ( 0.000000000000000000, 1.000000000000000000, 0.000000000000000000 ) ) ;
#550 = CIRCLE ( 'NONE', #656, 2.550000000000000266 ) ;
#551 = CLOSED_SHELL ( 'NONE', ( #445, #917, #603, #704, #560, #86, #788, #632, #947, #686, #912, #612, #763, #848, #412, #698, #806, #319, #363, #865, #198, #900, #491, #548, #92, #719, #250, #46 ) ) ;
#552 = LINE ( 'NONE', #182, #906 ) ;
#553 = ORIENTED_EDGE ( 'NONE', *, *, #542, .F. ) ;
#554 = DIRECTION ( 'NONE',  ( -0.000000000000000000, -0.000000000000000000, -1.000000000000000000 ) ) ;
#555 = EDGE_CURVE ( 'NONE', #199, #596, #63, .T. ) ;
#556 = LINE ( 'NONE', #853, #402 ) ;
#557 = ORIENTED_EDGE ( 'NONE', *, *, #171, .T. ) ;
#558 =( NAMED_UNIT ( * ) SI_UNIT ( $, .STERADIAN. ) SOLID_ANGLE_UNIT ( ) );
#559 = DIRECTION ( 'NONE',  ( -0.000000000000000000, -0.000000000000000000, -1.000000000000000000 ) ) ;
#560 = ADVANCED_FACE ( 'NONE', ( #110 ), #321, .F. ) ;
#561 = CARTESIAN_POINT ( 'NONE',  ( 12.89421588159395782, 10.61846567994943413, -36.30000000000000426 ) ) ;
#562 = VERTEX_POINT ( 'NONE', #692 ) ;
#563 = ORIENTED_EDGE ( 'NONE', *, *, #115, .F. ) ;
#564 = LINE ( 'NONE', #583, #435 ) ;
#565 = VECTOR ( 'NONE', #683, 1000.000000000000000 ) ;
#566 = LINE ( 'NONE', #282, #783 ) ;
#567 = CIRCLE ( 'NONE', #815, 1.249999999999999334 ) ;
#568 = EDGE_CURVE ( 'NONE', #935, #546, #33, .T. ) ;
#569 = ORIENTED_EDGE ( 'NONE', *, *, #143, .T. ) ;
#570 = DIRECTION ( 'NONE',  ( -0.000000000000000000, -0.000000000000000000, -1.000000000000000000 ) ) ;
#571 = CARTESIAN_POINT ( 'NONE',  ( 2.775557561562891351E-14, -3.000000000000110134, 2.000000000000000000 ) ) ;
#572 = ORIENTED_EDGE ( 'NONE', *, *, #272, .T. ) ;
#573 = EDGE_CURVE ( 'NONE', #630, #576, #450, .T. ) ;
#574 = VERTEX_POINT ( 'NONE', #247 ) ;
#575 = CARTESIAN_POINT ( 'NONE',  ( 0.2500000000000000000, -0.7030344275608130244, 0.000000000000000000 ) ) ;
#576 = VERTEX_POINT ( 'NONE', #118 ) ;
#577 = EDGE_LOOP ( 'NONE', ( #320, #237, #489, #787 ) ) ;
#578 = CARTESIAN_POINT ( 'NONE',  ( 10.30000000000000604, -11.00000000000018119, 0.000000000000000000 ) ) ;
#579 = AXIS2_PLACEMENT_3D ( 'NONE', #883, #6, #881 ) ;
#580 = CARTESIAN_POINT ( 'NONE',  ( 2.775557561562891351E-14, -3.000000000000110134, 0.000000000000000000 ) ) ;
#581 = AXIS2_PLACEMENT_3D ( 'NONE', #672, #503, #662 ) ;
#582 = ORIENTED_EDGE ( 'NONE', *, *, #454, .F. ) ;
#583 = CARTESIAN_POINT ( 'NONE',  ( 0.2500000000000000000, -0.7030344275608130244, 2.000000000000000000 ) ) ;
#584 = CIRCLE ( 'NONE', #861, 1.250000000000000000 ) ;
#585 = CARTESIAN_POINT ( 'NONE',  ( -13.30000000000000604, 13.99999999999982236, 4.000000000000000000 ) ) ;
#586 = ORIENTED_EDGE ( 'NONE', *, *, #434, .F. ) ;
#587 = DIRECTION ( 'NONE',  ( 0.1191452206184306223, -0.9928768384869219865, 0.000000000000000000 ) ) ;
#588 = DIRECTION ( 'NONE',  ( -0.000000000000000000, -0.000000000000000000, -1.000000000000000000 ) ) ;
#589 = EDGE_CURVE ( 'NONE', #212, #574, #720, .T. ) ;
#590 = DIRECTION ( 'NONE',  ( -1.000000000000000000, 0.000000000000000000, 0.000000000000000000 ) ) ;
#591 = EDGE_LOOP ( 'NONE', ( #144, #689, #639, #461 ) ) ;
#592 = DIRECTION ( 'NONE',  ( -1.000000000000000000, 0.000000000000000000, 0.000000000000000000 ) ) ;
#593 = DIRECTION ( 'NONE',  ( -0.000000000000000000, -0.000000000000000000, 1.000000000000000000 ) ) ;
#594 = EDGE_CURVE ( 'NONE', #355, #52, #691, .T. ) ;
#595 = VECTOR ( 'NONE', #554, 1000.000000000000000 ) ;
#596 = VERTEX_POINT ( 'NONE', #105 ) ;
#597 = CARTESIAN_POINT ( 'NONE',  ( -8.153200337090993344E-14, -19.00000000000011369, 4.000000000000000000 ) ) ;
#598 = AXIS2_PLACEMENT_3D ( 'NONE', #441, #657, #590 ) ;
#599 =( LENGTH_UNIT ( ) NAMED_UNIT ( * ) SI_UNIT ( .MILLI., .METRE. ) );
#600 = CARTESIAN_POINT ( 'NONE',  ( 0.000000000000000000, 3.999999999999821476, -11.14999999999999680 ) ) ;
#601 = ORIENTED_EDGE ( 'NONE', *, *, #793, .F. ) ;
#602 = DIRECTION ( 'NONE',  ( 0.000000000000000000, -1.000000000000000000, 0.000000000000000000 ) ) ;
#603 = ADVANCED_FACE ( 'NONE', ( #625 ), #184, .F. ) ;
#604 = CARTESIAN_POINT ( 'NONE',  ( -9.250000000000000000, -11.00000000000011013, 0.000000000000000000 ) ) ;
#605 = ORIENTED_EDGE ( 'NONE', *, *, #837, .T. ) ;
#606 = CARTESIAN_POINT ( 'NONE',  ( 13.30000000000000604, 13.99999999999982236, 4.000000000000000000 ) ) ;
#607 = LINE ( 'NONE', #891, #94 ) ;
#608 = LINE ( 'NONE', #902, #354 ) ;
#609 = VERTEX_POINT ( 'NONE', #621 ) ;
#610 = AXIS2_PLACEMENT_3D ( 'NONE', #916, #98, #613 ) ;
#611 = LINE ( 'NONE', #901, #892 ) ;
#612 = ADVANCED_FACE ( 'NONE', ( #839 ), #544, .F. ) ;
#613 = DIRECTION ( 'NONE',  ( 0.000000000000000000, 0.000000000000000000, 1.000000000000000000 ) ) ;
#614 = ORIENTED_EDGE ( 'NONE', *, *, #333, .F. ) ;
#615 = DIRECTION ( 'NONE',  ( 0.000000000000000000, 0.000000000000000000, -1.000000000000000000 ) ) ;
#616 = DIRECTION ( 'NONE',  ( -0.000000000000000000, -0.000000000000000000, -1.000000000000000000 ) ) ;
#617 = EDGE_CURVE ( 'NONE', #722, #209, #219, .T. ) ;
#618 = CARTESIAN_POINT ( 'NONE',  ( -12.89421588159395604, 10.61846567994943413, -2.071067811865473729 ) ) ;
#619 = VERTEX_POINT ( 'NONE', #181 ) ;
#620 = CARTESIAN_POINT ( 'NONE',  ( 13.30000000000000604, 13.99999999999982236, -36.30000000000000426 ) ) ;
#621 = CARTESIAN_POINT ( 'NONE',  ( 0.2500000000000000000, -0.9000000000001110445, 0.000000000000000000 ) ) ;
#622 = LINE ( 'NONE', #248, #565 ) ;
#623 = ORIENTED_EDGE ( 'NONE', *, *, #843, .F. ) ;
#624 = PRODUCT_CONTEXT ( 'NONE', #869, 'mechanical' ) ;
#625 = FACE_OUTER_BOUND ( 'NONE', #731, .T. ) ;
#626 = AXIS2_PLACEMENT_3D ( 'NONE', #38, #165, #302 ) ;
#627 = AXIS2_PLACEMENT_3D ( 'NONE', #37, #777, #697 ) ;
#628 = CIRCLE ( 'NONE', #579, 4.050000000000002487 ) ;
#629 = LINE ( 'NONE', #128, #166 ) ;
#630 = VERTEX_POINT ( 'NONE', #327 ) ;
#631 = DIRECTION ( 'NONE',  ( -0.000000000000000000, 1.000000000000000000, -0.000000000000000000 ) ) ;
#632 = ADVANCED_FACE ( 'NONE', ( #123 ), #48, .T. ) ;
#633 = CARTESIAN_POINT ( 'NONE',  ( 0.000000000000000000, -11.00000000000011013, 2.000000000000000000 ) ) ;
#634 = CARTESIAN_POINT ( 'NONE',  ( 0.000000000000000000, 10.61846567994943413, -21.15000000000000568 ) ) ;
#635 = ORIENTED_EDGE ( 'NONE', *, *, #843, .T. ) ;
#636 = ORIENTED_EDGE ( 'NONE', *, *, #476, .F. ) ;
#637 = DIRECTION ( 'NONE',  ( -0.000000000000000000, -0.000000000000000000, -1.000000000000000000 ) ) ;
#638 = DIRECTION ( 'NONE',  ( -0.000000000000000000, -0.000000000000000000, -1.000000000000000000 ) ) ;
#639 = ORIENTED_EDGE ( 'NONE', *, *, #820, .F. ) ;
#640 = CARTESIAN_POINT ( 'NONE',  ( 0.000000000000000000, 3.999999999999821476, -21.15000000000000568 ) ) ;
#641 = VECTOR ( 'NONE', #759, 1000.000000000000000 ) ;
#642 = CARTESIAN_POINT ( 'NONE',  ( 6.749999999999999112, -11.00000000000016165, 0.000000000000000000 ) ) ;
#643 = AXIS2_PLACEMENT_3D ( 'NONE', #580, #215, #225 ) ;
#644 = ORIENTED_EDGE ( 'NONE', *, *, #368, .F. ) ;
#645 = ORIENTED_EDGE ( 'NONE', *, *, #528, .T. ) ;
#646 = CARTESIAN_POINT ( 'NONE',  ( -8.153200337090993344E-14, -19.00000000000011369, 2.000000000000000000 ) ) ;
#647 = CARTESIAN_POINT ( 'NONE',  ( -6.750000000000000888, -11.00000000000011013, 4.000000000000000000 ) ) ;
#648 = ORIENTED_EDGE ( 'NONE', *, *, #894, .F. ) ;
#649 = VERTEX_POINT ( 'NONE', #409 ) ;
#650 = DIRECTION ( 'NONE',  ( 1.000000000000000000, 0.000000000000000000, 0.000000000000000000 ) ) ;
#651 = CARTESIAN_POINT ( 'NONE',  ( -12.89421588159395959, 10.61846567994943413, -36.30000000000000426 ) ) ;
#652 = ORIENTED_EDGE ( 'NONE', *, *, #176, .F. ) ;
#653 = CARTESIAN_POINT ( 'NONE',  ( 0.000000000000000000, 13.99999999999982236, -21.15000000000000568 ) ) ;
#654 = EDGE_CURVE ( 'NONE', #619, #212, #929, .T. ) ;
#655 = AXIS2_PLACEMENT_3D ( 'NONE', #43, #193, #778 ) ;
#656 = AXIS2_PLACEMENT_3D ( 'NONE', #495, #952, #501 ) ;
#657 = DIRECTION ( 'NONE',  ( -0.000000000000000000, -0.000000000000000000, -1.000000000000000000 ) ) ;
#658 = ORIENTED_EDGE ( 'NONE', *, *, #58, .F. ) ;
#659 = DIRECTION ( 'NONE',  ( 1.000000000000000000, 0.000000000000000000, 0.000000000000000000 ) ) ;
#660 = VECTOR ( 'NONE', #430, 1000.000000000000000 ) ;
#661 = EDGE_CURVE ( 'NONE', #122, #649, #114, .T. ) ;
#662 = DIRECTION ( 'NONE',  ( 1.000000000000000000, 0.000000000000000000, 0.000000000000000000 ) ) ;
#663 = EDGE_LOOP ( 'NONE', ( #710, #257, #335, #432 ) ) ;
#664 = DIRECTION ( 'NONE',  ( -0.000000000000000000, -0.000000000000000000, -1.000000000000000000 ) ) ;
#665 = SURFACE_SIDE_STYLE ('',( #533 ) ) ;
#666 = EDGE_CURVE ( 'NONE', #649, #908, #239, .T. ) ;
#667 = CARTESIAN_POINT ( 'NONE',  ( -12.89421588159395959, 10.61846567994943413, -63.11407791361992281 ) ) ;
#668 = ORIENTED_EDGE ( 'NONE', *, *, #111, .T. ) ;
#669 = FACE_BOUND ( 'NONE', #400, .T. ) ;
#670 = FACE_BOUND ( 'NONE', #172, .T. ) ;
#671 = EDGE_CURVE ( 'NONE', #619, #343, #107, .T. ) ;
#672 = CARTESIAN_POINT ( 'NONE',  ( 0.000000000000000000, -11.00000000000011013, 4.000000000000000000 ) ) ;
#673 = AXIS2_PLACEMENT_3D ( 'NONE', #798, #650, #429 ) ;
#674 = ORIENTED_EDGE ( 'NONE', *, *, #476, .T. ) ;
#675 = DIRECTION ( 'NONE',  ( 0.000000000000000000, -0.000000000000000000, -1.000000000000000000 ) ) ;
#676 = AXIS2_PLACEMENT_3D ( 'NONE', #211, #293, #427 ) ;
#677 = LINE ( 'NONE', #829, #879 ) ;
#678 = DIRECTION ( 'NONE',  ( 0.1191452206184310109, 0.9928768384869219865, -0.000000000000000000 ) ) ;
#679 = PRODUCT_DEFINITION_CONTEXT ( 'detailed design', #537, 'design' ) ;
#680 = EDGE_LOOP ( 'NONE', ( #833, #884 ) ) ;
#681 = LINE ( 'NONE', #899, #191 ) ;
#682 = DIRECTION ( 'NONE',  ( 1.000000000000000000, -0.000000000000000000, -0.000000000000000000 ) ) ;
#683 = DIRECTION ( 'NONE',  ( -0.000000000000000000, -0.000000000000000000, -1.000000000000000000 ) ) ;
#684 = EDGE_LOOP ( 'NONE', ( #12, #513, #261, #283, #808, #727, #827 ) ) ;
#685 = DIRECTION ( 'NONE',  ( 0.000000000000000000, 0.000000000000000000, 1.000000000000000000 ) ) ;
#686 = ADVANCED_FACE ( 'NONE', ( #764, #352, #127, #876, #944, #718, #423 ), #732, .F. ) ;
#687 = CARTESIAN_POINT ( 'NONE',  ( -11.68114354174297453, 0.5095295145245635204, 0.000000000000000000 ) ) ;
#688 = CYLINDRICAL_SURFACE ( 'NONE', #626, 5.000000000000000888 ) ;
#689 = ORIENTED_EDGE ( 'NONE', *, *, #131, .T. ) ;
#690 = VECTOR ( 'NONE', #318, 1000.000000000000000 ) ;
#691 = CIRCLE ( 'NONE', #205, 2.550000000000000266 ) ;
#692 = CARTESIAN_POINT ( 'NONE',  ( 0.2500000000000000000, -0.7030344275608130244, 2.000000000000000000 ) ) ;
#693 = EDGE_CURVE ( 'NONE', #908, #746, #76, .T. ) ;
#694 = AXIS2_PLACEMENT_3D ( 'NONE', #100, #812, #371 ) ;
#695 = CARTESIAN_POINT ( 'NONE',  ( -12.29421588159396350, 5.618465679949435021, 0.000000000000000000 ) ) ;
#696 = ORIENTED_EDGE ( 'NONE', *, *, #465, .T. ) ;
#697 = DIRECTION ( 'NONE',  ( 0.000000000000000000, 0.000000000000000000, 1.000000000000000000 ) ) ;
#698 = ADVANCED_FACE ( 'NONE', ( #271 ), #505, .F. ) ;
#699 = CARTESIAN_POINT ( 'NONE',  ( 12.29421588159396173, 5.618465679949438574, 0.000000000000000000 ) ) ;
#700 = ORIENTED_EDGE ( 'NONE', *, *, #138, .F. ) ;
#701 = CARTESIAN_POINT ( 'NONE',  ( 0.000000000000000000, 0.000000000000000000, 0.000000000000000000 ) ) ;
#702 = CARTESIAN_POINT ( 'NONE',  ( -0.2500000000000000000, -0.7030344275608130244, 2.000000000000000000 ) ) ;
#703 = FACE_BOUND ( 'NONE', #82, .T. ) ;
#704 = ADVANCED_FACE ( 'NONE', ( #210 ), #130, .F. ) ;
#705 = ORIENTED_EDGE ( 'NONE', *, *, #799, .T. ) ;
#706 = DIRECTION ( 'NONE',  ( 1.000000000000000000, 0.000000000000000000, 0.000000000000000000 ) ) ;
#707 = PRESENTATION_LAYER_ASSIGNMENT (  '', '', ( #163 ) ) ;
#708 = VECTOR ( 'NONE', #178, 1000.000000000000000 ) ;
#709 = DIRECTION ( 'NONE',  ( 0.000000000000000000, 0.000000000000000000, 1.000000000000000000 ) ) ;
#710 = ORIENTED_EDGE ( 'NONE', *, *, #58, .T. ) ;
#711 = CARTESIAN_POINT ( 'NONE',  ( -8.000000000000000000, -11.00000000000011013, 4.000000000000000000 ) ) ;
#712 = FACE_OUTER_BOUND ( 'NONE', #684, .T. ) ;
#713 = EDGE_LOOP ( 'NONE', ( #796, #792 ) ) ;
#714 = CYLINDRICAL_SURFACE ( 'NONE', #234, 1.249999999999999334 ) ;
#715 = EDGE_CURVE ( 'NONE', #546, #284, #414, .T. ) ;
#716 = CARTESIAN_POINT ( 'NONE',  ( 0.000000000000000000, 10.61846567994943413, -8.599999999999996092 ) ) ;
#717 = ORIENTED_EDGE ( 'NONE', *, *, #383, .F. ) ;
#718 = FACE_BOUND ( 'NONE', #103, .T. ) ;
#719 = ADVANCED_FACE ( 'NONE', ( #135 ), #344, .F. ) ;
#720 = CIRCLE ( 'NONE', #47, 1.249999999999999334 ) ;
#721 = DIRECTION ( 'NONE',  ( 0.000000000000000000, 0.000000000000000000, 1.000000000000000000 ) ) ;
#722 = VERTEX_POINT ( 'NONE', #348 ) ;
#723 = ORIENTED_EDGE ( 'NONE', *, *, #483, .T. ) ;
#724 = CARTESIAN_POINT ( 'NONE',  ( 0.000000000000000000, 3.999999999999821476, -8.599999999999996092 ) ) ;
#725 =( BOUNDED_CURVE ( )  B_SPLINE_CURVE ( 3, ( #25, #618, #830, #695 ),
 .UNSPECIFIED., .F., .T. ) 
 B_SPLINE_CURVE_WITH_KNOTS ( ( 4, 4 ),
 ( 3.141592653589793116, 4.712388980384689674 ),
 .UNSPECIFIED. ) 
 CURVE ( )  GEOMETRIC_REPRESENTATION_ITEM ( )  RATIONAL_B_SPLINE_CURVE ( ( 1.000000000000000000, 0.8047378541243649375, 0.8047378541243649375, 1.000000000000000000 ) ) 
 REPRESENTATION_ITEM ( '' )  );
#726 = EDGE_CURVE ( 'NONE', #355, #918, #258, .T. ) ;
#727 = ORIENTED_EDGE ( 'NONE', *, *, #522, .F. ) ;
#728 = EDGE_LOOP ( 'NONE', ( #932, #133 ) ) ;
#729 = CARTESIAN_POINT ( 'NONE',  ( 0.2500000000000000000, -0.9000000000001110445, 2.000000000000000000 ) ) ;
#730 = DIRECTION ( 'NONE',  ( -0.000000000000000000, -0.000000000000000000, -1.000000000000000000 ) ) ;
#731 = EDGE_LOOP ( 'NONE', ( #351, #705, #406, #752 ) ) ;
#732 = PLANE ( 'NONE',  #1 ) ;
#733 = AXIS2_PLACEMENT_3D ( 'NONE', #315, #529, #391 ) ;
#734 = CARTESIAN_POINT ( 'NONE',  ( 0.000000000000000000, -11.00000000000011013, 2.000000000000000000 ) ) ;
#735 = VECTOR ( 'NONE', #79, 1000.000000000000000 ) ;
#736 = ORIENTED_EDGE ( 'NONE', *, *, #394, .T. ) ;
#737 = LINE ( 'NONE', #5, #516 ) ;
#738 = EDGE_CURVE ( 'NONE', #562, #746, #564, .T. ) ;
#739 = DIRECTION ( 'NONE',  ( -0.000000000000000000, -0.000000000000000000, -1.000000000000000000 ) ) ;
#740 = VERTEX_POINT ( 'NONE', #809 ) ;
#741 = ORIENTED_EDGE ( 'NONE', *, *, #654, .F. ) ;
#742 = CARTESIAN_POINT ( 'NONE',  ( -8.153200337090993344E-14, -19.00000000000011369, 2.000000000000000000 ) ) ;
#743 = CARTESIAN_POINT ( 'NONE',  ( -8.153200337090993344E-14, -19.00000000000011369, 4.000000000000000000 ) ) ;
#744 = EDGE_CURVE ( 'NONE', #576, #630, #939, .T. ) ;
#745 = DIRECTION ( 'NONE',  ( 0.1191452206184306778, -0.9928768384869219865, 0.000000000000000000 ) ) ;
#746 = VERTEX_POINT ( 'NONE', #575 ) ;
#747 = CARTESIAN_POINT ( 'NONE',  ( -0.2500000000000000000, -0.9000000000001110445, 2.000000000000000000 ) ) ;
#748 = DIRECTION ( 'NONE',  ( -0.000000000000000000, -0.000000000000000000, -1.000000000000000000 ) ) ;
#749 = CARTESIAN_POINT ( 'NONE',  ( 3.122849337825749926E-16, 10.61846567994943413, -13.69999999999999751 ) ) ;
#750 = AXIS2_PLACEMENT_3D ( 'NONE', #755, #286, #527 ) ;
#751 = VECTOR ( 'NONE', #664, 1000.000000000000000 ) ;
#752 = ORIENTED_EDGE ( 'NONE', *, *, #726, .F. ) ;
#753 = CYLINDRICAL_SURFACE ( 'NONE', #801, 10.30000000000000604 ) ;
#754 = VECTOR ( 'NONE', #541, 1000.000000000000000 ) ;
#755 = CARTESIAN_POINT ( 'NONE',  ( 0.000000000000000000, -11.00000000000011013, 0.000000000000000000 ) ) ;
#756 = FACE_OUTER_BOUND ( 'NONE', #139, .T. ) ;
#757 = VERTEX_POINT ( 'NONE', #192 ) ;
#758 = CARTESIAN_POINT ( 'NONE',  ( -1.250000000000082601, -19.00000000000011369, 0.000000000000000000 ) ) ;
#759 = DIRECTION ( 'NONE',  ( 0.1191452206184313856, -0.9928768384869219865, 0.000000000000000000 ) ) ;
#760 = CARTESIAN_POINT ( 'NONE',  ( 13.30000000000000604, 13.99999999999982236, 4.000000000000000000 ) ) ;
#761 = EDGE_LOOP ( 'NONE', ( #895, #108, #167, #134 ) ) ;
#762 = LINE ( 'NONE', #620, #817 ) ;
#763 = ADVANCED_FACE ( 'NONE', ( #487 ), #872, .F. ) ;
#764 = FACE_BOUND ( 'NONE', #713, .T. ) ;
#765 = CARTESIAN_POINT ( 'NONE',  ( 2.775557561562891351E-14, -3.000000000000110134, 4.000000000000000000 ) ) ;
#766 = ORIENTED_EDGE ( 'NONE', *, *, #465, .F. ) ;
#767 = AXIS2_PLACEMENT_3D ( 'NONE', #646, #490, #418 ) ;
#768 = VECTOR ( 'NONE', #587, 1000.000000000000114 ) ;
#769 = DIRECTION ( 'NONE',  ( 0.000000000000000000, -1.000000000000000000, 0.000000000000000000 ) ) ;
#770 = EDGE_CURVE ( 'NONE', #609, #740, #949, .T. ) ;
#771 = DIRECTION ( 'NONE',  ( 1.000000000000000000, 0.000000000000000000, 0.000000000000000000 ) ) ;
#772 = EDGE_LOOP ( 'NONE', ( #889, #781, #674, #303 ) ) ;
#773 = DIRECTION ( 'NONE',  ( -1.000000000000000000, 0.000000000000000000, 0.000000000000000000 ) ) ;
#774 = EDGE_CURVE ( 'NONE', #538, #918, #550, .T. ) ;
#775 = DIRECTION ( 'NONE',  ( -0.9928768384869219865, 0.1191452206184310109, 0.000000000000000000 ) ) ;
#776 = ORIENTED_EDGE ( 'NONE', *, *, #573, .F. ) ;
#777 = DIRECTION ( 'NONE',  ( 0.000000000000000000, 1.000000000000000000, 0.000000000000000000 ) ) ;
#778 = DIRECTION ( 'NONE',  ( -1.000000000000000000, 0.000000000000000000, 0.000000000000000000 ) ) ;
#779 = VERTEX_POINT ( 'NONE', #204 ) ;
#780 =( NAMED_UNIT ( * ) PLANE_ANGLE_UNIT ( ) SI_UNIT ( $, .RADIAN. ) );
#781 = ORIENTED_EDGE ( 'NONE', *, *, #617, .T. ) ;
#782 = DIRECTION ( 'NONE',  ( -1.000000000000000000, 0.000000000000000000, 0.000000000000000000 ) ) ;
#783 = VECTOR ( 'NONE', #588, 1000.000000000000000 ) ;
#784 = CIRCLE ( 'NONE', #482, 1.250000000000001332 ) ;
#785 = AXIS2_PLACEMENT_3D ( 'NONE', #415, #189, #786 ) ;
#786 = DIRECTION ( 'NONE',  ( 1.000000000000000000, 0.000000000000000000, 0.000000000000000000 ) ) ;
#787 = ORIENTED_EDGE ( 'NONE', *, *, #424, .T. ) ;
#788 = ADVANCED_FACE ( 'NONE', ( #426 ), #714, .F. ) ;
#789 = VERTEX_POINT ( 'NONE', #137 ) ;
#790 = DIRECTION ( 'NONE',  ( 0.1191452206184307333, 0.9928768384869219865, -0.000000000000000000 ) ) ;
#791 = PLANE ( 'NONE',  #535 ) ;
#792 = ORIENTED_EDGE ( 'NONE', *, *, #555, .F. ) ;
#793 = EDGE_CURVE ( 'NONE', #927, #609, #195, .T. ) ;
#794 = DIRECTION ( 'NONE',  ( 1.000000000000000000, 8.707301330873870946E-14, 0.000000000000000000 ) ) ;
#795 = DIRECTION ( 'NONE',  ( -0.000000000000000000, -0.000000000000000000, -1.000000000000000000 ) ) ;
#796 = ORIENTED_EDGE ( 'NONE', *, *, #350, .F. ) ;
#797 = EDGE_LOOP ( 'NONE', ( #113, #270, #7, #741 ) ) ;
#798 = CARTESIAN_POINT ( 'NONE',  ( 0.2500000000000000000, -0.9000000000001110445, 2.000000000000000000 ) ) ;
#799 = EDGE_CURVE ( 'NONE', #52, #538, #681, .T. ) ;
#800 = AXIS2_PLACEMENT_3D ( 'NONE', #653, #67, #200 ) ;
#801 = AXIS2_PLACEMENT_3D ( 'NONE', #361, #890, #21 ) ;
#802 = CIRCLE ( 'NONE', #750, 10.30000000000000426 ) ;
#803 = ORIENTED_EDGE ( 'NONE', *, *, #233, .F. ) ;
#804 = VERTEX_POINT ( 'NONE', #758 ) ;
#805 = CARTESIAN_POINT ( 'NONE',  ( 0.000000000000000000, -11.00000000000011013, 0.000000000000000000 ) ) ;
#806 = ADVANCED_FACE ( 'NONE', ( #227 ), #526, .F. ) ;
#807 = CARTESIAN_POINT ( 'NONE',  ( -13.30000000000000604, 13.99999999999982236, 4.000000000000000000 ) ) ;
#808 = ORIENTED_EDGE ( 'NONE', *, *, #942, .T. ) ;
#809 = CARTESIAN_POINT ( 'NONE',  ( -0.2500000000000000000, -0.9000000000001110445, 0.000000000000000000 ) ) ;
#810 = FACE_OUTER_BOUND ( 'NONE', #413, .T. ) ;
#811 = ORIENTED_EDGE ( 'NONE', *, *, #338, .F. ) ;
#812 = DIRECTION ( 'NONE',  ( 0.000000000000000000, 0.000000000000000000, 1.000000000000000000 ) ) ;
#813 = CARTESIAN_POINT ( 'NONE',  ( 10.30000000000000426, -11.00000000000011013, 0.000000000000000000 ) ) ;
#814 = AXIS2_PLACEMENT_3D ( 'NONE', #571, #795, #64 ) ;
#815 = AXIS2_PLACEMENT_3D ( 'NONE', #433, #218, #8 ) ;
#816 = VERTEX_POINT ( 'NONE', #606 ) ;
#817 = VECTOR ( 'NONE', #547, 1000.000000000000114 ) ;
#818 = ORIENTED_EDGE ( 'NONE', *, *, #80, .F. ) ;
#819 = LINE ( 'NONE', #96, #735 ) ;
#820 = EDGE_CURVE ( 'NONE', #425, #221, #567, .T. ) ;
#821 = CARTESIAN_POINT ( 'NONE',  ( 1.250000000000027534, -3.000000000000110134, 0.000000000000000000 ) ) ;
#822 = FACE_OUTER_BOUND ( 'NONE', #442, .T. ) ;
#823 = ORIENTED_EDGE ( 'NONE', *, *, #22, .T. ) ;
#824 = DIRECTION ( 'NONE',  ( 0.000000000000000000, 0.000000000000000000, 1.000000000000000000 ) ) ;
#825 = CARTESIAN_POINT ( 'NONE',  ( -1.249999999999972022, -3.000000000000110134, 2.000000000000000000 ) ) ;
#826 = ORIENTED_EDGE ( 'NONE', *, *, #594, .T. ) ;
#827 = ORIENTED_EDGE ( 'NONE', *, *, #206, .F. ) ;
#828 = CARTESIAN_POINT ( 'NONE',  ( 0.000000000000000000, 10.61846567994943413, -18.60000000000000497 ) ) ;
#829 = CARTESIAN_POINT ( 'NONE',  ( 0.2500000000000000000, -0.9000000000001110445, 2.000000000000000000 ) ) ;
#830 = CARTESIAN_POINT ( 'NONE',  ( -12.64568774417010211, 8.547397868083960404, 2.064049099597420858E-15 ) ) ;
#831 = MECHANICAL_DESIGN_GEOMETRIC_PRESENTATION_REPRESENTATION (  '', ( #163 ), #938 ) ;
#832 = AXIS2_PLACEMENT_3D ( 'NONE', #633, #637, #773 ) ;
#833 = ORIENTED_EDGE ( 'NONE', *, *, #589, .T. ) ;
#834 = CARTESIAN_POINT ( 'NONE',  ( 0.000000000000000000, 3.999999999999821476, -21.15000000000000568 ) ) ;
#835 = VECTOR ( 'NONE', #592, 1000.000000000000000 ) ;
#836 = DIRECTION ( 'NONE',  ( 1.000000000000000000, 0.000000000000000000, 0.000000000000000000 ) ) ;
#837 = EDGE_CURVE ( 'NONE', #126, #160, #324, .T. ) ;
#838 = ORIENTED_EDGE ( 'NONE', *, *, #715, .F. ) ;
#839 = FACE_OUTER_BOUND ( 'NONE', #577, .T. ) ;
#840 = CARTESIAN_POINT ( 'NONE',  ( 3.122849337825750419E-16, 3.999999999999821476, -23.70000000000000639 ) ) ;
#841 = VERTEX_POINT ( 'NONE', #366 ) ;
#842 = PLANE ( 'NONE',  #422 ) ;
#843 = EDGE_CURVE ( 'NONE', #360, #804, #819, .T. ) ;
#844 = DIRECTION ( 'NONE',  ( 0.000000000000000000, 0.000000000000000000, 1.000000000000000000 ) ) ;
#845 = LINE ( 'NONE', #245, #207 ) ;
#846 = EDGE_LOOP ( 'NONE', ( #150, #499, #175, #197 ) ) ;
#847 = AXIS2_PLACEMENT_3D ( 'NONE', #188, #616, #782 ) ;
#848 = ADVANCED_FACE ( 'NONE', ( #439 ), #17, .F. ) ;
#849 = DIRECTION ( 'NONE',  ( -1.000000000000000000, 0.000000000000000000, 0.000000000000000000 ) ) ;
#850 = CARTESIAN_POINT ( 'NONE',  ( 4.049999999990457233, -11.00000000001332268, 4.000000000000000000 ) ) ;
#851 = ORIENTED_EDGE ( 'NONE', *, *, #496, .T. ) ;
#852 = CARTESIAN_POINT ( 'NONE',  ( -0.2499999999999995837, -0.7030344275608165772, 2.000000000000000000 ) ) ;
#853 = CARTESIAN_POINT ( 'NONE',  ( -4.050000000009547740, -11.00000000001332268, 10.00000000000000000 ) ) ;
#854 = ORIENTED_EDGE ( 'NONE', *, *, #22, .F. ) ;
#855 = APPLICATION_PROTOCOL_DEFINITION ( 'draft international standard', 'automotive_design', 1998, #869 ) ;
#856 = DIRECTION ( 'NONE',  ( 0.000000000000000000, 0.000000000000000000, 1.000000000000000000 ) ) ;
#857 = EDGE_CURVE ( 'NONE', #180, #757, #277, .T. ) ;
#858 = CARTESIAN_POINT ( 'NONE',  ( 0.000000000000000000, 10.61846567994943413, -21.15000000000000568 ) ) ;
#859 = VERTEX_POINT ( 'NONE', #828 ) ;
#860 = DIRECTION ( 'NONE',  ( 0.000000000000000000, 0.000000000000000000, 1.000000000000000000 ) ) ;
#861 = AXIS2_PLACEMENT_3D ( 'NONE', #765, #106, #19 ) ;
#862 = VECTOR ( 'NONE', #790, 1000.000000000000114 ) ;
#863 = AXIS2_PLACEMENT_3D ( 'NONE', #84, #824, #659 ) ;
#864 = DIRECTION ( 'NONE',  ( -0.1191452206184310109, -0.9928768384869219865, 0.000000000000000000 ) ) ;
#865 = ADVANCED_FACE ( 'NONE', ( #299, #669, #161 ), #508, .F. ) ;
#866 = EDGE_LOOP ( 'NONE', ( #493, #121, #867, #507 ) ) ;
#867 = ORIENTED_EDGE ( 'NONE', *, *, #568, .F. ) ;
#868 = DIRECTION ( 'NONE',  ( -1.000000000000000000, 0.000000000000000000, 0.000000000000000000 ) ) ;
#869 = APPLICATION_CONTEXT ( 'automotive_design' ) ;
#870 = FACE_BOUND ( 'NONE', #474, .T. ) ;
#871 = ORIENTED_EDGE ( 'NONE', *, *, #820, .T. ) ;
#872 = PLANE ( 'NONE',  #673 ) ;
#873 = EDGE_CURVE ( 'NONE', #841, #117, #13, .T. ) ;
#874 = EDGE_LOOP ( 'NONE', ( #470, #56, #854, #582 ) ) ;
#875 = ORIENTED_EDGE ( 'NONE', *, *, #555, .T. ) ;
#876 = FACE_BOUND ( 'NONE', #680, .T. ) ;
#877 = EDGE_CURVE ( 'NONE', #160, #425, #737, .T. ) ;
#878 = COLOUR_RGB ( '',0.7921568627450980005, 0.8196078431372548767, 0.9333333333333333481 ) ;
#879 = VECTOR ( 'NONE', #296, 1000.000000000000000 ) ;
#880 = CIRCLE ( 'NONE', #610, 2.550000000000000266 ) ;
#881 = DIRECTION ( 'NONE',  ( 1.000000000000000000, 0.000000000000000000, 0.000000000000000000 ) ) ;
#882 = CARTESIAN_POINT ( 'NONE',  ( -8.000000000000000000, -11.00000000000011013, 2.000000000000000000 ) ) ;
#883 = CARTESIAN_POINT ( 'NONE',  ( -9.545570990902773706E-12, -11.00000000001332268, 4.000000000000000000 ) ) ;
#884 = ORIENTED_EDGE ( 'NONE', *, *, #300, .T. ) ;
#885 = DIRECTION ( 'NONE',  ( 0.000000000000000000, 0.000000000000000000, 1.000000000000000000 ) ) ;
#886 = CARTESIAN_POINT ( 'NONE',  ( 7.999999999999998224, -11.00000000000016165, 0.000000000000000000 ) ) ;
#887 = EDGE_CURVE ( 'NONE', #789, #39, #290, .T. ) ;
#888 = CYLINDRICAL_SURFACE ( 'NONE', #676, 1.249999999999999778 ) ;
#889 = ORIENTED_EDGE ( 'NONE', *, *, #171, .F. ) ;
#890 = DIRECTION ( 'NONE',  ( -0.000000000000000000, -0.000000000000000000, 1.000000000000000000 ) ) ;
#891 = CARTESIAN_POINT ( 'NONE',  ( -13.30000000000000604, 13.99999999999982236, 4.000000000000000000 ) ) ;
#892 = VECTOR ( 'NONE', #162, 1000.000000000000000 ) ;
#893 = CARTESIAN_POINT ( 'NONE',  ( -0.2500000000000000000, -0.9000000000001110445, 2.000000000000000000 ) ) ;
#894 = EDGE_CURVE ( 'NONE', #382, #360, #484, .T. ) ;
#895 = ORIENTED_EDGE ( 'NONE', *, *, #799, .F. ) ;
#896 = DIRECTION ( 'NONE',  ( 1.000000000000000000, 0.000000000000000000, 0.000000000000000000 ) ) ;
#897 = DIRECTION ( 'NONE',  ( 0.000000000000000000, 0.000000000000000000, 1.000000000000000000 ) ) ;
#898 = ORIENTED_EDGE ( 'NONE', *, *, #542, .T. ) ;
#899 = CARTESIAN_POINT ( 'NONE',  ( 3.122849337825750419E-16, 3.999999999999821476, -13.69999999999999751 ) ) ;
#900 = ADVANCED_FACE ( 'NONE', ( #222 ), #753, .F. ) ;
#901 = CARTESIAN_POINT ( 'NONE',  ( -0.2500000000000000000, -0.9000000000001110445, 2.000000000000000000 ) ) ;
#902 = CARTESIAN_POINT ( 'NONE',  ( 0.2500000000000000000, -0.9000000000001110445, 0.000000000000000000 ) ) ;
#903 = VERTEX_POINT ( 'NONE', #145 ) ;
#904 = CYLINDRICAL_SURFACE ( 'NONE', #534, 2.550000000000000266 ) ;
#905 = CARTESIAN_POINT ( 'NONE',  ( 12.89421588159395782, 10.61846567994943413, -63.11407791361992281 ) ) ;
#906 = VECTOR ( 'NONE', #473, 1000.000000000000000 ) ;
#907 = AXIS2_PLACEMENT_3D ( 'NONE', #254, #844, #706 ) ;
#908 = VERTEX_POINT ( 'NONE', #521 ) ;
#909 = AXIS2_PLACEMENT_3D ( 'NONE', #747, #89, #675 ) ;
#910 = CIRCLE ( 'NONE', #581, 10.30000000000000604 ) ;
#911 = CARTESIAN_POINT ( 'NONE',  ( 12.89421588159395782, 10.61846567994943413, -36.30000000000000426 ) ) ;
#912 = ADVANCED_FACE ( 'NONE', ( #156 ), #443, .F. ) ;
#913 = FACE_OUTER_BOUND ( 'NONE', #194, .T. ) ;
#914 = EDGE_LOOP ( 'NONE', ( #569, #417 ) ) ;
#915 = CARTESIAN_POINT ( 'NONE',  ( 0.000000000000000000, 10.61846567994943413, -11.14999999999999680 ) ) ;
#916 = CARTESIAN_POINT ( 'NONE',  ( 0.000000000000000000, 10.61846567994943413, -11.14999999999999680 ) ) ;
#917 = ADVANCED_FACE ( 'NONE', ( #295 ), #904, .F. ) ;
#918 = VERTEX_POINT ( 'NONE', #471 ) ;
#919 = DIRECTION ( 'NONE',  ( 0.000000000000000000, 0.000000000000000000, -1.000000000000000000 ) ) ;
#920 = CARTESIAN_POINT ( 'NONE',  ( -8.000000000000000000, -11.00000000000011013, 0.000000000000000000 ) ) ;
#921 = AXIS2_PLACEMENT_3D ( 'NONE', #858, #410, #721 ) ;
#922 = ORIENTED_EDGE ( 'NONE', *, *, #314, .T. ) ;
#923 = CARTESIAN_POINT ( 'NONE',  ( 0.000000000000000000, -11.00000000000011013, 2.000000000000000000 ) ) ;
#924 = VECTOR ( 'NONE', #682, 1000.000000000000000 ) ;
#925 = CARTESIAN_POINT ( 'NONE',  ( -0.2500000000000000000, -0.7030344275608130244, 2.000000000000000000 ) ) ;
#926 = DIRECTION ( 'NONE',  ( 1.000000000000000000, 0.000000000000000000, -0.000000000000000000 ) ) ;
#927 = VERTEX_POINT ( 'NONE', #304 ) ;
#928 = FACE_OUTER_BOUND ( 'NONE', #72, .T. ) ;
#929 = LINE ( 'NONE', #173, #595 ) ;
#930 = DIRECTION ( 'NONE',  ( -0.000000000000000000, -0.000000000000000000, -1.000000000000000000 ) ) ;
#931 = ORIENTED_EDGE ( 'NONE', *, *, #887, .F. ) ;
#932 = ORIENTED_EDGE ( 'NONE', *, *, #111, .F. ) ;
#933 = DIRECTION ( 'NONE',  ( -0.000000000000000000, -0.000000000000000000, -1.000000000000000000 ) ) ;
#934 = PRODUCT_RELATED_PRODUCT_CATEGORY ( 'part', '', ( #328 ) ) ;
#935 = VERTEX_POINT ( 'NONE', #36 ) ;
#936 = ORIENTED_EDGE ( 'NONE', *, *, #287, .T. ) ;
#937 = CARTESIAN_POINT ( 'NONE',  ( 7.999999999999998224, -11.00000000000016165, 2.000000000000000000 ) ) ;
#938 =( GEOMETRIC_REPRESENTATION_CONTEXT ( 3 ) GLOBAL_UNCERTAINTY_ASSIGNED_CONTEXT ( ( #15 ) ) GLOBAL_UNIT_ASSIGNED_CONTEXT ( ( #599, #9, #523 ) ) REPRESENTATION_CONTEXT ( 'NONE', 'WORKASPACE' ) );
#939 = CIRCLE ( 'NONE', #800, 2.550000000000000266 ) ;
#940 = AXIS2_PLACEMENT_3D ( 'NONE', #600, #950, #11 ) ;
#941 = DIRECTION ( 'NONE',  ( 0.000000000000000000, 0.000000000000000000, 1.000000000000000000 ) ) ;
#942 = EDGE_CURVE ( 'NONE', #378, #370, #762, .T. ) ;
#943 = ORIENTED_EDGE ( 'NONE', *, *, #661, .T. ) ;
#944 = FACE_BOUND ( 'NONE', #4, .T. ) ;
#945 = DIRECTION ( 'NONE',  ( 0.000000000000000000, 1.000000000000000000, -0.000000000000000000 ) ) ;
#946 = ORIENTED_EDGE ( 'NONE', *, *, #346, .T. ) ;
#947 = ADVANCED_FACE ( 'NONE', ( #928 ), #842, .T. ) ;
#948 = EDGE_LOOP ( 'NONE', ( #253, #563 ) ) ;
#949 = LINE ( 'NONE', #275, #498 ) ;
#950 = DIRECTION ( 'NONE',  ( -0.000000000000000000, 1.000000000000000000, -0.000000000000000000 ) ) ;
#951 = ORIENTED_EDGE ( 'NONE', *, *, #80, .T. ) ;
#952 = DIRECTION ( 'NONE',  ( 0.000000000000000000, 1.000000000000000000, -0.000000000000000000 ) ) ;
ENDSEC;
END-ISO-10303-21;
